SplineFontDB: 3.0
FontName: Maryam-Regular
FullName: Maryam Regular
FamilyName: Maryam Disp
Weight: Regular
Copyright: Copyright 2015 Google Inc. All Rights Reserved.
Version: 2.000;GOOG;noto-source:20170915:90ef993387c0; ttfautohint (v1.7)
ItalicAngle: 0
UnderlinePosition: -175
UnderlineWidth: 50
Ascent: 800
Descent: 200
InvalidEm: 0
sfntRevision: 0x00020000
LayerCount: 2
Layer: 0 1 "Back" 1
Layer: 1 1 "Fore" 0
XUID: [1021 384 -1597622184 4057416]
StyleMap: 0x0040
FSType: 0
OS2Version: 4
OS2_WeightWidthSlopeOnly: 1
OS2_UseTypoMetrics: 0
CreationTime: 1568462558
ModificationTime: 1568657063
PfmFamily: 17
TTFWeight: 400
TTFWidth: 5
LineGap: 0
VLineGap: 0
Panose: 2 11 5 2 4 5 4 2 2 4
OS2TypoAscent: 1069
OS2TypoAOffset: 0
OS2TypoDescent: -293
OS2TypoDOffset: 0
OS2TypoLinegap: 0
OS2WinAscent: 1069
OS2WinAOffset: 0
OS2WinDescent: 293
OS2WinDOffset: 0
HheadAscent: 1069
HheadAOffset: 0
HheadDescent: -293
HheadDOffset: 0
OS2SubXSize: 650
OS2SubYSize: 600
OS2SubXOff: 0
OS2SubYOff: 75
OS2SupXSize: 650
OS2SupYSize: 600
OS2SupXOff: 0
OS2SupYOff: 350
OS2StrikeYSize: 50
OS2StrikeYPos: 322
OS2CapHeight: 714
OS2XHeight: 536
OS2Vendor: 'GOOG'
OS2CodePages: 00000000.00000000
OS2UnicodeRanges: e00022ff.c000201f.08000029.00100000
Lookup: 1 0 0 "'aalt' Access All Alternates lookup 0" { "'aalt' Access All Alternates lookup 0 subtable"  } ['aalt' ('DFLT' <'dflt' > 'cyrl' <'dflt' > 'grek' <'dflt' > 'latn' <'CAT ' 'MOL ' 'NAV ' 'ROM ' 'dflt' > ) ]
Lookup: 3 0 0 "'aalt' Access All Alternates lookup 1" { "'aalt' Access All Alternates lookup 1 subtable"  } ['aalt' ('DFLT' <'dflt' > 'cyrl' <'dflt' > 'grek' <'dflt' > 'latn' <'CAT ' 'MOL ' 'NAV ' 'ROM ' 'dflt' > ) ]
Lookup: 4 0 0 "'ccmp' Glyph Composition/Decomposition lookup 2" { "'ccmp' Glyph Composition/Decomposition lookup 2 subtable"  } ['ccmp' ('DFLT' <'dflt' > 'cyrl' <'dflt' > 'grek' <'dflt' > 'latn' <'CAT ' 'MAH ' 'MOL ' 'NAV ' 'ROM ' 'dflt' > ) ]

StartChar: .notdef
Encoding: 65536 -1 0
Width: 364
Flags: W
LayerCount: 2
Fore
SplineSet
33 0 m 1,0,-1
 33 666 l 1,1,-1
 298 666 l 1,2,-1
 298 0 l 1,3,-1
 33 0 l 1,0,-1
66 33 m 1,4,-1
 265 33 l 1,5,-1
 265 633 l 1,6,-1
 66 633 l 1,7,-1
 66 33 l 1,4,-1
EndSplineSet
EndChar

StartChar: exclam#0
Encoding: 33 33 6
Width: 255
GlyphClass: 2
Flags: W
LayerCount: 2
Fore
SplineSet
162 201 m 1,0,-1
 92 201 l 1,1,-1
 75 714 l 1,2,-1
 180 714 l 1,3,-1
 162 201 l 1,0,-1
67 54 m 0,4,5
 67 91 67 91 84.5 106 c 128,-1,6
 102 121 102 121 127 121 c 0,7,8
 151 121 151 121 169 106 c 128,-1,9
 187 91 187 91 187 54 c 0,10,11
 187 18 187 18 169 2 c 128,-1,12
 151 -14 151 -14 127 -14 c 0,13,14
 102 -14 102 -14 84.5 2 c 128,-1,15
 67 18 67 18 67 54 c 0,4,5
EndSplineSet
Substitution2: "'locl' Localized Forms in Arabic lookup 48 subtable" exclam#1
Substitution2: "'smcp' Lowercase to Small Capitals lookup 34 subtable" exclam.sc#0
Substitution2: "'c2sc' Capitals to Small Capitals lookup 33 subtable" exclam.sc#0
EndChar

StartChar: quotedbl#0
Encoding: 34 34 7
Width: 388
GlyphClass: 2
Flags: W
LayerCount: 2
Fore
SplineSet
153 714 m 1,0,-1
 134 456 l 1,1,-1
 80 456 l 1,2,-1
 61 714 l 1,3,-1
 153 714 l 1,0,-1
327 714 m 1,4,-1
 308 456 l 1,5,-1
 253 456 l 1,6,-1
 235 714 l 1,7,-1
 327 714 l 1,4,-1
EndSplineSet
EndChar

StartChar: numbersign#0
Encoding: 35 35 8
Width: 607
GlyphClass: 2
Flags: W
LayerCount: 2
Fore
SplineSet
451 436 m 1,0,-1
 423 276 l 1,1,-1
 551 276 l 1,2,-1
 551 209 l 1,3,-1
 410 209 l 1,4,-1
 372 0 l 1,5,-1
 303 0 l 1,6,-1
 341 209 l 1,7,-1
 210 209 l 1,8,-1
 173 0 l 1,9,-1
 105 0 l 1,10,-1
 141 209 l 1,11,-1
 23 209 l 1,12,-1
 23 276 l 1,13,-1
 153 276 l 1,14,-1
 183 436 l 1,15,-1
 58 436 l 1,16,-1
 58 502 l 1,17,-1
 195 502 l 1,18,-1
 232 714 l 1,19,-1
 302 714 l 1,20,-1
 265 502 l 1,21,-1
 397 502 l 1,22,-1
 434 714 l 1,23,-1
 502 714 l 1,24,-1
 464 502 l 1,25,-1
 583 502 l 1,26,-1
 583 436 l 1,27,-1
 451 436 l 1,0,-1
223 276 m 1,28,-1
 354 276 l 1,29,-1
 382 436 l 1,30,-1
 251 436 l 1,31,-1
 223 276 l 1,28,-1
EndSplineSet
EndChar

StartChar: dollar#0
Encoding: 36 36 9
Width: 537
GlyphClass: 2
Flags: W
LayerCount: 2
Fore
SplineSet
238 -58 m 1,0,-1
 238 49 l 1,1,2
 185 50 185 50 136.5 58.5 c 128,-1,3
 88 67 88 67 57 82 c 1,4,-1
 57 167 l 1,5,6
 89 151 89 151 139.5 139 c 128,-1,7
 190 127 190 127 238 126 c 1,8,-1
 238 328 l 1,9,10
 144 355 144 355 100.5 396 c 128,-1,11
 57 437 57 437 57 508 c 0,12,13
 57 582 57 582 106 624 c 128,-1,14
 155 666 155 666 238 671 c 1,15,-1
 238 759 l 1,16,-1
 298 759 l 1,17,-1
 298 672 l 1,18,19
 348 670 348 670 389.5 660 c 128,-1,20
 431 650 431 650 466 635 c 1,21,-1
 439 561 l 1,22,23
 408 574 408 574 372 583.5 c 128,-1,24
 336 593 336 593 298 596 c 1,25,-1
 298 395 l 1,26,27
 360 376 360 376 401.5 354.5 c 128,-1,28
 443 333 443 333 464.5 301.5 c 128,-1,29
 486 270 486 270 486 220 c 0,30,31
 486 150 486 150 437.5 106.5 c 128,-1,32
 389 63 389 63 298 53 c 1,33,-1
 298 -58 l 1,34,-1
 238 -58 l 1,0,-1
238 417 m 1,35,-1
 238 594 l 1,36,37
 189 590 189 590 165.5 569 c 128,-1,38
 142 548 142 548 142 515 c 0,39,40
 142 475 142 475 162.5 453.5 c 128,-1,41
 183 432 183 432 238 417 c 1,35,-1
298 131 m 1,42,43
 351 137 351 137 376 158.5 c 128,-1,44
 401 180 401 180 401 214 c 0,45,46
 401 252 401 252 379 271 c 128,-1,47
 357 290 357 290 298 307 c 1,48,-1
 298 131 l 1,42,43
EndSplineSet
EndChar

StartChar: percent#0
Encoding: 37 37 10
Width: 787
GlyphClass: 2
Flags: W
LayerCount: 2
Fore
SplineSet
184 724 m 0,0,1
 254 724 254 724 290 665.5 c 128,-1,2
 326 607 326 607 326 501 c 256,3,4
 326 395 326 395 292 335.5 c 128,-1,5
 258 276 258 276 184 276 c 0,6,7
 116 276 116 276 80.5 335.5 c 128,-1,8
 45 395 45 395 45 501 c 256,9,10
 45 607 45 607 78.5 665.5 c 128,-1,11
 112 724 112 724 184 724 c 0,0,1
617 714 m 1,12,-1
 245 0 l 1,13,-1
 170 0 l 1,14,-1
 542 714 l 1,15,-1
 617 714 l 1,12,-1
184 662 m 0,16,17
 149 662 149 662 133 621.5 c 128,-1,18
 117 581 117 581 117 501 c 256,19,20
 117 421 117 421 133 380 c 128,-1,21
 149 339 149 339 184 339 c 0,22,23
 254 339 254 339 254 501 c 0,24,25
 254 662 254 662 184 662 c 0,16,17
599 438 m 0,26,27
 668 438 668 438 705 379.5 c 128,-1,28
 742 321 742 321 742 215 c 256,29,30
 742 109 742 109 707 49.5 c 128,-1,31
 672 -10 672 -10 599 -10 c 0,32,33
 532 -10 532 -10 496 49.5 c 128,-1,34
 460 109 460 109 460 215 c 256,35,36
 460 321 460 321 493.5 379.5 c 128,-1,37
 527 438 527 438 599 438 c 0,26,27
599 375 m 0,38,39
 533 375 533 375 533 215 c 0,40,41
 533 53 533 53 599 53 c 0,42,43
 669 53 669 53 669 215 c 0,44,45
 669 375 669 375 599 375 c 0,38,39
EndSplineSet
EndChar

StartChar: ampersand#0
Encoding: 38 38 11
Width: 690
GlyphClass: 2
Flags: W
LayerCount: 2
Fore
SplineSet
286 725 m 0,0,1
 362 725 362 725 406.5 684.5 c 128,-1,2
 451 644 451 644 451 571 c 0,3,4
 451 508 451 508 412.5 464 c 128,-1,5
 374 420 374 420 316 384 c 1,6,-1
 494 198 l 1,7,8
 518 229 518 229 533 269.5 c 128,-1,9
 548 310 548 310 559 357 c 1,10,-1
 647 357 l 1,11,12
 633 292 633 292 609.5 237.5 c 128,-1,13
 586 183 586 183 550 142 c 1,14,-1
 688 0 l 1,15,-1
 571 0 l 1,16,-1
 492 84 l 1,17,18
 448 42 448 42 394 16 c 128,-1,19
 340 -10 340 -10 263 -10 c 0,20,21
 164 -10 164 -10 106.5 41 c 128,-1,22
 49 92 49 92 49 186 c 0,23,24
 49 262 49 262 87.5 309 c 128,-1,25
 126 356 126 356 192 396 c 1,26,27
 161 432 161 432 136.5 473 c 128,-1,28
 112 514 112 514 112 569 c 0,29,30
 112 642 112 642 159 683.5 c 128,-1,31
 206 725 206 725 286 725 c 0,0,1
284 653 m 0,32,33
 246 653 246 653 221 631 c 128,-1,34
 196 609 196 609 196 570 c 0,35,36
 196 534 196 534 213.5 503.5 c 128,-1,37
 231 473 231 473 264 436 c 1,38,39
 318 470 318 470 341.5 500 c 128,-1,40
 365 530 365 530 365 571 c 0,41,42
 365 607 365 607 343 630 c 128,-1,43
 321 653 321 653 284 653 c 0,32,33
244 341 m 1,44,45
 195 309 195 309 167.5 276 c 128,-1,46
 140 243 140 243 140 189 c 0,47,48
 140 134 140 134 174.5 101 c 128,-1,49
 209 68 209 68 266 68 c 0,50,51
 324 68 324 68 366 89 c 128,-1,52
 408 110 408 110 437 139 c 1,53,-1
 244 341 l 1,44,45
EndSplineSet
Substitution2: "'smcp' Lowercase to Small Capitals lookup 34 subtable" ampersand.sc#0
Substitution2: "'c2sc' Capitals to Small Capitals lookup 33 subtable" ampersand.sc#0
EndChar

StartChar: quotesingle#0
Encoding: 39 39 12
Width: 214
GlyphClass: 2
Flags: W
LayerCount: 2
Fore
SplineSet
153 714 m 1,0,-1
 134 456 l 1,1,-1
 80 456 l 1,2,-1
 61 714 l 1,3,-1
 153 714 l 1,0,-1
EndSplineSet
EndChar

StartChar: parenleft#0
Encoding: 40 40 13
Width: 285
GlyphClass: 2
Flags: W
LayerCount: 2
Fore
SplineSet
38 274 m 0,0,1
 38 396 38 396 71.5 509.5 c 128,-1,2
 105 623 105 623 176 714 c 1,3,-1
 257 714 l 1,4,5
 192 620 192 620 158.5 507 c 128,-1,6
 125 394 125 394 125 275 c 0,7,8
 125 159 125 159 158.5 47.5 c 128,-1,9
 192 -64 192 -64 256 -158 c 1,10,-1
 176 -158 l 1,11,12
 105 -70 105 -70 71.5 41.5 c 128,-1,13
 38 153 38 153 38 274 c 0,0,1
EndSplineSet
Substitution2: "'smcp' Lowercase to Small Capitals lookup 34 subtable" parenleft.sc#0
Substitution2: "'c2sc' Capitals to Small Capitals lookup 33 subtable" parenleft.sc#0
Substitution2: "'sups' Superscript lookup 19 subtable" uni207D#0
Substitution2: "'subs' Subscript lookup 18 subtable" uni208D#0
EndChar

StartChar: parenright#0
Encoding: 41 41 14
Width: 285
GlyphClass: 2
Flags: W
LayerCount: 2
Fore
SplineSet
247 274 m 0,0,1
 247 153 247 153 213.5 41.5 c 128,-1,2
 180 -70 180 -70 109 -158 c 1,3,-1
 29 -158 l 1,4,5
 94 -64 94 -64 127 47.5 c 128,-1,6
 160 159 160 159 160 275 c 0,7,8
 160 394 160 394 126.5 507 c 128,-1,9
 93 620 93 620 28 714 c 1,10,-1
 109 714 l 1,11,12
 180 623 180 623 213.5 509.5 c 128,-1,13
 247 396 247 396 247 274 c 0,0,1
EndSplineSet
Substitution2: "'smcp' Lowercase to Small Capitals lookup 34 subtable" parenright.sc#0
Substitution2: "'c2sc' Capitals to Small Capitals lookup 33 subtable" parenright.sc#0
Substitution2: "'sups' Superscript lookup 19 subtable" uni207E#0
Substitution2: "'subs' Subscript lookup 18 subtable" uni208E#0
EndChar

StartChar: asterisk#0
Encoding: 42 42 15
Width: 518
GlyphClass: 2
Flags: W
LayerCount: 2
Fore
SplineSet
304 760 m 1,0,-1
 285 568 l 1,1,-1
 465 622 l 1,2,-1
 478 530 l 1,3,-1
 306 515 l 1,4,-1
 418 357 l 1,5,-1
 335 310 l 1,6,-1
 256 485 l 1,7,-1
 184 310 l 1,8,-1
 99 357 l 1,9,-1
 208 515 l 1,10,-1
 38 530 l 1,11,-1
 52 622 l 1,12,-1
 229 568 l 1,13,-1
 210 760 l 1,14,-1
 304 760 l 1,0,-1
EndSplineSet
EndChar

StartChar: plus#0
Encoding: 43 43 16
Width: 537
GlyphClass: 2
Flags: W
LayerCount: 2
Fore
SplineSet
303 388 m 1,0,-1
 489 388 l 1,1,-1
 489 317 l 1,2,-1
 303 317 l 1,3,-1
 303 111 l 1,4,-1
 232 111 l 1,5,-1
 232 317 l 1,6,-1
 46 317 l 1,7,-1
 46 388 l 1,8,-1
 232 388 l 1,9,-1
 232 595 l 1,10,-1
 303 595 l 1,11,-1
 303 388 l 1,0,-1
EndSplineSet
Substitution2: "'sups' Superscript lookup 19 subtable" uni207A#0
Substitution2: "'subs' Subscript lookup 18 subtable" uni208A#0
EndChar

StartChar: comma#0
Encoding: 44 44 17
Width: 254
GlyphClass: 2
Flags: W
LayerCount: 2
Fore
SplineSet
176 116 m 1,0,-1
 183 105 l 1,1,2
 170 52 170 52 147 -11.5 c 128,-1,3
 124 -75 124 -75 102 -129 c 1,4,-1
 38 -129 l 1,5,6
 52 -72 52 -72 65 -4 c 128,-1,7
 78 64 78 64 85 116 c 1,8,-1
 176 116 l 1,0,-1
EndSplineSet
Substitution2: "'locl' Localized Forms in Arabic lookup 48 subtable" comma#1
EndChar

StartChar: hyphen#0
Encoding: 45 45 18
Width: 303
GlyphClass: 2
Flags: W
LayerCount: 2
Fore
SplineSet
37 229 m 1,0,-1
 37 307 l 1,1,-1
 266 307 l 1,2,-1
 266 229 l 1,3,-1
 37 229 l 1,0,-1
EndSplineSet
Substitution2: "'locl' Localized Forms in Arabic lookup 48 subtable" hyphen#1
EndChar

StartChar: period#0
Encoding: 46 46 19
Width: 254
GlyphClass: 2
Flags: W
LayerCount: 2
Fore
SplineSet
67 54 m 0,0,1
 67 91 67 91 84 106 c 128,-1,2
 101 121 101 121 126 121 c 256,3,4
 151 121 151 121 169 106 c 128,-1,5
 187 91 187 91 187 54 c 0,6,7
 187 18 187 18 169 2 c 128,-1,8
 151 -14 151 -14 126 -14 c 256,9,10
 101 -14 101 -14 84 2 c 128,-1,11
 67 18 67 18 67 54 c 0,0,1
EndSplineSet
Substitution2: "'locl' Localized Forms in Arabic lookup 48 subtable" period#1
EndChar

StartChar: slash#0
Encoding: 47 47 20
Width: 352
GlyphClass: 2
Flags: W
LayerCount: 2
Fore
SplineSet
343 714 m 1,0,-1
 93 0 l 1,1,-1
 9 0 l 1,2,-1
 259 714 l 1,3,-1
 343 714 l 1,0,-1
EndSplineSet
Substitution2: "'frac' Diagonal Fractions lookup 22 subtable" fraction#0
EndChar

StartChar: zero#0
Encoding: 48 48 21
Width: 537
GlyphClass: 2
Flags: W
LayerCount: 2
Fore
SplineSet
492 358 m 0,0,1
 492 242 492 242 469.5 160 c 128,-1,2
 447 78 447 78 397.5 34 c 128,-1,3
 348 -10 348 -10 268 -10 c 0,4,5
 154 -10 154 -10 99.5 87.5 c 128,-1,6
 45 185 45 185 45 358 c 0,7,8
 45 474 45 474 67 556 c 128,-1,9
 89 638 89 638 138 681.5 c 128,-1,10
 187 725 187 725 268 725 c 0,11,12
 381 725 381 725 436.5 628.5 c 128,-1,13
 492 532 492 532 492 358 c 0,0,1
132 358 m 0,14,15
 132 211 132 211 163 138 c 128,-1,16
 194 65 194 65 268 65 c 256,17,18
 342 65 342 65 373 137.5 c 128,-1,19
 404 210 404 210 404 358 c 0,20,21
 404 504 404 504 373 577 c 128,-1,22
 342 650 342 650 268 650 c 256,23,24
 194 650 194 650 163 577 c 128,-1,25
 132 504 132 504 132 358 c 0,14,15
EndSplineSet
Substitution2: "'locl' Localized Forms in Arabic lookup 48 subtable" zero#1
Substitution2: "'zero' Slashed Zero lookup 38 subtable" zero.slash#0
Substitution2: "'case' Case-Sensitive Forms lookup 35 subtable" zero.lf#0
Substitution2: "'onum' Oldstyle Figures lookup 32 subtable" zero.tosf#0
Substitution2: "'pnum' Proportional Numbers lookup 30 subtable" zero.lf#0
Substitution2: "'frac' Diagonal Fractions lookup 23 subtable" zero.numr#0
Substitution2: "'dnom' Denominators lookup 21 subtable" zero.dnom#0
Substitution2: "'numr' Numerators lookup 20 subtable" zero.numr#0
Substitution2: "'sups' Superscript lookup 19 subtable" uni2070#0
Substitution2: "'subs' Subscript lookup 18 subtable" uni2080#0
EndChar

StartChar: one#0
Encoding: 49 49 22
Width: 537
GlyphClass: 2
Flags: W
LayerCount: 2
Fore
SplineSet
337 0 m 1,0,-1
 252 0 l 1,1,-1
 252 499 l 2,2,3
 252 542 252 542 253 568 c 128,-1,4
 254 594 254 594 256 622 c 1,5,6
 242 606 242 606 229 594.5 c 128,-1,7
 216 583 216 583 198 567 c 2,8,-1
 127 505 l 1,9,-1
 81 564 l 1,10,-1
 265 714 l 1,11,-1
 337 714 l 1,12,-1
 337 0 l 1,0,-1
EndSplineSet
Substitution2: "'locl' Localized Forms in Arabic lookup 48 subtable" one#1
Substitution2: "'case' Case-Sensitive Forms lookup 35 subtable" one.lf#0
Substitution2: "'onum' Oldstyle Figures lookup 32 subtable" one.tosf#0
Substitution2: "'pnum' Proportional Numbers lookup 30 subtable" one.lf#0
Substitution2: "'frac' Diagonal Fractions lookup 23 subtable" one.numr#0
Substitution2: "'dnom' Denominators lookup 21 subtable" one.dnom#0
Substitution2: "'numr' Numerators lookup 20 subtable" one.numr#0
Substitution2: "'sups' Superscript lookup 19 subtable" uni00B9#0
Substitution2: "'subs' Subscript lookup 18 subtable" uni2081#0
EndChar

StartChar: two#0
Encoding: 50 50 23
Width: 537
GlyphClass: 2
Flags: W
LayerCount: 2
Fore
SplineSet
491 0 m 1,0,-1
 45 0 l 1,1,-1
 45 73 l 1,2,-1
 220 262 l 2,3,4
 270 316 270 316 304.5 358 c 128,-1,5
 339 400 339 400 357 440 c 128,-1,6
 375 480 375 480 375 529 c 0,7,8
 375 588 375 588 343 618.5 c 128,-1,9
 311 649 311 649 259 649 c 0,10,11
 211 649 211 649 174 631 c 128,-1,12
 137 613 137 613 99 581 c 1,13,-1
 52 640 l 1,14,15
 92 675 92 675 143 699.5 c 128,-1,16
 194 724 194 724 260 724 c 0,17,18
 354 724 354 724 409 673 c 128,-1,19
 464 622 464 622 464 534 c 0,20,21
 464 478 464 478 442 429.5 c 128,-1,22
 420 381 420 381 381 332.5 c 128,-1,23
 342 284 342 284 291 230 c 2,24,-1
 154 84 l 1,25,-1
 155 80 l 1,26,-1
 491 80 l 1,27,-1
 491 0 l 1,0,-1
EndSplineSet
Substitution2: "'locl' Localized Forms in Arabic lookup 48 subtable" two#1
Substitution2: "'case' Case-Sensitive Forms lookup 35 subtable" two.lf#0
Substitution2: "'onum' Oldstyle Figures lookup 32 subtable" two.tosf#0
Substitution2: "'pnum' Proportional Numbers lookup 30 subtable" two.lf#0
Substitution2: "'frac' Diagonal Fractions lookup 23 subtable" two.numr#0
Substitution2: "'dnom' Denominators lookup 21 subtable" two.dnom#0
Substitution2: "'numr' Numerators lookup 20 subtable" two.numr#0
Substitution2: "'sups' Superscript lookup 19 subtable" uni00B2#0
Substitution2: "'subs' Subscript lookup 18 subtable" uni2082#0
EndChar

StartChar: three#0
Encoding: 51 51 24
Width: 537
GlyphClass: 2
Flags: W
LayerCount: 2
Fore
SplineSet
465 547 m 0,0,1
 465 475 465 475 427 432.5 c 128,-1,2
 389 390 389 390 325 376 c 1,3,-1
 325 372 l 1,4,5
 406 362 406 362 446 318 c 128,-1,6
 486 274 486 274 486 203 c 0,7,8
 486 109 486 109 423 49.5 c 128,-1,9
 360 -10 360 -10 227 -10 c 0,10,11
 174 -10 174 -10 129 -1.5 c 128,-1,12
 84 7 84 7 42 29 c 1,13,-1
 42 111 l 1,14,15
 84 88 84 88 133 76 c 128,-1,16
 182 64 182 64 227 64 c 0,17,18
 316 64 316 64 355 101.5 c 128,-1,19
 394 139 394 139 394 205 c 0,20,21
 394 272 394 272 345.5 301.5 c 128,-1,22
 297 331 297 331 208 331 c 2,23,-1
 145 331 l 1,24,-1
 145 406 l 1,25,-1
 209 406 l 2,26,27
 292 406 292 406 334 443 c 128,-1,28
 376 480 376 480 376 541 c 0,29,30
 376 593 376 593 344 621.5 c 128,-1,31
 312 650 312 650 256 650 c 0,32,33
 202 650 202 650 163.5 633 c 128,-1,34
 125 616 125 616 89 590 c 1,35,-1
 46 650 l 1,36,37
 82 680 82 680 135 702 c 128,-1,38
 188 724 188 724 256 724 c 0,39,40
 361 724 361 724 413 674 c 128,-1,41
 465 624 465 624 465 547 c 0,0,1
EndSplineSet
Substitution2: "'locl' Localized Forms in Arabic lookup 48 subtable" three#1
Substitution2: "'case' Case-Sensitive Forms lookup 35 subtable" three.lf#0
Substitution2: "'onum' Oldstyle Figures lookup 32 subtable" three.tosf#0
Substitution2: "'pnum' Proportional Numbers lookup 30 subtable" three.lf#0
Substitution2: "'frac' Diagonal Fractions lookup 23 subtable" three.numr#0
Substitution2: "'dnom' Denominators lookup 21 subtable" three.dnom#0
Substitution2: "'numr' Numerators lookup 20 subtable" three.numr#0
Substitution2: "'sups' Superscript lookup 19 subtable" uni00B3#0
Substitution2: "'subs' Subscript lookup 18 subtable" uni2083#0
EndChar

StartChar: four#0
Encoding: 52 52 25
Width: 537
GlyphClass: 2
Flags: W
LayerCount: 2
Fore
SplineSet
519 162 m 1,0,-1
 422 162 l 1,1,-1
 422 0 l 1,2,-1
 338 0 l 1,3,-1
 338 162 l 1,4,-1
 19 162 l 1,5,-1
 19 237 l 1,6,-1
 333 718 l 1,7,-1
 422 718 l 1,8,-1
 422 241 l 1,9,-1
 519 241 l 1,10,-1
 519 162 l 1,0,-1
338 241 m 1,11,-1
 338 466 l 2,12,13
 338 518 338 518 340 554.5 c 128,-1,14
 342 591 342 591 343 624 c 1,15,-1
 339 624 l 1,16,17
 331 605 331 605 320 583 c 128,-1,18
 309 561 309 561 299 546 c 2,19,-1
 103 241 l 1,20,-1
 338 241 l 1,11,-1
EndSplineSet
Substitution2: "'locl' Localized Forms in Arabic lookup 48 subtable" four#1
Substitution2: "'case' Case-Sensitive Forms lookup 35 subtable" four.lf#0
Substitution2: "'onum' Oldstyle Figures lookup 32 subtable" four.tosf#0
Substitution2: "'pnum' Proportional Numbers lookup 30 subtable" four.lf#0
Substitution2: "'frac' Diagonal Fractions lookup 23 subtable" four.numr#0
Substitution2: "'dnom' Denominators lookup 21 subtable" four.dnom#0
Substitution2: "'numr' Numerators lookup 20 subtable" four.numr#0
Substitution2: "'sups' Superscript lookup 19 subtable" uni2074#0
Substitution2: "'subs' Subscript lookup 18 subtable" uni2084#0
EndChar

StartChar: five#0
Encoding: 53 53 26
Width: 537
GlyphClass: 2
Flags: W
LayerCount: 2
Fore
SplineSet
260 438 m 0,0,1
 362 438 362 438 423.5 383 c 128,-1,2
 485 328 485 328 485 228 c 0,3,4
 485 117 485 117 418.5 53.5 c 128,-1,5
 352 -10 352 -10 232 -10 c 0,6,7
 180 -10 180 -10 135 0 c 128,-1,8
 90 10 90 10 58 29 c 1,9,-1
 58 112 l 1,10,11
 92 90 92 90 140.5 77.5 c 128,-1,12
 189 65 189 65 233 65 c 0,13,14
 306 65 306 65 351 102.5 c 128,-1,15
 396 140 396 140 396 219 c 0,16,17
 396 289 396 289 356 326.5 c 128,-1,18
 316 364 316 364 230 364 c 0,19,20
 203 364 203 364 169.5 359 c 128,-1,21
 136 354 136 354 116 349 c 1,22,-1
 74 377 l 1,23,-1
 99 714 l 1,24,-1
 438 714 l 1,25,-1
 438 634 l 1,26,-1
 174 634 l 1,27,-1
 158 427 l 1,28,29
 174 430 174 430 200.5 434 c 128,-1,30
 227 438 227 438 260 438 c 0,0,1
EndSplineSet
Substitution2: "'locl' Localized Forms in Arabic lookup 48 subtable" five#1
Substitution2: "'case' Case-Sensitive Forms lookup 35 subtable" five.lf#0
Substitution2: "'onum' Oldstyle Figures lookup 32 subtable" five.tosf#0
Substitution2: "'pnum' Proportional Numbers lookup 30 subtable" five.lf#0
Substitution2: "'frac' Diagonal Fractions lookup 23 subtable" five.numr#0
Substitution2: "'dnom' Denominators lookup 21 subtable" five.dnom#0
Substitution2: "'numr' Numerators lookup 20 subtable" five.numr#0
Substitution2: "'sups' Superscript lookup 19 subtable" uni2075#0
Substitution2: "'subs' Subscript lookup 18 subtable" uni2085#0
EndChar

StartChar: six#0
Encoding: 54 54 27
Width: 537
GlyphClass: 2
Flags: W
LayerCount: 2
Fore
SplineSet
50 305 m 0,0,1
 50 382 50 382 63 456.5 c 128,-1,2
 76 531 76 531 109.5 591.5 c 128,-1,3
 143 652 143 652 203.5 688 c 128,-1,4
 264 724 264 724 360 724 c 0,5,6
 380 724 380 724 403.5 722 c 128,-1,7
 427 720 427 720 443 715 c 1,8,-1
 443 640 l 1,9,10
 426 646 426 646 404.5 649 c 128,-1,11
 383 652 383 652 362 652 c 0,12,13
 297 652 297 652 254.5 629 c 128,-1,14
 212 606 212 606 187 566 c 128,-1,15
 162 526 162 526 150.5 474 c 128,-1,16
 139 422 139 422 136 363 c 1,17,-1
 142 363 l 1,18,19
 163 398 163 398 201 422.5 c 128,-1,20
 239 447 239 447 300 447 c 0,21,22
 388 447 388 447 441 390.5 c 128,-1,23
 494 334 494 334 494 230 c 0,24,25
 494 118 494 118 436 54 c 128,-1,26
 378 -10 378 -10 280 -10 c 0,27,28
 216 -10 216 -10 163.5 24 c 128,-1,29
 111 58 111 58 80.5 128 c 128,-1,30
 50 198 50 198 50 305 c 0,0,1
279 64 m 0,31,32
 337 64 337 64 372.5 104.5 c 128,-1,33
 408 145 408 145 408 230 c 0,34,35
 408 298 408 298 376.5 338 c 128,-1,36
 345 378 345 378 281 378 c 0,37,38
 238 378 238 378 206 358.5 c 128,-1,39
 174 339 174 339 156 308.5 c 128,-1,40
 138 278 138 278 138 247 c 0,41,42
 138 204 138 204 154 161.5 c 128,-1,43
 170 119 170 119 201 91.5 c 128,-1,44
 232 64 232 64 279 64 c 0,31,32
EndSplineSet
Substitution2: "'locl' Localized Forms in Arabic lookup 48 subtable" six#1
Substitution2: "'case' Case-Sensitive Forms lookup 35 subtable" six.lf#0
Substitution2: "'onum' Oldstyle Figures lookup 32 subtable" six.tosf#0
Substitution2: "'pnum' Proportional Numbers lookup 30 subtable" six.lf#0
Substitution2: "'frac' Diagonal Fractions lookup 23 subtable" six.numr#0
Substitution2: "'dnom' Denominators lookup 21 subtable" six.dnom#0
Substitution2: "'numr' Numerators lookup 20 subtable" six.numr#0
Substitution2: "'sups' Superscript lookup 19 subtable" uni2076#0
Substitution2: "'subs' Subscript lookup 18 subtable" uni2086#0
EndChar

StartChar: seven#0
Encoding: 55 55 28
Width: 537
GlyphClass: 2
Flags: W
LayerCount: 2
Fore
SplineSet
126 0 m 1,0,-1
 400 634 l 1,1,-1
 40 634 l 1,2,-1
 40 714 l 1,3,-1
 493 714 l 1,4,-1
 493 646 l 1,5,-1
 222 0 l 1,6,-1
 126 0 l 1,0,-1
EndSplineSet
Substitution2: "'locl' Localized Forms in Arabic lookup 48 subtable" seven#1
Substitution2: "'case' Case-Sensitive Forms lookup 35 subtable" seven.lf#0
Substitution2: "'onum' Oldstyle Figures lookup 32 subtable" seven.tosf#0
Substitution2: "'pnum' Proportional Numbers lookup 30 subtable" seven.lf#0
Substitution2: "'frac' Diagonal Fractions lookup 23 subtable" seven.numr#0
Substitution2: "'dnom' Denominators lookup 21 subtable" seven.dnom#0
Substitution2: "'numr' Numerators lookup 20 subtable" seven.numr#0
Substitution2: "'sups' Superscript lookup 19 subtable" uni2077#0
Substitution2: "'subs' Subscript lookup 18 subtable" uni2087#0
EndChar

StartChar: eight#0
Encoding: 56 56 29
Width: 537
GlyphClass: 2
Flags: W
LayerCount: 2
Fore
SplineSet
268 724 m 0,0,1
 356 724 356 724 413 680 c 128,-1,2
 470 636 470 636 470 553 c 0,3,4
 470 488 470 488 432.5 447 c 128,-1,5
 395 406 395 406 343 378 c 1,6,7
 384 356 384 356 418 330 c 128,-1,8
 452 304 452 304 472 269 c 128,-1,9
 492 234 492 234 492 185 c 0,10,11
 492 95 492 95 431.5 42.5 c 128,-1,12
 371 -10 371 -10 271 -10 c 0,13,14
 162 -10 162 -10 103.5 40.5 c 128,-1,15
 45 91 45 91 45 182 c 0,16,17
 45 230 45 230 64 266.5 c 128,-1,18
 83 303 83 303 114.5 329 c 128,-1,19
 146 355 146 355 183 373 c 1,20,21
 134 403 134 403 100.5 445.5 c 128,-1,22
 67 488 67 488 67 554 c 0,23,24
 67 608 67 608 93.5 646 c 128,-1,25
 120 684 120 684 165 704 c 128,-1,26
 210 724 210 724 268 724 c 0,0,1
267 653 m 0,27,28
 216 653 216 653 183.5 626.5 c 128,-1,29
 151 600 151 600 151 550 c 0,30,31
 151 513 151 513 167.5 488 c 128,-1,32
 184 463 184 463 211 445.5 c 128,-1,33
 238 428 238 428 271 412 c 1,34,35
 319 434 319 434 351.5 465 c 128,-1,36
 384 496 384 496 384 550 c 0,37,38
 384 600 384 600 352 626.5 c 128,-1,39
 320 653 320 653 267 653 c 0,27,28
130 181 m 0,40,41
 130 129 130 129 164 94.5 c 128,-1,42
 198 60 198 60 269 60 c 0,43,44
 336 60 336 60 371.5 94.5 c 128,-1,45
 407 129 407 129 407 184 c 0,46,47
 407 236 407 236 368.5 270.5 c 128,-1,48
 330 305 330 305 269 331 c 2,49,-1
 255 337 l 1,50,51
 194 308 194 308 162 272 c 128,-1,52
 130 236 130 236 130 181 c 0,40,41
EndSplineSet
Substitution2: "'locl' Localized Forms in Arabic lookup 48 subtable" eight#1
Substitution2: "'case' Case-Sensitive Forms lookup 35 subtable" eight.lf#0
Substitution2: "'onum' Oldstyle Figures lookup 32 subtable" eight.tosf#0
Substitution2: "'pnum' Proportional Numbers lookup 30 subtable" eight.lf#0
Substitution2: "'frac' Diagonal Fractions lookup 23 subtable" eight.numr#0
Substitution2: "'dnom' Denominators lookup 21 subtable" eight.dnom#0
Substitution2: "'numr' Numerators lookup 20 subtable" eight.numr#0
Substitution2: "'sups' Superscript lookup 19 subtable" uni2078#0
Substitution2: "'subs' Subscript lookup 18 subtable" uni2088#0
EndChar

StartChar: nine#0
Encoding: 57 57 30
Width: 537
GlyphClass: 2
Flags: W
LayerCount: 2
Fore
SplineSet
490 409 m 0,0,1
 490 332 490 332 477 257.5 c 128,-1,2
 464 183 464 183 431 122.5 c 128,-1,3
 398 62 398 62 337 26 c 128,-1,4
 276 -10 276 -10 180 -10 c 0,5,6
 160 -10 160 -10 135.5 -7.5 c 128,-1,7
 111 -5 111 -5 95 0 c 1,8,-1
 95 75 l 1,9,10
 131 62 131 62 177 62 c 0,11,12
 243 62 243 62 285.5 85 c 128,-1,13
 328 108 328 108 353 147.5 c 128,-1,14
 378 187 378 187 389.5 239.5 c 128,-1,15
 401 292 401 292 403 350 c 1,16,-1
 397 350 l 1,17,18
 376 316 376 316 338 291.5 c 128,-1,19
 300 267 300 267 238 267 c 0,20,21
 152 267 152 267 99 323.5 c 128,-1,22
 46 380 46 380 46 483 c 0,23,24
 46 595 46 595 105 659.5 c 128,-1,25
 164 724 164 724 261 724 c 0,26,27
 326 724 326 724 377.5 689.5 c 128,-1,28
 429 655 429 655 459.5 585.5 c 128,-1,29
 490 516 490 516 490 409 c 0,0,1
262 650 m 0,30,31
 204 650 204 650 168 609 c 128,-1,32
 132 568 132 568 132 484 c 0,33,34
 132 416 132 416 163 376.5 c 128,-1,35
 194 337 194 337 258 337 c 0,36,37
 302 337 302 337 334.5 356 c 128,-1,38
 367 375 367 375 384.5 405 c 128,-1,39
 402 435 402 435 402 467 c 0,40,41
 402 510 402 510 386.5 552 c 128,-1,42
 371 594 371 594 339.5 622 c 128,-1,43
 308 650 308 650 262 650 c 0,30,31
EndSplineSet
Substitution2: "'locl' Localized Forms in Arabic lookup 48 subtable" nine#1
Substitution2: "'case' Case-Sensitive Forms lookup 35 subtable" nine.lf#0
Substitution2: "'onum' Oldstyle Figures lookup 32 subtable" nine.tosf#0
Substitution2: "'pnum' Proportional Numbers lookup 30 subtable" nine.lf#0
Substitution2: "'frac' Diagonal Fractions lookup 23 subtable" nine.numr#0
Substitution2: "'dnom' Denominators lookup 21 subtable" nine.dnom#0
Substitution2: "'numr' Numerators lookup 20 subtable" nine.numr#0
Substitution2: "'sups' Superscript lookup 19 subtable" uni2079#0
Substitution2: "'subs' Subscript lookup 18 subtable" uni2089#0
EndChar

StartChar: colon#0
Encoding: 58 58 31
Width: 254
GlyphClass: 2
Flags: W
LayerCount: 2
Fore
SplineSet
67 482 m 0,0,1
 67 520 67 520 84 535 c 128,-1,2
 101 550 101 550 126 550 c 256,3,4
 151 550 151 550 169 535 c 128,-1,5
 187 520 187 520 187 482 c 0,6,7
 187 446 187 446 169 430 c 128,-1,8
 151 414 151 414 126 414 c 256,9,10
 101 414 101 414 84 430 c 128,-1,11
 67 446 67 446 67 482 c 0,0,1
67 54 m 0,12,13
 67 91 67 91 84 106 c 128,-1,14
 101 121 101 121 126 121 c 256,15,16
 151 121 151 121 169 106 c 128,-1,17
 187 91 187 91 187 54 c 0,18,19
 187 18 187 18 169 2 c 128,-1,20
 151 -14 151 -14 126 -14 c 256,21,22
 101 -14 101 -14 84 2 c 128,-1,23
 67 18 67 18 67 54 c 0,12,13
EndSplineSet
Substitution2: "'locl' Localized Forms in Arabic lookup 48 subtable" colon#1
EndChar

StartChar: semicolon#0
Encoding: 59 59 32
Width: 254
GlyphClass: 2
Flags: W
LayerCount: 2
Fore
SplineSet
65 482 m 0,0,1
 65 520 65 520 82 535 c 128,-1,2
 99 550 99 550 124 550 c 0,3,4
 150 550 150 550 167.5 535 c 128,-1,5
 185 520 185 520 185 482 c 0,6,7
 185 446 185 446 167.5 430 c 128,-1,8
 150 414 150 414 124 414 c 0,9,10
 99 414 99 414 82 430 c 128,-1,11
 65 446 65 446 65 482 c 0,0,1
168 116 m 1,12,-1
 175 105 l 1,13,14
 162 52 162 52 139 -12 c 128,-1,15
 116 -76 116 -76 94 -129 c 1,16,-1
 29 -129 l 1,17,18
 38 -92 38 -92 47 -48 c 128,-1,19
 56 -4 56 -4 64 38.5 c 128,-1,20
 72 81 72 81 77 116 c 1,21,-1
 168 116 l 1,12,-1
EndSplineSet
EndChar

StartChar: less#0
Encoding: 60 60 33
Width: 537
GlyphClass: 2
Flags: W
LayerCount: 2
Fore
SplineSet
490 116 m 1,0,-1
 46 323 l 1,1,-1
 46 373 l 1,2,-1
 490 608 l 1,3,-1
 490 530 l 1,4,-1
 138 352 l 1,5,-1
 490 194 l 1,6,-1
 490 116 l 1,0,-1
EndSplineSet
EndChar

StartChar: equal#0
Encoding: 61 61 34
Width: 538
GlyphClass: 2
Flags: W
LayerCount: 2
Fore
SplineSet
52 416 m 1,0,-1
 52 487 l 1,1,-1
 484 487 l 1,2,-1
 484 416 l 1,3,-1
 52 416 l 1,0,-1
52 217 m 1,4,-1
 52 288 l 1,5,-1
 484 288 l 1,6,-1
 484 217 l 1,7,-1
 52 217 l 1,4,-1
EndSplineSet
Substitution2: "'sups' Superscript lookup 19 subtable" uni207C#0
Substitution2: "'subs' Subscript lookup 18 subtable" uni208C#0
EndChar

StartChar: greater#0
Encoding: 62 62 35
Width: 537
GlyphClass: 2
Flags: W
LayerCount: 2
Fore
SplineSet
46 194 m 1,0,-1
 397 351 l 1,1,-1
 46 530 l 1,2,-1
 46 608 l 1,3,-1
 490 373 l 1,4,-1
 490 323 l 1,5,-1
 46 116 l 1,6,-1
 46 194 l 1,0,-1
EndSplineSet
EndChar

StartChar: question#0
Encoding: 63 63 36
Width: 411
GlyphClass: 2
Flags: W
LayerCount: 2
Fore
SplineSet
132 201 m 1,0,-1
 132 228 l 2,1,2
 132 266 132 266 139 293.5 c 128,-1,3
 146 321 146 321 163 345.5 c 128,-1,4
 180 370 180 370 211 398 c 0,5,6
 246 430 246 430 266.5 452.5 c 128,-1,7
 287 475 287 475 295.5 496 c 128,-1,8
 304 517 304 517 304 547 c 0,9,10
 304 595 304 595 275 621 c 128,-1,11
 246 647 246 647 193 647 c 0,12,13
 146 647 146 647 110.5 634.5 c 128,-1,14
 75 622 75 622 42 605 c 1,15,-1
 11 675 l 1,16,17
 49 696 49 696 95.5 710 c 128,-1,18
 142 724 142 724 199 724 c 0,19,20
 289 724 289 724 338 677 c 128,-1,21
 387 630 387 630 387 549 c 0,22,23
 387 504 387 504 373 472.5 c 128,-1,24
 359 441 359 441 334.5 414.5 c 128,-1,25
 310 388 310 388 276 358 c 0,26,27
 245 330 245 330 229 309 c 128,-1,28
 213 288 213 288 207.5 267 c 128,-1,29
 202 246 202 246 202 218 c 2,30,-1
 202 201 l 1,31,-1
 132 201 l 1,0,-1
110 54 m 0,32,33
 110 91 110 91 127.5 106 c 128,-1,34
 145 121 145 121 171 121 c 0,35,36
 194 121 194 121 212 106 c 128,-1,37
 230 91 230 91 230 54 c 0,38,39
 230 18 230 18 212 2 c 128,-1,40
 194 -14 194 -14 171 -14 c 0,41,42
 145 -14 145 -14 127.5 2 c 128,-1,43
 110 18 110 18 110 54 c 0,32,33
EndSplineSet
Substitution2: "'smcp' Lowercase to Small Capitals lookup 34 subtable" question.sc#0
Substitution2: "'c2sc' Capitals to Small Capitals lookup 33 subtable" question.sc#0
EndChar

StartChar: at#0
Encoding: 64 64 37
Width: 845
GlyphClass: 2
Flags: W
LayerCount: 2
Fore
SplineSet
791 357 m 0,0,1
 791 311 791 311 781 267 c 128,-1,2
 771 223 771 223 750.5 187.5 c 128,-1,3
 730 152 730 152 699.5 130.5 c 128,-1,4
 669 109 669 109 628 109 c 0,5,6
 585 109 585 109 560 135.5 c 128,-1,7
 535 162 535 162 529 196 c 1,8,-1
 524 196 l 1,9,10
 508 159 508 159 475 134 c 128,-1,11
 442 109 442 109 392 109 c 0,12,13
 319 109 319 109 280 160 c 128,-1,14
 241 211 241 211 241 295 c 0,15,16
 241 360 241 360 265.5 411 c 128,-1,17
 290 462 290 462 335 491 c 128,-1,18
 380 520 380 520 442 520 c 0,19,20
 484 520 484 520 524 512.5 c 128,-1,21
 564 505 564 505 587 496 c 1,22,-1
 578 293 l 2,23,24
 577 275 577 275 577 267.5 c 128,-1,25
 577 260 577 260 577 257 c 0,26,27
 577 204 577 204 593.5 187.5 c 128,-1,28
 610 171 610 171 633 171 c 0,29,30
 662 171 662 171 682 196.5 c 128,-1,31
 702 222 702 222 712.5 264 c 128,-1,32
 723 306 723 306 723 358 c 0,33,34
 723 450 723 450 688 515 c 128,-1,35
 653 580 653 580 591.5 614 c 128,-1,36
 530 648 530 648 453 648 c 0,37,38
 346 648 346 648 273 601 c 128,-1,39
 200 554 200 554 162 471.5 c 128,-1,40
 124 389 124 389 124 283 c 0,41,42
 124 135 124 135 197 56 c 128,-1,43
 270 -23 270 -23 408 -23 c 0,44,45
 464 -23 464 -23 517 -9.5 c 128,-1,46
 570 4 570 4 611 20 c 1,47,-1
 611 -48 l 1,48,49
 570 -66 570 -66 519.5 -77.5 c 128,-1,50
 469 -89 469 -89 408 -89 c 0,51,52
 296 -89 296 -89 217 -45 c 128,-1,53
 138 -1 138 -1 96 81.5 c 128,-1,54
 54 164 54 164 54 280 c 0,55,56
 54 373 54 373 81.5 452.5 c 128,-1,57
 109 532 109 532 160.5 590.5 c 128,-1,58
 212 649 212 649 286 681.5 c 128,-1,59
 360 714 360 714 453 714 c 0,60,61
 551 714 551 714 627.5 671 c 128,-1,62
 704 628 704 628 747.5 548 c 128,-1,63
 791 468 791 468 791 357 c 0,0,1
317 293 m 0,64,65
 317 228 317 228 340.5 199.5 c 128,-1,66
 364 171 364 171 404 171 c 0,67,68
 456 171 456 171 479.5 213 c 128,-1,69
 503 255 503 255 506 322 c 2,70,-1
 512 447 l 1,71,72
 499 451 499 451 480.5 454 c 128,-1,73
 462 457 462 457 443 457 c 0,74,75
 396 457 396 457 368.5 433 c 128,-1,76
 341 409 341 409 329 371.5 c 128,-1,77
 317 334 317 334 317 293 c 0,64,65
EndSplineSet
EndChar

StartChar: A#0
Encoding: 65 65 38
Width: 604
GlyphClass: 2
Flags: W
AnchorPoint: "Anchor-3" 493 714 basechar 0
AnchorPoint: "Anchor-2" 301 714 basechar 0
AnchorPoint: "Anchor-0" 306 0 basechar 0
LayerCount: 2
Fore
SplineSet
511 0 m 1,0,-1
 433 221 l 1,1,-1
 168 221 l 1,2,-1
 91 0 l 1,3,-1
 0 0 l 1,4,-1
 260 717 l 1,5,-1
 344 717 l 1,6,-1
 603 0 l 1,7,-1
 511 0 l 1,0,-1
407 301 m 1,8,-1
 333 517 l 2,9,10
 330 525 330 525 324 546 c 128,-1,11
 318 567 318 567 311 589.5 c 128,-1,12
 304 612 304 612 301 624 c 1,13,14
 294 593 294 593 285.5 563.5 c 128,-1,15
 277 534 277 534 271 517 c 2,16,-1
 197 301 l 1,17,-1
 407 301 l 1,8,-1
EndSplineSet
Substitution2: "'c2sc' Capitals to Small Capitals lookup 33 subtable" a.sc#0
Substitution2: "Single Substitution lookup 28 subtable" ordfeminine#0
EndChar

StartChar: B#0
Encoding: 66 66 39
Width: 613
GlyphClass: 2
Flags: W
AnchorPoint: "Anchor-3" 594 714 basechar 0
AnchorPoint: "Anchor-2" 304 714 basechar 0
AnchorPoint: "Anchor-0" 298 0 basechar 0
LayerCount: 2
Fore
SplineSet
91 714 m 1,0,-1
 284 714 l 2,1,2
 410 714 410 714 475 674 c 128,-1,3
 540 634 540 634 540 537 c 0,4,5
 540 474 540 474 508 432.5 c 128,-1,6
 476 391 476 391 414 379 c 1,7,-1
 414 374 l 1,8,9
 456 366 456 366 489.5 347 c 128,-1,10
 523 328 523 328 542.5 293 c 128,-1,11
 562 258 562 258 562 203 c 0,12,13
 562 106 562 106 499.5 53 c 128,-1,14
 437 0 437 0 328 0 c 2,15,-1
 91 0 l 1,16,-1
 91 714 l 1,0,-1
180 410 m 1,17,-1
 301 410 l 2,18,19
 385 410 385 410 416.5 439.5 c 128,-1,20
 448 469 448 469 448 527 c 0,21,22
 448 586 448 586 409.5 611.5 c 128,-1,23
 371 637 371 637 288 637 c 2,24,-1
 180 637 l 1,25,-1
 180 410 l 1,17,-1
180 335 m 1,26,-1
 180 76 l 1,27,-1
 312 76 l 2,28,29
 399 76 399 76 433.5 113 c 128,-1,30
 468 150 468 150 468 210 c 0,31,32
 468 266 468 266 432.5 300.5 c 128,-1,33
 397 335 397 335 306 335 c 2,34,-1
 180 335 l 1,26,-1
EndSplineSet
Substitution2: "'c2sc' Capitals to Small Capitals lookup 33 subtable" b.sc#0
EndChar

StartChar: C#0
Encoding: 67 67 40
Width: 594
GlyphClass: 2
Flags: W
AnchorPoint: "Anchor-3" 576 714 basechar 0
AnchorPoint: "Anchor-2" 357 714 basechar 0
AnchorPoint: "Anchor-0" 349 0 basechar 0
LayerCount: 2
Fore
SplineSet
378 645 m 0,0,1
 272 645 272 645 211.5 568 c 128,-1,2
 151 491 151 491 151 357 c 0,3,4
 151 224 151 224 207.5 146.5 c 128,-1,5
 264 69 264 69 377 69 c 0,6,7
 420 69 420 69 460 77 c 128,-1,8
 500 85 500 85 539 97 c 1,9,-1
 539 19 l 1,10,11
 501 4 501 4 460.5 -3 c 128,-1,12
 420 -10 420 -10 365 -10 c 0,13,14
 262 -10 262 -10 193.5 35 c 128,-1,15
 125 80 125 80 91 163 c 128,-1,16
 57 246 57 246 57 358 c 0,17,18
 57 466 57 466 94 548.5 c 128,-1,19
 131 631 131 631 203 677.5 c 128,-1,20
 275 724 275 724 379 724 c 0,21,22
 484 724 484 724 565 682 c 1,23,-1
 530 606 l 1,24,25
 498 621 498 621 460 633 c 128,-1,26
 422 645 422 645 378 645 c 0,0,1
EndSplineSet
Substitution2: "'c2sc' Capitals to Small Capitals lookup 33 subtable" c.sc#0
EndChar

StartChar: D#0
Encoding: 68 68 41
Width: 687
GlyphClass: 2
Flags: W
AnchorPoint: "Anchor-3" 668 714 basechar 0
AnchorPoint: "Anchor-2" 340 714 basechar 0
AnchorPoint: "Anchor-1" 344 357 basechar 0
AnchorPoint: "Anchor-0" 322 0 basechar 0
LayerCount: 2
Fore
SplineSet
630 364 m 0,0,1
 630 183 630 183 537 91.5 c 128,-1,2
 444 0 444 0 278 0 c 2,3,-1
 91 0 l 1,4,-1
 91 714 l 1,5,-1
 298 714 l 2,6,7
 400 714 400 714 474.5 674 c 128,-1,8
 549 634 549 634 589.5 556 c 128,-1,9
 630 478 630 478 630 364 c 0,0,1
536 361 m 0,10,11
 536 504 536 504 471 570.5 c 128,-1,12
 406 637 406 637 287 637 c 2,13,-1
 180 637 l 1,14,-1
 180 77 l 1,15,-1
 269 77 l 2,16,17
 536 77 536 77 536 361 c 0,10,11
EndSplineSet
Substitution2: "'c2sc' Capitals to Small Capitals lookup 33 subtable" d.sc#0
EndChar

StartChar: E#0
Encoding: 69 69 42
Width: 523
GlyphClass: 2
Flags: W
AnchorPoint: "Anchor-3" 504 714 basechar 0
AnchorPoint: "Anchor-2" 287 714 basechar 0
AnchorPoint: "Anchor-0" 283 0 basechar 0
LayerCount: 2
Fore
SplineSet
467 0 m 1,0,-1
 91 0 l 1,1,-1
 91 714 l 1,2,-1
 467 714 l 1,3,-1
 467 635 l 1,4,-1
 180 635 l 1,5,-1
 180 412 l 1,6,-1
 450 412 l 1,7,-1
 450 334 l 1,8,-1
 180 334 l 1,9,-1
 180 79 l 1,10,-1
 467 79 l 1,11,-1
 467 0 l 1,0,-1
EndSplineSet
Substitution2: "'c2sc' Capitals to Small Capitals lookup 33 subtable" e.sc#0
EndChar

StartChar: F#0
Encoding: 70 70 43
Width: 491
GlyphClass: 2
Flags: W
AnchorPoint: "Anchor-3" 472 714 basechar 0
AnchorPoint: "Anchor-2" 280 714 basechar 0
AnchorPoint: "Anchor-0" 246 0 basechar 0
LayerCount: 2
Fore
SplineSet
180 0 m 1,0,-1
 91 0 l 1,1,-1
 91 714 l 1,2,-1
 467 714 l 1,3,-1
 467 635 l 1,4,-1
 180 635 l 1,5,-1
 180 382 l 1,6,-1
 449 382 l 1,7,-1
 449 303 l 1,8,-1
 180 303 l 1,9,-1
 180 0 l 1,0,-1
EndSplineSet
Substitution2: "'c2sc' Capitals to Small Capitals lookup 33 subtable" f.sc#0
EndChar

StartChar: G#0
Encoding: 71 71 44
Width: 684
GlyphClass: 2
Flags: W
AnchorPoint: "Anchor-3" 665 714 basechar 0
AnchorPoint: "Anchor-2" 380 714 basechar 0
AnchorPoint: "Anchor-0" 377 0 basechar 0
LayerCount: 2
Fore
SplineSet
379 377 m 1,0,-1
 614 377 l 1,1,-1
 614 27 l 1,2,3
 560 8 560 8 504 -1 c 128,-1,4
 448 -10 448 -10 378 -10 c 0,5,6
 274 -10 274 -10 202.5 34.5 c 128,-1,7
 131 79 131 79 94 161.5 c 128,-1,8
 57 244 57 244 57 357 c 0,9,10
 57 468 57 468 98 550.5 c 128,-1,11
 139 633 139 633 217 678.5 c 128,-1,12
 295 724 295 724 405 724 c 0,13,14
 461 724 461 724 511.5 713 c 128,-1,15
 562 702 562 702 605 682 c 1,16,-1
 572 604 l 1,17,18
 537 620 537 620 492.5 632.5 c 128,-1,19
 448 645 448 645 401 645 c 0,20,21
 282 645 282 645 216 567.5 c 128,-1,22
 150 490 150 490 150 357 c 0,23,24
 150 272 150 272 175 206.5 c 128,-1,25
 200 141 200 141 254.5 104.5 c 128,-1,26
 309 68 309 68 397 68 c 0,27,28
 440 68 440 68 470 73 c 128,-1,29
 500 78 500 78 525 85 c 1,30,-1
 525 297 l 1,31,-1
 379 297 l 1,32,-1
 379 377 l 1,0,-1
EndSplineSet
Substitution2: "'c2sc' Capitals to Small Capitals lookup 33 subtable" g.sc#0
EndChar

StartChar: H#0
Encoding: 72 72 45
Width: 699
GlyphClass: 2
Flags: W
AnchorPoint: "Anchor-3" 680 714 basechar 0
AnchorPoint: "Anchor-2" 350 714 basechar 0
AnchorPoint: "Anchor-1" 350 357 basechar 0
AnchorPoint: "Anchor-0" 347 0 basechar 0
LayerCount: 2
Fore
SplineSet
607 0 m 1,0,-1
 518 0 l 1,1,-1
 518 333 l 1,2,-1
 180 333 l 1,3,-1
 180 0 l 1,4,-1
 91 0 l 1,5,-1
 91 714 l 1,6,-1
 180 714 l 1,7,-1
 180 412 l 1,8,-1
 518 412 l 1,9,-1
 518 714 l 1,10,-1
 607 714 l 1,11,-1
 607 0 l 1,0,-1
EndSplineSet
Substitution2: "'c2sc' Capitals to Small Capitals lookup 33 subtable" h.sc#0
EndChar

StartChar: I#0
Encoding: 73 73 46
Width: 322
GlyphClass: 2
Flags: W
AnchorPoint: "Anchor-3" 303 714 basechar 0
AnchorPoint: "Anchor-2" 162 714 basechar 0
AnchorPoint: "Anchor-0" 162 0 basechar 0
LayerCount: 2
Fore
SplineSet
284 0 m 1,0,-1
 37 0 l 1,1,-1
 37 52 l 1,2,-1
 116 71 l 1,3,-1
 116 642 l 1,4,-1
 37 662 l 1,5,-1
 37 714 l 1,6,-1
 284 714 l 1,7,-1
 284 662 l 1,8,-1
 205 642 l 1,9,-1
 205 71 l 1,10,-1
 284 52 l 1,11,-1
 284 0 l 1,0,-1
EndSplineSet
Substitution2: "'c2sc' Capitals to Small Capitals lookup 33 subtable" i.sc#0
EndChar

StartChar: J#0
Encoding: 74 74 47
Width: 260
GlyphClass: 2
Flags: W
AnchorPoint: "Anchor-3" 242 714 basechar 0
AnchorPoint: "Anchor-2" 131 714 basechar 0
AnchorPoint: "Anchor-0" -2 -190 basechar 0
LayerCount: 2
Fore
SplineSet
-2 -190 m 0,0,1
 -25 -190 -25 -190 -42.5 -186.5 c 128,-1,2
 -60 -183 -60 -183 -73 -177 c 1,3,-1
 -73 -101 l 1,4,5
 -58 -106 -58 -106 -41 -108.5 c 128,-1,6
 -24 -111 -24 -111 -5 -111 c 0,7,8
 18 -111 18 -111 39 -101 c 128,-1,9
 60 -91 60 -91 73 -66.5 c 128,-1,10
 86 -42 86 -42 86 4 c 2,11,-1
 86 714 l 1,12,-1
 175 714 l 1,13,-1
 175 11 l 2,14,15
 175 -92 175 -92 126.5 -141 c 128,-1,16
 78 -190 78 -190 -2 -190 c 0,0,1
EndSplineSet
Substitution2: "'c2sc' Capitals to Small Capitals lookup 33 subtable" j.sc#0
EndChar

StartChar: K#0
Encoding: 75 75 48
Width: 585
GlyphClass: 2
Flags: W
AnchorPoint: "Anchor-3" 567 714 basechar 0
AnchorPoint: "Anchor-2" 321 714 basechar 0
AnchorPoint: "Anchor-0" 322 0 basechar 0
LayerCount: 2
Fore
SplineSet
585 0 m 1,0,-1
 481 0 l 1,1,-1
 248 341 l 1,2,-1
 180 277 l 1,3,-1
 180 0 l 1,4,-1
 91 0 l 1,5,-1
 91 714 l 1,6,-1
 180 714 l 1,7,-1
 180 362 l 1,8,9
 207 396 207 396 235 430 c 128,-1,10
 263 464 263 464 291 498 c 2,11,-1
 472 714 l 1,12,-1
 576 714 l 1,13,-1
 312 403 l 1,14,-1
 585 0 l 1,0,-1
EndSplineSet
Substitution2: "'c2sc' Capitals to Small Capitals lookup 33 subtable" k.sc#0
EndChar

StartChar: L#0
Encoding: 76 76 49
Width: 496
GlyphClass: 2
Flags: W
AnchorPoint: "Anchor-3" 344 714 basechar 0
AnchorPoint: "Anchor-2" 134 714 basechar 0
AnchorPoint: "Anchor-1" 248 357 basechar 0
AnchorPoint: "Anchor-0" 283 0 basechar 0
LayerCount: 2
Fore
SplineSet
91 0 m 1,0,-1
 91 714 l 1,1,-1
 180 714 l 1,2,-1
 180 80 l 1,3,-1
 472 80 l 1,4,-1
 472 0 l 1,5,-1
 91 0 l 1,0,-1
EndSplineSet
Substitution2: "'c2sc' Capitals to Small Capitals lookup 33 subtable" l.sc#0
EndChar

StartChar: M#0
Encoding: 77 77 50
Width: 856
GlyphClass: 2
Flags: W
AnchorPoint: "Anchor-3" 837 714 basechar 0
AnchorPoint: "Anchor-2" 428 714 basechar 0
AnchorPoint: "Anchor-0" 423 0 basechar 0
LayerCount: 2
Fore
SplineSet
386 0 m 1,0,-1
 170 626 l 1,1,-1
 166 626 l 1,2,3
 169 595 169 595 171 542.5 c 128,-1,4
 173 490 173 490 173 433 c 2,5,-1
 173 0 l 1,6,-1
 91 0 l 1,7,-1
 91 714 l 1,8,-1
 221 714 l 1,9,-1
 424 129 l 1,10,-1
 428 129 l 1,11,-1
 635 714 l 1,12,-1
 765 714 l 1,13,-1
 765 0 l 1,14,-1
 677 0 l 1,15,-1
 677 439 l 2,16,17
 677 491 677 491 679.5 542 c 128,-1,18
 682 593 682 593 684 625 c 1,19,-1
 680 625 l 1,20,-1
 460 0 l 1,21,-1
 386 0 l 1,0,-1
EndSplineSet
Substitution2: "'c2sc' Capitals to Small Capitals lookup 33 subtable" m.sc#0
EndChar

StartChar: N#0
Encoding: 78 78 51
Width: 719
GlyphClass: 2
Flags: W
AnchorPoint: "Anchor-3" 700 714 basechar 0
AnchorPoint: "Anchor-2" 359 714 basechar 0
AnchorPoint: "Anchor-0" 359 0 basechar 0
LayerCount: 2
Fore
SplineSet
628 0 m 1,0,-1
 523 0 l 1,1,-1
 169 593 l 1,2,-1
 165 593 l 1,3,4
 167 558 167 558 170 506 c 128,-1,5
 173 454 173 454 173 399 c 2,6,-1
 173 0 l 1,7,-1
 91 0 l 1,8,-1
 91 714 l 1,9,-1
 195 714 l 1,10,-1
 548 123 l 1,11,-1
 552 123 l 1,12,13
 551 139 551 139 549.5 171 c 128,-1,14
 548 203 548 203 546.5 240.5 c 128,-1,15
 545 278 545 278 545 311 c 2,16,-1
 545 714 l 1,17,-1
 628 714 l 1,18,-1
 628 0 l 1,0,-1
EndSplineSet
Substitution2: "'c2sc' Capitals to Small Capitals lookup 33 subtable" n.sc#0
EndChar

StartChar: O#0
Encoding: 79 79 52
Width: 735
GlyphClass: 2
Flags: W
AnchorPoint: "Anchor-3" 716 725 basechar 0
AnchorPoint: "Anchor-2" 368 725 basechar 0
AnchorPoint: "Anchor-1" 368 357 basechar 0
AnchorPoint: "Anchor-0" 369 0 basechar 0
LayerCount: 2
Fore
SplineSet
678 358 m 256,0,1
 678 247 678 247 643 164.5 c 128,-1,2
 608 82 608 82 539 36 c 128,-1,3
 470 -10 470 -10 368 -10 c 0,4,5
 263 -10 263 -10 194 36 c 128,-1,6
 125 82 125 82 91 165 c 128,-1,7
 57 248 57 248 57 359 c 0,8,9
 57 468 57 468 91 550.5 c 128,-1,10
 125 633 125 633 194.5 679 c 128,-1,11
 264 725 264 725 369 725 c 0,12,13
 470 725 470 725 539 679.5 c 128,-1,14
 608 634 608 634 643 551.5 c 128,-1,15
 678 469 678 469 678 358 c 256,0,1
151 358 m 256,16,17
 151 223 151 223 203.5 145.5 c 128,-1,18
 256 68 256 68 368 68 c 256,19,20
 480 68 480 68 532 145.5 c 128,-1,21
 584 223 584 223 584 358 c 256,22,23
 584 493 584 493 532.5 569.5 c 128,-1,24
 481 646 481 646 369 646 c 0,25,26
 256 646 256 646 203.5 569.5 c 128,-1,27
 151 493 151 493 151 358 c 256,16,17
EndSplineSet
Substitution2: "'c2sc' Capitals to Small Capitals lookup 33 subtable" o.sc#0
Substitution2: "Single Substitution lookup 28 subtable" ordmasculine#0
EndChar

StartChar: P#0
Encoding: 80 80 53
Width: 571
GlyphClass: 2
Flags: W
AnchorPoint: "Anchor-3" 552 714 basechar 0
AnchorPoint: "Anchor-2" 299 714 basechar 0
AnchorPoint: "Anchor-0" 286 0 basechar 0
LayerCount: 2
Fore
SplineSet
271 714 m 2,0,1
 403 714 403 714 463 659 c 128,-1,2
 523 604 523 604 523 504 c 0,3,4
 523 445 523 445 498 393.5 c 128,-1,5
 473 342 473 342 414.5 310 c 128,-1,6
 356 278 356 278 256 278 c 2,7,-1
 180 278 l 1,8,-1
 180 0 l 1,9,-1
 91 0 l 1,10,-1
 91 714 l 1,11,-1
 271 714 l 2,0,1
264 637 m 2,12,-1
 180 637 l 1,13,-1
 180 355 l 1,14,-1
 246 355 l 2,15,16
 339 355 339 355 385 388 c 128,-1,17
 431 421 431 421 431 500 c 0,18,19
 431 569 431 569 390.5 603 c 128,-1,20
 350 637 350 637 264 637 c 2,12,-1
EndSplineSet
Substitution2: "'c2sc' Capitals to Small Capitals lookup 33 subtable" p.sc#0
EndChar

StartChar: Q#0
Encoding: 81 81 54
Width: 735
GlyphClass: 2
Flags: W
AnchorPoint: "Anchor-3" 716 725 basechar 0
AnchorPoint: "Anchor-2" 368 725 basechar 0
AnchorPoint: "Anchor-0" 368 -170 basechar 0
LayerCount: 2
Fore
SplineSet
678 358 m 0,0,1
 678 227 678 227 629 134.5 c 128,-1,2
 580 42 580 42 485 8 c 1,3,-1
 646 -170 l 1,4,-1
 520 -170 l 1,5,-1
 390 -9 l 2,6,7
 385 -9 385 -9 379 -9.5 c 128,-1,8
 373 -10 373 -10 368 -10 c 0,9,10
 263 -10 263 -10 194 36 c 128,-1,11
 125 82 125 82 91 165 c 128,-1,12
 57 248 57 248 57 359 c 0,13,14
 57 468 57 468 91 550.5 c 128,-1,15
 125 633 125 633 194.5 679 c 128,-1,16
 264 725 264 725 369 725 c 0,17,18
 470 725 470 725 539 679.5 c 128,-1,19
 608 634 608 634 643 551.5 c 128,-1,20
 678 469 678 469 678 358 c 0,0,1
151 358 m 256,21,22
 151 223 151 223 203.5 145.5 c 128,-1,23
 256 68 256 68 368 68 c 256,24,25
 480 68 480 68 532 145.5 c 128,-1,26
 584 223 584 223 584 358 c 256,27,28
 584 493 584 493 532.5 569.5 c 128,-1,29
 481 646 481 646 369 646 c 0,30,31
 256 646 256 646 203.5 569.5 c 128,-1,32
 151 493 151 493 151 358 c 256,21,22
EndSplineSet
Substitution2: "'c2sc' Capitals to Small Capitals lookup 33 subtable" q.sc#0
EndChar

StartChar: R#0
Encoding: 82 82 55
Width: 588
GlyphClass: 2
Flags: W
AnchorPoint: "Anchor-3" 569 714 basechar 0
AnchorPoint: "Anchor-2" 295 714 basechar 0
AnchorPoint: "Anchor-0" 311 0 basechar 0
LayerCount: 2
Fore
SplineSet
277 714 m 2,0,1
 403 714 403 714 463 663.5 c 128,-1,2
 523 613 523 613 523 511 c 0,3,4
 523 454 523 454 503.5 416 c 128,-1,5
 484 378 484 378 453.5 355 c 128,-1,6
 423 332 423 332 389 320 c 1,7,-1
 575 0 l 1,8,-1
 471 0 l 1,9,-1
 309 295 l 1,10,-1
 180 295 l 1,11,-1
 180 0 l 1,12,-1
 91 0 l 1,13,-1
 91 714 l 1,14,-1
 277 714 l 2,0,1
272 636 m 2,15,-1
 180 636 l 1,16,-1
 180 371 l 1,17,-1
 276 371 l 2,18,19
 357 371 357 371 394 405.5 c 128,-1,20
 431 440 431 440 431 507 c 0,21,22
 431 577 431 577 392 606.5 c 128,-1,23
 353 636 353 636 272 636 c 2,15,-1
EndSplineSet
Substitution2: "'c2sc' Capitals to Small Capitals lookup 33 subtable" r.sc#0
EndChar

StartChar: S#0
Encoding: 83 83 56
Width: 517
GlyphClass: 2
Flags: W
AnchorPoint: "Anchor-3" 498 714 basechar 0
AnchorPoint: "Anchor-2" 268 714 basechar 0
AnchorPoint: "Anchor-0" 243 0 basechar 0
LayerCount: 2
Fore
SplineSet
473 191 m 0,0,1
 473 96 473 96 408 43 c 128,-1,2
 343 -10 343 -10 233 -10 c 0,3,4
 177 -10 177 -10 128.5 -1 c 128,-1,5
 80 8 80 8 48 24 c 1,6,-1
 48 110 l 1,7,8
 83 94 83 94 133.5 81 c 128,-1,9
 184 68 184 68 237 68 c 0,10,11
 310 68 310 68 347 99 c 128,-1,12
 384 130 384 130 384 183 c 0,13,14
 384 218 384 218 369.5 242 c 128,-1,15
 355 266 355 266 321 286 c 128,-1,16
 287 306 287 306 228 330 c 0,17,18
 145 363 145 363 100.5 411 c 128,-1,19
 56 459 56 459 56 542 c 0,20,21
 56 598 56 598 83.5 639 c 128,-1,22
 111 680 111 680 159.5 702 c 128,-1,23
 208 724 208 724 272 724 c 0,24,25
 327 724 327 724 373 713 c 128,-1,26
 419 702 419 702 458 684 c 1,27,-1
 430 607 l 1,28,29
 394 623 394 623 353.5 634 c 128,-1,30
 313 645 313 645 270 645 c 0,31,32
 208 645 208 645 177 616.5 c 128,-1,33
 146 588 146 588 146 541 c 0,34,35
 146 505 146 505 160 481 c 128,-1,36
 174 457 174 457 206 437.5 c 128,-1,37
 238 418 238 418 291 397 c 0,38,39
 350 374 350 374 390.5 347.5 c 128,-1,40
 431 321 431 321 452 284 c 128,-1,41
 473 247 473 247 473 191 c 0,0,1
EndSplineSet
Substitution2: "'c2sc' Capitals to Small Capitals lookup 33 subtable" s.sc#0
EndChar

StartChar: T#0
Encoding: 84 84 57
Width: 524
GlyphClass: 2
Flags: W
AnchorPoint: "Anchor-3" 505 714 basechar 0
AnchorPoint: "Anchor-2" 262 714 basechar 0
AnchorPoint: "Anchor-1" 262 357 basechar 0
AnchorPoint: "Anchor-0" 262 0 basechar 0
LayerCount: 2
Fore
SplineSet
307 0 m 1,0,-1
 218 0 l 1,1,-1
 218 635 l 1,2,-1
 10 635 l 1,3,-1
 10 714 l 1,4,-1
 513 714 l 1,5,-1
 513 635 l 1,6,-1
 307 635 l 1,7,-1
 307 0 l 1,0,-1
EndSplineSet
Substitution2: "'c2sc' Capitals to Small Capitals lookup 33 subtable" t.sc#0
EndChar

StartChar: U#0
Encoding: 85 85 58
Width: 689
GlyphClass: 2
Flags: W
AnchorPoint: "Anchor-3" 670 714 basechar 0
AnchorPoint: "Anchor-2" 345 714 basechar 0
AnchorPoint: "Anchor-0" 343 0 basechar 0
LayerCount: 2
Fore
SplineSet
604 714 m 1,0,-1
 604 252 l 2,1,2
 604 178 604 178 575.5 118.5 c 128,-1,3
 547 59 547 59 488.5 24.5 c 128,-1,4
 430 -10 430 -10 341 -10 c 0,5,6
 215 -10 215 -10 149.5 62.5 c 128,-1,7
 84 135 84 135 84 254 c 2,8,-1
 84 714 l 1,9,-1
 173 714 l 1,10,-1
 173 251 l 2,11,12
 173 164 173 164 216 116 c 128,-1,13
 259 68 259 68 346 68 c 0,14,15
 435 68 435 68 475 119.5 c 128,-1,16
 515 171 515 171 515 252 c 2,17,-1
 515 714 l 1,18,-1
 604 714 l 1,0,-1
EndSplineSet
Substitution2: "'c2sc' Capitals to Small Capitals lookup 33 subtable" u.sc#0
EndChar

StartChar: V#0
Encoding: 86 86 59
Width: 568
GlyphClass: 2
Flags: W
AnchorPoint: "Anchor-3" 549 714 basechar 0
AnchorPoint: "Anchor-2" 286 714 basechar 0
AnchorPoint: "Anchor-0" 283 0 basechar 0
LayerCount: 2
Fore
SplineSet
568 714 m 1,0,-1
 329 0 l 1,1,-1
 239 0 l 1,2,-1
 0 714 l 1,3,-1
 93 714 l 1,4,-1
 242 256 l 2,5,6
 256 212 256 212 266.5 173.5 c 128,-1,7
 277 135 277 135 284 100 c 1,8,9
 290 135 290 135 301 174 c 128,-1,10
 312 213 312 213 326 258 c 2,11,-1
 474 714 l 1,12,-1
 568 714 l 1,0,-1
EndSplineSet
Substitution2: "'c2sc' Capitals to Small Capitals lookup 33 subtable" v.sc#0
EndChar

StartChar: W#0
Encoding: 87 87 60
Width: 876
GlyphClass: 2
Flags: W
AnchorPoint: "Anchor-3" 858 714 basechar 0
AnchorPoint: "Anchor-2" 438 714 basechar 0
AnchorPoint: "Anchor-0" 432 0 basechar 0
LayerCount: 2
Fore
SplineSet
865 714 m 1,0,-1
 687 0 l 1,1,-1
 596 0 l 1,2,-1
 469 468 l 2,3,4
 461 496 461 496 453.5 525.5 c 128,-1,5
 446 555 446 555 441 577.5 c 128,-1,6
 436 600 436 600 435 609 c 1,7,8
 433 596 433 596 424 553.5 c 128,-1,9
 415 511 415 511 403 465 c 2,10,-1
 279 0 l 1,11,-1
 187 0 l 1,12,-1
 10 714 l 1,13,-1
 103 714 l 1,14,-1
 206 278 l 2,15,16
 216 232 216 232 224 189 c 128,-1,17
 232 146 232 146 237 108 c 1,18,19
 242 147 242 147 251.5 193 c 128,-1,20
 261 239 261 239 273 283 c 2,21,-1
 389 714 l 1,22,-1
 481 714 l 1,23,-1
 602 280 l 2,24,25
 615 234 615 234 624 188 c 128,-1,26
 633 142 633 142 638 108 c 1,27,28
 642 145 642 145 651 188.5 c 128,-1,29
 660 232 660 232 671 279 c 2,30,-1
 773 714 l 1,31,-1
 865 714 l 1,0,-1
EndSplineSet
Substitution2: "'c2sc' Capitals to Small Capitals lookup 33 subtable" w.sc#0
EndChar

StartChar: X#0
Encoding: 88 88 61
Width: 556
GlyphClass: 2
Flags: W
AnchorPoint: "Anchor-3" 537 714 basechar 0
AnchorPoint: "Anchor-2" 277 714 basechar 0
AnchorPoint: "Anchor-0" 278 0 basechar 0
LayerCount: 2
Fore
SplineSet
553 0 m 1,0,-1
 452 0 l 1,1,-1
 276 310 l 1,2,-1
 97 0 l 1,3,-1
 3 0 l 1,4,-1
 226 372 l 1,5,-1
 17 714 l 1,6,-1
 116 714 l 1,7,-1
 279 434 l 1,8,-1
 443 714 l 1,9,-1
 537 714 l 1,10,-1
 329 374 l 1,11,-1
 553 0 l 1,0,-1
EndSplineSet
Substitution2: "'c2sc' Capitals to Small Capitals lookup 33 subtable" x.sc#0
EndChar

StartChar: Y#0
Encoding: 89 89 62
Width: 536
GlyphClass: 2
Flags: W
AnchorPoint: "Anchor-3" 517 714 basechar 0
AnchorPoint: "Anchor-2" 268 714 basechar 0
AnchorPoint: "Anchor-0" 268 0 basechar 0
LayerCount: 2
Fore
SplineSet
268 363 m 1,0,-1
 440 714 l 1,1,-1
 536 714 l 1,2,-1
 313 277 l 1,3,-1
 313 0 l 1,4,-1
 224 0 l 1,5,-1
 224 273 l 1,6,-1
 0 714 l 1,7,-1
 97 714 l 1,8,-1
 268 363 l 1,0,-1
EndSplineSet
Substitution2: "'c2sc' Capitals to Small Capitals lookup 33 subtable" y.sc#0
EndChar

StartChar: Z#0
Encoding: 90 90 63
Width: 539
GlyphClass: 2
Flags: W
AnchorPoint: "Anchor-3" 520 714 basechar 0
AnchorPoint: "Anchor-2" 273 714 basechar 0
AnchorPoint: "Anchor-0" 280 0 basechar 0
LayerCount: 2
Fore
SplineSet
503 0 m 1,0,-1
 35 0 l 1,1,-1
 35 68 l 1,2,-1
 386 634 l 1,3,-1
 46 634 l 1,4,-1
 46 714 l 1,5,-1
 494 714 l 1,6,-1
 494 646 l 1,7,-1
 143 80 l 1,8,-1
 503 80 l 1,9,-1
 503 0 l 1,0,-1
EndSplineSet
Substitution2: "'c2sc' Capitals to Small Capitals lookup 33 subtable" z.sc#0
EndChar

StartChar: bracketleft#0
Encoding: 91 91 64
Width: 309
GlyphClass: 2
Flags: W
LayerCount: 2
Fore
SplineSet
285 -158 m 1,0,-1
 74 -158 l 1,1,-1
 74 714 l 1,2,-1
 285 714 l 1,3,-1
 285 642 l 1,4,-1
 158 642 l 1,5,-1
 158 -86 l 1,6,-1
 285 -86 l 1,7,-1
 285 -158 l 1,0,-1
EndSplineSet
Substitution2: "'smcp' Lowercase to Small Capitals lookup 34 subtable" bracketleft.sc#0
Substitution2: "'c2sc' Capitals to Small Capitals lookup 33 subtable" bracketleft.sc#0
EndChar

StartChar: backslash#0
Encoding: 92 92 65
Width: 352
GlyphClass: 2
Flags: W
LayerCount: 2
Fore
SplineSet
93 714 m 1,0,-1
 344 0 l 1,1,-1
 259 0 l 1,2,-1
 9 714 l 1,3,-1
 93 714 l 1,0,-1
EndSplineSet
EndChar

StartChar: bracketright#0
Encoding: 93 93 66
Width: 309
GlyphClass: 2
Flags: W
LayerCount: 2
Fore
SplineSet
24 -86 m 1,0,-1
 152 -86 l 1,1,-1
 152 642 l 1,2,-1
 24 642 l 1,3,-1
 24 714 l 1,4,-1
 235 714 l 1,5,-1
 235 -158 l 1,6,-1
 24 -158 l 1,7,-1
 24 -86 l 1,0,-1
EndSplineSet
Substitution2: "'smcp' Lowercase to Small Capitals lookup 34 subtable" bracketright.sc#0
Substitution2: "'c2sc' Capitals to Small Capitals lookup 33 subtable" bracketright.sc#0
EndChar

StartChar: asciicircum#0
Encoding: 94 94 67
Width: 538
GlyphClass: 2
Flags: W
LayerCount: 2
Fore
SplineSet
35 267 m 1,0,-1
 234 719 l 1,1,-1
 283 719 l 1,2,-1
 503 267 l 1,3,-1
 427 267 l 1,4,-1
 260 626 l 1,5,-1
 111 267 l 1,6,-1
 35 267 l 1,0,-1
EndSplineSet
EndChar

StartChar: underscore#0
Encoding: 95 95 68
Width: 415
GlyphClass: 2
Flags: W
LayerCount: 2
Fore
SplineSet
417 -154 m 1,0,-1
 -2 -154 l 1,1,-1
 -2 -90 l 1,2,-1
 417 -90 l 1,3,-1
 417 -154 l 1,0,-1
EndSplineSet
EndChar

StartChar: grave#0
Encoding: 96 96 69
Width: 275
GlyphClass: 2
Flags: W
LayerCount: 2
Fore
SplineSet
143 766 m 1,0,1
 154 744 154 744 170 716.5 c 128,-1,2
 186 689 186 689 203 662.5 c 128,-1,3
 220 636 220 636 235 618 c 1,4,-1
 235 606 l 1,5,-1
 176 606 l 1,6,7
 154 624 154 624 127 652.5 c 128,-1,8
 100 681 100 681 76 709.5 c 128,-1,9
 52 738 52 738 40 756 c 1,10,-1
 40 766 l 1,11,-1
 143 766 l 1,0,1
EndSplineSet
EndChar

StartChar: a#0
Encoding: 97 97 70
Width: 531
GlyphClass: 2
Flags: W
AnchorPoint: "Anchor-3" 484 536 basechar 0
AnchorPoint: "Anchor-2" 266 536 basechar 0
AnchorPoint: "Anchor-0" 236 0 basechar 0
LayerCount: 2
Fore
SplineSet
272 545 m 0,0,1
 364 545 364 545 409.5 502 c 128,-1,2
 455 459 455 459 455 365 c 2,3,-1
 455 0 l 1,4,-1
 392 0 l 1,5,-1
 375 76 l 1,6,-1
 371 76 l 1,7,8
 338 32 338 32 302 11 c 128,-1,9
 266 -10 266 -10 202 -10 c 0,10,11
 134 -10 134 -10 88.5 28.5 c 128,-1,12
 43 67 43 67 43 149 c 0,13,14
 43 229 43 229 102 272.5 c 128,-1,15
 161 316 161 316 284 320 c 2,16,-1
 369 323 l 1,17,-1
 369 355 l 2,18,19
 369 422 369 422 342.5 448 c 128,-1,20
 316 474 316 474 267 474 c 0,21,22
 228 474 228 474 192 461.5 c 128,-1,23
 156 449 156 449 125 433 c 1,24,-1
 98 499 l 1,25,26
 132 518 132 518 177 531.5 c 128,-1,27
 222 545 222 545 272 545 c 0,0,1
369 262 m 1,28,-1
 296 259 l 2,29,30
 204 255 204 255 168.5 227 c 128,-1,31
 133 199 133 199 133 148 c 0,32,33
 133 103 133 103 158 82 c 128,-1,34
 183 61 183 61 223 61 c 0,35,36
 285 61 285 61 327 98.5 c 128,-1,37
 369 136 369 136 369 214 c 2,38,-1
 369 262 l 1,28,-1
EndSplineSet
Substitution2: "'smcp' Lowercase to Small Capitals lookup 34 subtable" a.sc#0
Substitution2: "Single Substitution lookup 28 subtable" ordfeminine#0
EndChar

StartChar: b#0
Encoding: 98 98 71
Width: 579
GlyphClass: 2
Flags: W
AnchorPoint: "Anchor-3" 486 760 basechar 0
AnchorPoint: "Anchor-2" 316 760 basechar 0
AnchorPoint: "Anchor-0" 303 0 basechar 0
LayerCount: 2
Fore
SplineSet
166 760 m 1,0,-1
 166 575 l 2,1,2
 166 541 166 541 164 511.5 c 128,-1,3
 162 482 162 482 161 465 c 1,4,-1
 166 465 l 1,5,6
 187 499 187 499 224.5 522 c 128,-1,7
 262 545 262 545 321 545 c 0,8,9
 415 545 415 545 471.5 475.5 c 128,-1,10
 528 406 528 406 528 268 c 256,11,12
 528 130 528 130 471 60 c 128,-1,13
 414 -10 414 -10 321 -10 c 0,14,15
 262 -10 262 -10 224.5 13 c 128,-1,16
 187 36 187 36 166 68 c 1,17,-1
 159 68 l 1,18,-1
 142 0 l 1,19,-1
 79 0 l 1,20,-1
 79 760 l 1,21,-1
 166 760 l 1,0,-1
305 472 m 0,22,23
 226 472 226 472 196 423 c 128,-1,24
 166 374 166 374 166 271 c 2,25,-1
 166 267 l 2,26,27
 166 168 166 168 195.5 115.5 c 128,-1,28
 225 63 225 63 307 63 c 0,29,30
 372 63 372 63 405 116 c 128,-1,31
 438 169 438 169 438 269 c 0,32,33
 438 472 438 472 305 472 c 0,22,23
EndSplineSet
Substitution2: "'smcp' Lowercase to Small Capitals lookup 34 subtable" b.sc#0
EndChar

StartChar: c#0
Encoding: 99 99 72
Width: 454
GlyphClass: 2
Flags: W
AnchorPoint: "Anchor-3" 434 536 basechar 0
AnchorPoint: "Anchor-2" 267 536 basechar 0
AnchorPoint: "Anchor-0" 265 0 basechar 0
LayerCount: 2
Fore
SplineSet
282 -10 m 0,0,1
 214 -10 214 -10 162 19 c 128,-1,2
 110 48 110 48 80.5 109 c 128,-1,3
 51 170 51 170 51 265 c 0,4,5
 51 364 51 364 82 426 c 128,-1,6
 113 488 113 488 166.5 517 c 128,-1,7
 220 546 220 546 288 546 c 0,8,9
 327 546 327 546 363.5 537.5 c 128,-1,10
 400 529 400 529 423 517 c 1,11,-1
 396 444 l 1,12,13
 373 453 373 453 342.5 461 c 128,-1,14
 312 469 312 469 286 469 c 0,15,16
 141 469 141 469 141 266 c 0,17,18
 141 169 141 169 176.5 117.5 c 128,-1,19
 212 66 212 66 282 66 c 0,20,21
 323 66 323 66 355 75 c 128,-1,22
 387 84 387 84 414 97 c 1,23,-1
 414 19 l 1,24,25
 388 5 388 5 357 -2.5 c 128,-1,26
 326 -10 326 -10 282 -10 c 0,0,1
EndSplineSet
Substitution2: "'smcp' Lowercase to Small Capitals lookup 34 subtable" c.sc#0
EndChar

StartChar: d#0
Encoding: 100 100 73
Width: 579
GlyphClass: 2
Flags: W
AnchorPoint: "Anchor-3" 522 760 basechar 0
AnchorPoint: "Anchor-2" 267 760 basechar 0
AnchorPoint: "Anchor-1" 290 268 basechar 0
AnchorPoint: "Anchor-0" 275 0 basechar 0
LayerCount: 2
Fore
SplineSet
257 -10 m 0,0,1
 164 -10 164 -10 107.5 59.5 c 128,-1,2
 51 129 51 129 51 267 c 256,3,4
 51 405 51 405 108 475.5 c 128,-1,5
 165 546 165 546 258 546 c 0,6,7
 316 546 316 546 353 523 c 128,-1,8
 390 500 390 500 413 467 c 1,9,-1
 419 467 l 1,10,11
 418 480 418 480 415.5 505.5 c 128,-1,12
 413 531 413 531 413 546 c 2,13,-1
 413 760 l 1,14,-1
 500 760 l 1,15,-1
 500 0 l 1,16,-1
 430 0 l 1,17,-1
 417 72 l 1,18,-1
 413 72 l 1,19,20
 390 38 390 38 353 14 c 128,-1,21
 316 -10 316 -10 257 -10 c 0,0,1
273 63 m 0,22,23
 351 63 351 63 382.5 109.5 c 128,-1,24
 414 156 414 156 414 250 c 2,25,-1
 414 266 l 2,26,27
 414 366 414 366 384 419.5 c 128,-1,28
 354 473 354 473 272 473 c 0,29,30
 206 473 206 473 173.5 416.5 c 128,-1,31
 141 360 141 360 141 265 c 0,32,33
 141 169 141 169 173.5 116 c 128,-1,34
 206 63 206 63 273 63 c 0,22,23
EndSplineSet
Substitution2: "'smcp' Lowercase to Small Capitals lookup 34 subtable" d.sc#0
EndChar

StartChar: e#0
Encoding: 101 101 74
Width: 532
GlyphClass: 2
Flags: W
AnchorPoint: "Anchor-3" 513 536 basechar 0
AnchorPoint: "Anchor-2" 269 536 basechar 0
AnchorPoint: "Anchor-0" 283 0 basechar 0
LayerCount: 2
Fore
SplineSet
275 546 m 0,0,1
 340 546 340 546 387 516 c 128,-1,2
 434 486 434 486 459.5 431.5 c 128,-1,3
 485 377 485 377 485 304 c 2,4,-1
 485 251 l 1,5,-1
 141 251 l 1,6,7
 143 160 143 160 184 112.5 c 128,-1,8
 225 65 225 65 299 65 c 0,9,10
 347 65 347 65 384.5 74.5 c 128,-1,11
 422 84 422 84 462 102 c 1,12,-1
 462 25 l 1,13,14
 423 7 423 7 385.5 -1.5 c 128,-1,15
 348 -10 348 -10 295 -10 c 0,16,17
 222 -10 222 -10 167.5 21 c 128,-1,18
 113 52 113 52 82 113 c 128,-1,19
 51 174 51 174 51 264 c 0,20,21
 51 352 51 352 79 415 c 128,-1,22
 107 478 107 478 157.5 512 c 128,-1,23
 208 546 208 546 275 546 c 0,0,1
275 474 m 0,24,25
 216 474 216 474 182.5 433.5 c 128,-1,26
 149 393 149 393 143 321 c 1,27,-1
 395 321 l 1,28,29
 394 389 394 389 365 431.5 c 128,-1,30
 336 474 336 474 275 474 c 0,24,25
EndSplineSet
Substitution2: "'smcp' Lowercase to Small Capitals lookup 34 subtable" e.sc#0
EndChar

StartChar: f#0
Encoding: 102 102 75
Width: 326
GlyphClass: 2
Flags: W
AnchorPoint: "Anchor-3" 359 765 basechar 0
AnchorPoint: "Anchor-2" 238 765 basechar 0
AnchorPoint: "Anchor-0" 145 0 basechar 0
LayerCount: 2
Fore
SplineSet
315 468 m 1,0,-1
 189 468 l 1,1,-1
 189 0 l 1,2,-1
 101 0 l 1,3,-1
 101 468 l 1,4,-1
 14 468 l 1,5,-1
 14 509 l 1,6,-1
 101 539 l 1,7,-1
 101 570 l 2,8,9
 101 674 101 674 144.5 719.5 c 128,-1,10
 188 765 188 765 266 765 c 0,11,12
 297 765 297 765 322.5 759.5 c 128,-1,13
 348 754 348 754 367 747 c 1,14,-1
 344 678 l 1,15,16
 328 683 328 683 308.5 688 c 128,-1,17
 289 693 289 693 268 693 c 0,18,19
 228 693 228 693 208.5 663.5 c 128,-1,20
 189 634 189 634 189 571 c 2,21,-1
 189 536 l 1,22,-1
 315 536 l 1,23,-1
 315 468 l 1,0,-1
EndSplineSet
Substitution2: "'smcp' Lowercase to Small Capitals lookup 34 subtable" f.sc#0
EndChar

StartChar: g#0
Encoding: 103 103 76
Width: 579
GlyphClass: 2
Flags: W
AnchorPoint: "Anchor-3" 524 536 basechar 0
AnchorPoint: "Anchor-2" 280 536 basechar 0
AnchorPoint: "Anchor-0" 280 -240 basechar 0
LayerCount: 2
Fore
SplineSet
257 546 m 0,0,1
 306 546 306 546 346 526 c 128,-1,2
 386 506 386 506 414 465 c 1,3,-1
 419 465 l 1,4,-1
 430 536 l 1,5,-1
 500 536 l 1,6,-1
 500 -9 l 2,7,8
 500 -124 500 -124 444 -182 c 128,-1,9
 388 -240 388 -240 272 -240 c 0,10,11
 162 -240 162 -240 90 -206 c 1,12,-1
 90 -125 l 1,13,14
 166 -167 166 -167 277 -167 c 0,15,16
 341 -167 341 -167 377.5 -126.5 c 128,-1,17
 414 -86 414 -86 414 -16 c 2,18,-1
 414 5 l 2,19,20
 414 17 414 17 415 39.5 c 128,-1,21
 416 62 416 62 417 71 c 1,22,-1
 413 71 l 1,23,24
 361 -10 361 -10 258 -10 c 0,25,26
 160 -10 160 -10 105.5 63 c 128,-1,27
 51 136 51 136 51 267 c 0,28,29
 51 395 51 395 105.5 470.5 c 128,-1,30
 160 546 160 546 257 546 c 0,0,1
271 472 m 0,31,32
 209 472 209 472 175 418.5 c 128,-1,33
 141 365 141 365 141 266 c 256,34,35
 141 167 141 167 174.5 114.5 c 128,-1,36
 208 62 208 62 273 62 c 0,37,38
 347 62 347 62 381 105.5 c 128,-1,39
 415 149 415 149 415 246 c 2,40,-1
 415 267 l 2,41,42
 415 376 415 376 380 424 c 128,-1,43
 345 472 345 472 271 472 c 0,31,32
EndSplineSet
Substitution2: "'smcp' Lowercase to Small Capitals lookup 34 subtable" g.sc#0
EndChar

StartChar: h#0
Encoding: 104 104 77
Width: 584
GlyphClass: 2
Flags: W
AnchorPoint: "Anchor-3" 505 760 basechar 0
AnchorPoint: "Anchor-2" 124 760 basechar 0
AnchorPoint: "Anchor-1" 292 268 basechar 0
AnchorPoint: "Anchor-0" 293 0 basechar 0
LayerCount: 2
Fore
SplineSet
166 760 m 1,0,-1
 166 537 l 2,1,2
 166 497 166 497 161 462 c 1,3,-1
 167 462 l 1,4,5
 191 503 191 503 233 524 c 128,-1,6
 275 545 275 545 323 545 c 0,7,8
 414 545 414 545 461 498.5 c 128,-1,9
 508 452 508 452 508 349 c 2,10,-1
 508 0 l 1,11,-1
 421 0 l 1,12,-1
 421 343 l 2,13,14
 421 472 421 472 311 472 c 0,15,16
 228 472 228 472 197 421.5 c 128,-1,17
 166 371 166 371 166 277 c 2,18,-1
 166 0 l 1,19,-1
 79 0 l 1,20,-1
 79 760 l 1,21,-1
 166 760 l 1,0,-1
EndSplineSet
Substitution2: "'smcp' Lowercase to Small Capitals lookup 34 subtable" h.sc#0
Substitution2: "'subs' Subscript lookup 18 subtable" uni2095#0
EndChar

StartChar: i#0
Encoding: 105 105 78
Width: 246
GlyphClass: 2
Flags: W
AnchorPoint: "Anchor-3" 227 737 basechar 0
AnchorPoint: "Anchor-2" 123 737 basechar 0
AnchorPoint: "Anchor-0" 125 0 basechar 0
LayerCount: 2
Fore
SplineSet
124 737 m 0,0,1
 144 737 144 737 159 723.5 c 128,-1,2
 174 710 174 710 174 681 c 256,3,4
 174 652 174 652 159 638.5 c 128,-1,5
 144 625 144 625 124 625 c 0,6,7
 103 625 103 625 88 638.5 c 128,-1,8
 73 652 73 652 73 681 c 256,9,10
 73 710 73 710 88 723.5 c 128,-1,11
 103 737 103 737 124 737 c 0,0,1
167 536 m 1,12,-1
 167 0 l 1,13,-1
 80 0 l 1,14,-1
 80 536 l 1,15,-1
 167 536 l 1,12,-1
EndSplineSet
Substitution2: "'smcp' Lowercase to Small Capitals lookup 34 subtable" i.sc#0
Substitution2: "Single Substitution lookup 5 subtable" dotlessi#0
Substitution2: "Single Substitution lookup 4 subtable" dotlessi#0
EndChar

StartChar: j#0
Encoding: 106 106 79
Width: 246
GlyphClass: 2
Flags: W
AnchorPoint: "Anchor-3" 227 737 basechar 0
AnchorPoint: "Anchor-2" 123 737 basechar 0
AnchorPoint: "Anchor-0" 22 -240 basechar 0
LayerCount: 2
Fore
SplineSet
73 681 m 256,0,1
 73 710 73 710 88 723.5 c 128,-1,2
 103 737 103 737 124 737 c 0,3,4
 144 737 144 737 159 723.5 c 128,-1,5
 174 710 174 710 174 681 c 256,6,7
 174 652 174 652 159 638.5 c 128,-1,8
 144 625 144 625 124 625 c 0,9,10
 103 625 103 625 88 638.5 c 128,-1,11
 73 652 73 652 73 681 c 256,0,1
22 -240 m 0,12,13
 -2 -240 -2 -240 -20.5 -236.5 c 128,-1,14
 -39 -233 -39 -233 -52 -228 c 1,15,-1
 -52 -157 l 1,16,17
 -38 -162 -38 -162 -23 -164.5 c 128,-1,18
 -8 -167 -8 -167 10 -167 c 0,19,20
 41 -167 41 -167 60.5 -149.5 c 128,-1,21
 80 -132 80 -132 80 -83 c 2,22,-1
 80 536 l 1,23,-1
 167 536 l 1,24,-1
 167 -80 l 2,25,26
 167 -155 167 -155 132.5 -197.5 c 128,-1,27
 98 -240 98 -240 22 -240 c 0,12,13
EndSplineSet
Substitution2: "'smcp' Lowercase to Small Capitals lookup 34 subtable" j.sc#0
Substitution2: "Single Substitution lookup 5 subtable" uni0237#0
Substitution2: "Single Substitution lookup 4 subtable" uni0237#0
EndChar

StartChar: k#0
Encoding: 107 107 80
Width: 508
GlyphClass: 2
Flags: W
AnchorPoint: "Anchor-3" 493 760 basechar 0
AnchorPoint: "Anchor-2" 123 760 basechar 0
AnchorPoint: "Anchor-0" 274 0 basechar 0
LayerCount: 2
Fore
SplineSet
165 760 m 1,0,-1
 165 363 l 2,1,2
 165 347 165 347 163.5 321 c 128,-1,3
 162 295 162 295 161 276 c 1,4,-1
 165 276 l 1,5,6
 171 284 171 284 182 299 c 128,-1,7
 193 314 193 314 205 329.5 c 128,-1,8
 217 345 217 345 226 355 c 2,9,-1
 385 536 l 1,10,-1
 486 536 l 1,11,-1
 282 307 l 1,12,-1
 500 0 l 1,13,-1
 396 0 l 1,14,-1
 223 250 l 1,15,-1
 165 197 l 1,16,-1
 165 0 l 1,17,-1
 79 0 l 1,18,-1
 79 760 l 1,19,-1
 165 760 l 1,0,-1
EndSplineSet
Substitution2: "'smcp' Lowercase to Small Capitals lookup 34 subtable" k.sc#0
Substitution2: "'subs' Subscript lookup 18 subtable" uni2096#0
EndChar

StartChar: l#0
Encoding: 108 108 81
Width: 245
GlyphClass: 2
Flags: W
AnchorPoint: "Anchor-3" 193 760 basechar 0
AnchorPoint: "Anchor-2" 123 760 basechar 0
AnchorPoint: "Anchor-1" 123 268 basechar 0
AnchorPoint: "Anchor-0" 123 0 basechar 0
LayerCount: 2
Fore
SplineSet
166 0 m 1,0,-1
 79 0 l 1,1,-1
 79 760 l 1,2,-1
 166 760 l 1,3,-1
 166 0 l 1,0,-1
EndSplineSet
Substitution2: "'smcp' Lowercase to Small Capitals lookup 34 subtable" l.sc#0
Substitution2: "'subs' Subscript lookup 18 subtable" uni2097#0
EndChar

StartChar: m#0
Encoding: 109 109 82
Width: 882
GlyphClass: 2
Flags: W
AnchorPoint: "Anchor-3" 835 536 basechar 0
AnchorPoint: "Anchor-2" 451 536 basechar 0
AnchorPoint: "Anchor-0" 444 0 basechar 0
LayerCount: 2
Fore
SplineSet
636 546 m 0,0,1
 722 546 722 546 764 499 c 128,-1,2
 806 452 806 452 806 349 c 2,3,-1
 806 0 l 1,4,-1
 720 0 l 1,5,-1
 720 345 l 2,6,7
 720 472 720 472 619 472 c 0,8,9
 547 472 547 472 516.5 427 c 128,-1,10
 486 382 486 382 486 296 c 2,11,-1
 486 0 l 1,12,-1
 399 0 l 1,13,-1
 399 345 l 2,14,15
 399 472 399 472 298 472 c 0,16,17
 223 472 223 472 194.5 422 c 128,-1,18
 166 372 166 372 166 278 c 2,19,-1
 166 0 l 1,20,-1
 79 0 l 1,21,-1
 79 536 l 1,22,-1
 149 536 l 1,23,-1
 162 463 l 1,24,-1
 167 463 l 1,25,26
 190 505 190 505 230 525.5 c 128,-1,27
 270 546 270 546 315 546 c 0,28,29
 373 546 373 546 412 524 c 128,-1,30
 451 502 451 502 469 456 c 1,31,-1
 475 456 l 1,32,33
 500 502 500 502 543 524 c 128,-1,34
 586 546 586 546 636 546 c 0,0,1
EndSplineSet
Substitution2: "'smcp' Lowercase to Small Capitals lookup 34 subtable" m.sc#0
Substitution2: "'subs' Subscript lookup 18 subtable" uni2098#0
EndChar

StartChar: n#0
Encoding: 110 110 83
Width: 584
GlyphClass: 2
Flags: W
AnchorPoint: "Anchor-3" 531 536 basechar 0
AnchorPoint: "Anchor-2" 292 536 basechar 0
AnchorPoint: "Anchor-0" 292 0 basechar 0
LayerCount: 2
Fore
SplineSet
325 546 m 0,0,1
 415 546 415 546 461.5 499 c 128,-1,2
 508 452 508 452 508 349 c 2,3,-1
 508 0 l 1,4,-1
 421 0 l 1,5,-1
 421 343 l 2,6,7
 421 472 421 472 311 472 c 0,8,9
 228 472 228 472 197 422 c 128,-1,10
 166 372 166 372 166 278 c 2,11,-1
 166 0 l 1,12,-1
 79 0 l 1,13,-1
 79 536 l 1,14,-1
 149 536 l 1,15,-1
 162 463 l 1,16,-1
 167 463 l 1,17,18
 191 505 191 505 234 525.5 c 128,-1,19
 277 546 277 546 325 546 c 0,0,1
EndSplineSet
Substitution2: "'smcp' Lowercase to Small Capitals lookup 34 subtable" n.sc#0
Substitution2: "'sups' Superscript lookup 19 subtable" nsuperior#0
Substitution2: "'subs' Subscript lookup 18 subtable" uni2099#0
EndChar

StartChar: o#0
Encoding: 111 111 84
Width: 570
GlyphClass: 2
Flags: W
AnchorPoint: "Anchor-3" 542 536 basechar 0
AnchorPoint: "Anchor-2" 285 536 basechar 0
AnchorPoint: "Anchor-1" 285 268 basechar 0
AnchorPoint: "Anchor-0" 284 0 basechar 0
LayerCount: 2
Fore
SplineSet
520 269 m 0,0,1
 520 136 520 136 456 63 c 128,-1,2
 392 -10 392 -10 283 -10 c 0,3,4
 216 -10 216 -10 163.5 22.5 c 128,-1,5
 111 55 111 55 81 117.5 c 128,-1,6
 51 180 51 180 51 269 c 0,7,8
 51 402 51 402 114 474 c 128,-1,9
 177 546 177 546 286 546 c 0,10,11
 354 546 354 546 407 513.5 c 128,-1,12
 460 481 460 481 490 419.5 c 128,-1,13
 520 358 520 358 520 269 c 0,0,1
141 269 m 256,14,15
 141 174 141 174 175.5 118.5 c 128,-1,16
 210 63 210 63 285 63 c 256,17,18
 360 63 360 63 395 118.5 c 128,-1,19
 430 174 430 174 430 269 c 256,20,21
 430 364 430 364 395 418 c 128,-1,22
 360 472 360 472 284 472 c 0,23,24
 209 472 209 472 175 418 c 128,-1,25
 141 364 141 364 141 269 c 256,14,15
EndSplineSet
Substitution2: "'smcp' Lowercase to Small Capitals lookup 34 subtable" o.sc#0
Substitution2: "Single Substitution lookup 28 subtable" ordmasculine#0
EndChar

StartChar: p#0
Encoding: 112 112 85
Width: 579
GlyphClass: 2
Flags: W
AnchorPoint: "Anchor-3" 552 536 basechar 0
AnchorPoint: "Anchor-2" 312 536 basechar 0
AnchorPoint: "Anchor-0" 123 -240 basechar 0
LayerCount: 2
Fore
SplineSet
322 546 m 0,0,1
 415 546 415 546 471.5 477 c 128,-1,2
 528 408 528 408 528 269 c 0,3,4
 528 132 528 132 471 61 c 128,-1,5
 414 -10 414 -10 321 -10 c 0,6,7
 262 -10 262 -10 225 13 c 128,-1,8
 188 36 188 36 166 68 c 1,9,-1
 160 68 l 1,10,11
 162 51 162 51 164 25 c 128,-1,12
 166 -1 166 -1 166 -20 c 2,13,-1
 166 -240 l 1,14,-1
 79 -240 l 1,15,-1
 79 536 l 1,16,-1
 150 536 l 1,17,-1
 162 463 l 1,18,-1
 166 463 l 1,19,20
 188 498 188 498 224.5 522 c 128,-1,21
 261 546 261 546 322 546 c 0,0,1
305 472 m 0,22,23
 230 472 230 472 198 426 c 128,-1,24
 166 380 166 380 166 286 c 2,25,-1
 166 269 l 2,26,27
 166 170 166 170 196 116.5 c 128,-1,28
 226 63 226 63 307 63 c 0,29,30
 352 63 352 63 381 89.5 c 128,-1,31
 410 116 410 116 424 163 c 128,-1,32
 438 210 438 210 438 270 c 0,33,34
 438 362 438 362 405.5 417 c 128,-1,35
 373 472 373 472 305 472 c 0,22,23
EndSplineSet
Substitution2: "'smcp' Lowercase to Small Capitals lookup 34 subtable" p.sc#0
Substitution2: "'subs' Subscript lookup 18 subtable" uni209A#0
EndChar

StartChar: q#0
Encoding: 113 113 86
Width: 579
GlyphClass: 2
Flags: W
AnchorPoint: "Anchor-3" 524 536 basechar 0
AnchorPoint: "Anchor-2" 290 536 basechar 0
AnchorPoint: "Anchor-0" 456 -240 basechar 0
LayerCount: 2
Fore
SplineSet
413 -240 m 1,0,-1
 413 -11 l 2,1,2
 413 7 413 7 414 31 c 128,-1,3
 415 55 415 55 418 72 c 1,4,-1
 412 72 l 1,5,6
 390 38 390 38 352.5 14 c 128,-1,7
 315 -10 315 -10 255 -10 c 0,8,9
 164 -10 164 -10 107.5 59.5 c 128,-1,10
 51 129 51 129 51 267 c 256,11,12
 51 405 51 405 108.5 475.5 c 128,-1,13
 166 546 166 546 258 546 c 0,14,15
 317 546 317 546 354.5 522 c 128,-1,16
 392 498 392 498 414 463 c 1,17,-1
 418 463 l 1,18,-1
 430 536 l 1,19,-1
 500 536 l 1,20,-1
 500 -240 l 1,21,-1
 413 -240 l 1,0,-1
274 63 m 0,22,23
 350 63 350 63 382 108.5 c 128,-1,24
 414 154 414 154 414 248 c 2,25,-1
 414 266 l 2,26,27
 414 368 414 368 383 420.5 c 128,-1,28
 352 473 352 473 272 473 c 0,29,30
 205 473 205 473 173 416.5 c 128,-1,31
 141 360 141 360 141 265 c 256,32,33
 141 170 141 170 173.5 116.5 c 128,-1,34
 206 63 206 63 274 63 c 0,22,23
EndSplineSet
Substitution2: "'smcp' Lowercase to Small Capitals lookup 34 subtable" q.sc#0
EndChar

StartChar: r#0
Encoding: 114 114 87
Width: 391
GlyphClass: 2
Flags: W
AnchorPoint: "Anchor-3" 372 536 basechar 0
AnchorPoint: "Anchor-2" 236 536 basechar 0
AnchorPoint: "Anchor-0" 120 0 basechar 0
LayerCount: 2
Fore
SplineSet
318 546 m 0,0,1
 332 546 332 546 348 544.5 c 128,-1,2
 364 543 364 543 376 540 c 1,3,-1
 366 459 l 1,4,5
 354 462 354 462 339.5 464 c 128,-1,6
 325 466 325 466 312 466 c 0,7,8
 274 466 274 466 240.5 443.5 c 128,-1,9
 207 421 207 421 186.5 380.5 c 128,-1,10
 166 340 166 340 166 286 c 2,11,-1
 166 0 l 1,12,-1
 79 0 l 1,13,-1
 79 536 l 1,14,-1
 150 536 l 1,15,-1
 160 438 l 1,16,-1
 164 438 l 1,17,18
 188 482 188 482 227 514 c 128,-1,19
 266 546 266 546 318 546 c 0,0,1
EndSplineSet
Substitution2: "'smcp' Lowercase to Small Capitals lookup 34 subtable" r.sc#0
EndChar

StartChar: s#0
Encoding: 115 115 88
Width: 452
GlyphClass: 2
Flags: W
AnchorPoint: "Anchor-3" 414 536 basechar 0
AnchorPoint: "Anchor-2" 227 536 basechar 0
AnchorPoint: "Anchor-0" 227 0 basechar 0
LayerCount: 2
Fore
SplineSet
410 148 m 0,0,1
 410 70 410 70 356 30 c 128,-1,2
 302 -10 302 -10 208 -10 c 0,3,4
 155 -10 155 -10 116.5 -1 c 128,-1,5
 78 8 78 8 49 24 c 1,6,-1
 49 104 l 1,7,8
 80 88 80 88 123 74.5 c 128,-1,9
 166 61 166 61 210 61 c 0,10,11
 271 61 271 61 298.5 82.5 c 128,-1,12
 326 104 326 104 326 140 c 0,13,14
 326 160 326 160 315.5 176 c 128,-1,15
 305 192 305 192 278.5 208 c 128,-1,16
 252 224 252 224 202 244 c 0,17,18
 154 264 154 264 119.5 284 c 128,-1,19
 85 304 85 304 66.5 332 c 128,-1,20
 48 360 48 360 48 404 c 0,21,22
 48 472 48 472 100 509 c 128,-1,23
 152 546 152 546 238 546 c 0,24,25
 284 546 284 546 324 536 c 128,-1,26
 364 526 364 526 400 510 c 1,27,-1
 371 440 l 1,28,29
 339 454 339 454 304 464 c 128,-1,30
 269 474 269 474 233 474 c 0,31,32
 184 474 184 474 158 456.5 c 128,-1,33
 132 439 132 439 132 409 c 0,34,35
 132 386 132 386 144 370.5 c 128,-1,36
 156 355 156 355 183.5 340.5 c 128,-1,37
 211 326 211 326 259 307 c 256,38,39
 307 288 307 288 340.5 268 c 128,-1,40
 374 248 374 248 392 219.5 c 128,-1,41
 410 191 410 191 410 148 c 0,0,1
EndSplineSet
Substitution2: "'smcp' Lowercase to Small Capitals lookup 34 subtable" s.sc#0
Substitution2: "'subs' Subscript lookup 18 subtable" uni209B#0
EndChar

StartChar: t#0
Encoding: 116 116 89
Width: 345
GlyphClass: 2
Flags: W
AnchorPoint: "Anchor-3" 320 659 basechar 0
AnchorPoint: "Anchor-2" 148 659 basechar 0
AnchorPoint: "Anchor-1" 173 268 basechar 0
AnchorPoint: "Anchor-0" 204 0 basechar 0
LayerCount: 2
Fore
SplineSet
252 62 m 0,0,1
 271 62 271 62 291 65 c 128,-1,2
 311 68 311 68 324 73 c 1,3,-1
 324 6 l 1,4,5
 310 -1 310 -1 284.5 -5.5 c 128,-1,6
 259 -10 259 -10 236 -10 c 0,7,8
 196 -10 196 -10 162 4.5 c 128,-1,9
 128 19 128 19 107.5 55 c 128,-1,10
 87 91 87 91 87 156 c 2,11,-1
 87 468 l 1,12,-1
 16 468 l 1,13,-1
 16 510 l 1,14,-1
 89 545 l 1,15,-1
 122 659 l 1,16,-1
 174 659 l 1,17,-1
 174 536 l 1,18,-1
 320 536 l 1,19,-1
 320 468 l 1,20,-1
 174 468 l 1,21,-1
 174 158 l 2,22,23
 174 109 174 109 196 85.5 c 128,-1,24
 218 62 218 62 252 62 c 0,0,1
EndSplineSet
Substitution2: "'smcp' Lowercase to Small Capitals lookup 34 subtable" t.sc#0
Substitution2: "'subs' Subscript lookup 18 subtable" uni209C#0
EndChar

StartChar: u#0
Encoding: 117 117 90
Width: 583
GlyphClass: 2
Flags: W
AnchorPoint: "Anchor-3" 531 536 basechar 0
AnchorPoint: "Anchor-2" 292 536 basechar 0
AnchorPoint: "Anchor-0" 278 0 basechar 0
LayerCount: 2
Fore
SplineSet
504 536 m 1,0,-1
 504 0 l 1,1,-1
 434 0 l 1,2,-1
 421 71 l 1,3,-1
 417 71 l 1,4,5
 392 29 392 29 349 9.5 c 128,-1,6
 306 -10 306 -10 257 -10 c 0,7,8
 167 -10 167 -10 120.5 36.5 c 128,-1,9
 74 83 74 83 74 185 c 2,10,-1
 74 536 l 1,11,-1
 162 536 l 1,12,-1
 162 191 l 2,13,14
 162 63 162 63 272 63 c 0,15,16
 354 63 354 63 385.5 113 c 128,-1,17
 417 163 417 163 417 257 c 2,18,-1
 417 536 l 1,19,-1
 504 536 l 1,0,-1
EndSplineSet
Substitution2: "'smcp' Lowercase to Small Capitals lookup 34 subtable" u.sc#0
EndChar

StartChar: v#0
Encoding: 118 118 91
Width: 482
GlyphClass: 2
Flags: W
AnchorPoint: "Anchor-3" 463 536 basechar 0
AnchorPoint: "Anchor-2" 239 536 basechar 0
AnchorPoint: "Anchor-0" 239 0 basechar 0
LayerCount: 2
Fore
SplineSet
191 0 m 1,0,-1
 0 536 l 1,1,-1
 93 536 l 1,2,-1
 199 220 l 2,3,4
 206 198 206 198 214.5 171 c 128,-1,5
 223 144 223 144 229.5 119 c 128,-1,6
 236 94 236 94 238 78 c 1,7,-1
 242 78 l 1,8,9
 245 94 245 94 252 119.5 c 128,-1,10
 259 145 259 145 267.5 171.5 c 128,-1,11
 276 198 276 198 283 220 c 2,12,-1
 389 536 l 1,13,-1
 482 536 l 1,14,-1
 290 0 l 1,15,-1
 191 0 l 1,0,-1
EndSplineSet
Substitution2: "'smcp' Lowercase to Small Capitals lookup 34 subtable" v.sc#0
EndChar

StartChar: w#0
Encoding: 119 119 92
Width: 743
GlyphClass: 2
Flags: W
AnchorPoint: "Anchor-3" 725 536 basechar 0
AnchorPoint: "Anchor-2" 372 536 basechar 0
AnchorPoint: "Anchor-0" 370 0 basechar 0
LayerCount: 2
Fore
SplineSet
492 1 m 1,0,-1
 409 303 l 2,1,2
 398 344 398 344 387.5 383 c 128,-1,3
 377 422 377 422 373 445 c 1,4,-1
 369 445 l 1,5,6
 365 422 365 422 355.5 383 c 128,-1,7
 346 344 346 344 334 302 c 2,8,-1
 247 1 l 1,9,-1
 149 1 l 1,10,-1
 10 537 l 1,11,-1
 100 537 l 1,12,-1
 169 251 l 2,13,14
 180 208 180 208 188.5 164 c 128,-1,15
 197 120 197 120 201 91 c 1,16,-1
 205 91 l 1,17,18
 208 108 208 108 213.5 133 c 128,-1,19
 219 158 219 158 225.5 185.5 c 128,-1,20
 232 213 232 213 238 235 c 2,21,-1
 325 537 l 1,22,-1
 421 537 l 1,23,-1
 505 235 l 2,24,25
 515 200 515 200 524.5 160 c 128,-1,26
 534 120 534 120 538 92 c 1,27,-1
 541 92 l 1,28,29
 544 117 544 117 554 161 c 128,-1,30
 564 205 564 205 575 251 c 2,31,-1
 645 537 l 1,32,-1
 733 537 l 1,33,-1
 593 1 l 1,34,-1
 492 1 l 1,0,-1
EndSplineSet
Substitution2: "'smcp' Lowercase to Small Capitals lookup 34 subtable" w.sc#0
EndChar

StartChar: x#0
Encoding: 120 120 93
Width: 501
GlyphClass: 2
Flags: W
AnchorPoint: "Anchor-3" 482 536 basechar 0
AnchorPoint: "Anchor-2" 249 536 basechar 0
AnchorPoint: "Anchor-0" 251 0 basechar 0
LayerCount: 2
Fore
SplineSet
198 274 m 1,0,-1
 24 536 l 1,1,-1
 123 536 l 1,2,-1
 251 334 l 1,3,-1
 377 536 l 1,4,-1
 476 536 l 1,5,-1
 302 274 l 1,6,-1
 485 0 l 1,7,-1
 386 0 l 1,8,-1
 251 214 l 1,9,-1
 114 0 l 1,10,-1
 16 0 l 1,11,-1
 198 274 l 1,0,-1
EndSplineSet
Substitution2: "'smcp' Lowercase to Small Capitals lookup 34 subtable" x.sc#0
EndChar

StartChar: y#0
Encoding: 121 121 94
Width: 484
GlyphClass: 2
Flags: W
AnchorPoint: "Anchor-3" 465 536 basechar 0
AnchorPoint: "Anchor-2" 242 536 basechar 0
AnchorPoint: "Anchor-0" 90 -240 basechar 0
LayerCount: 2
Fore
SplineSet
1 536 m 1,0,-1
 95 536 l 1,1,-1
 202 231 l 2,2,3
 216 190 216 190 227 154 c 128,-1,4
 238 118 238 118 243 85 c 1,5,-1
 246 85 l 1,6,7
 252 110 252 110 263 150.5 c 128,-1,8
 274 191 274 191 288 232 c 2,9,-1
 389 536 l 1,10,-1
 484 536 l 1,11,-1
 267 -74 l 2,12,13
 240 -150 240 -150 197 -195 c 128,-1,14
 154 -240 154 -240 81 -240 c 0,15,16
 58 -240 58 -240 41 -237.5 c 128,-1,17
 24 -235 24 -235 12 -232 c 1,18,-1
 12 -162 l 1,19,20
 22 -164 22 -164 37 -166 c 128,-1,21
 52 -168 52 -168 68 -168 c 0,22,23
 111 -168 111 -168 137.5 -142 c 128,-1,24
 164 -116 164 -116 179 -73 c 2,25,-1
 204 -2 l 1,26,-1
 1 536 l 1,0,-1
EndSplineSet
Substitution2: "'smcp' Lowercase to Small Capitals lookup 34 subtable" y.sc#0
EndChar

StartChar: z#0
Encoding: 122 122 95
Width: 443
GlyphClass: 2
Flags: W
AnchorPoint: "Anchor-3" 406 536 basechar 0
AnchorPoint: "Anchor-2" 222 536 basechar 0
AnchorPoint: "Anchor-0" 228 0 basechar 0
LayerCount: 2
Fore
SplineSet
407 0 m 1,0,-1
 36 0 l 1,1,-1
 36 58 l 1,2,-1
 304 468 l 1,3,-1
 52 468 l 1,4,-1
 52 536 l 1,5,-1
 401 536 l 1,6,-1
 401 470 l 1,7,-1
 136 68 l 1,8,-1
 407 68 l 1,9,-1
 407 0 l 1,0,-1
EndSplineSet
Substitution2: "'smcp' Lowercase to Small Capitals lookup 34 subtable" z.sc#0
EndChar

StartChar: braceleft#0
Encoding: 123 123 96
Width: 358
GlyphClass: 2
Flags: W
LayerCount: 2
Fore
SplineSet
327 -158 m 1,0,1
 238 -157 238 -157 189 -118 c 128,-1,2
 140 -79 140 -79 140 1 c 2,3,-1
 140 148 l 2,4,5
 140 199 140 199 110 220.5 c 128,-1,6
 80 242 80 242 25 242 c 1,7,-1
 25 315 l 1,8,9
 80 316 80 316 110 337 c 128,-1,10
 140 358 140 358 140 408 c 2,11,-1
 140 556 l 2,12,13
 140 636 140 636 191 675 c 128,-1,14
 242 714 242 714 327 714 c 1,15,-1
 327 642 l 1,16,17
 280 640 280 640 252.5 618.5 c 128,-1,18
 225 597 225 597 225 548 c 2,19,-1
 225 404 l 2,20,21
 225 301 225 301 122 282 c 1,22,-1
 122 276 l 1,23,24
 225 257 225 257 225 154 c 2,25,-1
 225 7 l 2,26,27
 225 -42 225 -42 251.5 -63.5 c 128,-1,28
 278 -85 278 -85 327 -86 c 1,29,-1
 327 -158 l 1,0,1
EndSplineSet
Substitution2: "'smcp' Lowercase to Small Capitals lookup 34 subtable" braceleft.sc#0
Substitution2: "'c2sc' Capitals to Small Capitals lookup 33 subtable" braceleft.sc#0
EndChar

StartChar: bar#0
Encoding: 124 124 97
Width: 517
GlyphClass: 2
Flags: W
LayerCount: 2
Fore
SplineSet
223 760 m 1,0,-1
 294 760 l 1,1,-1
 294 -241 l 1,2,-1
 223 -241 l 1,3,-1
 223 760 l 1,0,-1
EndSplineSet
EndChar

StartChar: braceright#0
Encoding: 125 125 98
Width: 358
GlyphClass: 2
Flags: W
LayerCount: 2
Fore
SplineSet
31 -158 m 1,0,-1
 31 -86 l 1,1,2
 79 -84 79 -84 106 -62.5 c 128,-1,3
 133 -41 133 -41 133 8 c 2,4,-1
 133 153 l 2,5,6
 133 255 133 255 236 275 c 1,7,-1
 236 281 l 1,8,9
 133 300 133 300 133 403 c 2,10,-1
 133 549 l 2,11,12
 133 598 133 598 106.5 619.5 c 128,-1,13
 80 641 80 641 31 642 c 1,14,-1
 31 714 l 1,15,16
 120 713 120 713 169 674 c 128,-1,17
 218 635 218 635 218 555 c 2,18,-1
 218 409 l 2,19,20
 218 358 218 358 248 336.5 c 128,-1,21
 278 315 278 315 333 315 c 1,22,-1
 333 242 l 1,23,24
 278 241 278 241 248 220 c 128,-1,25
 218 199 218 199 218 149 c 2,26,-1
 218 0 l 2,27,28
 218 -80 218 -80 167 -119 c 128,-1,29
 116 -158 116 -158 31 -158 c 1,0,-1
EndSplineSet
Substitution2: "'smcp' Lowercase to Small Capitals lookup 34 subtable" braceright.sc#0
Substitution2: "'c2sc' Capitals to Small Capitals lookup 33 subtable" braceright.sc#0
EndChar

StartChar: asciitilde#0
Encoding: 126 126 99
Width: 537
GlyphClass: 2
Flags: W
LayerCount: 2
Fore
SplineSet
253 319 m 0,0,1
 218 335 218 335 195.5 340.5 c 128,-1,2
 173 346 173 346 153 346 c 0,3,4
 127 346 127 346 97.5 329 c 128,-1,5
 68 312 68 312 46 287 c 1,6,-1
 46 365 l 1,7,8
 91 418 91 418 159 418 c 0,9,10
 186 418 186 418 213 412 c 128,-1,11
 240 406 240 406 284 386 c 0,12,13
 318 370 318 370 340 364.5 c 128,-1,14
 362 359 362 359 382 359 c 0,15,16
 409 359 409 359 438.5 376 c 128,-1,17
 468 393 468 393 490 418 c 1,18,-1
 490 341 l 1,19,20
 444 287 444 287 377 287 c 0,21,22
 350 287 350 287 322.5 293.5 c 128,-1,23
 295 300 295 300 253 319 c 0,0,1
EndSplineSet
EndChar

StartChar: exclamdown#0
Encoding: 161 161 101
Width: 255
GlyphClass: 2
Flags: W
LayerCount: 2
Fore
SplineSet
187 478 m 0,0,1
 187 440 187 440 169.5 425.5 c 128,-1,2
 152 411 152 411 127 411 c 256,3,4
 102 411 102 411 84.5 425.5 c 128,-1,5
 67 440 67 440 67 478 c 0,6,7
 67 514 67 514 84.5 530 c 128,-1,8
 102 546 102 546 127 546 c 256,9,10
 152 546 152 546 169.5 530 c 128,-1,11
 187 514 187 514 187 478 c 0,0,1
93 330 m 1,12,-1
 163 330 l 1,13,-1
 179 -182 l 1,14,-1
 73 -182 l 1,15,-1
 93 330 l 1,12,-1
EndSplineSet
Substitution2: "'smcp' Lowercase to Small Capitals lookup 34 subtable" exclamdown.sc#0
Substitution2: "'c2sc' Capitals to Small Capitals lookup 33 subtable" exclamdown.sc#0
EndChar

StartChar: cent#0
Encoding: 162 162 102
Width: 538
GlyphClass: 2
Flags: W
LayerCount: 2
Fore
SplineSet
332 724 m 1,0,-1
 332 644 l 1,1,2
 368 642 368 642 401 634 c 128,-1,3
 434 626 434 626 458 615 c 1,4,-1
 432 542 l 1,5,6
 406 552 406 552 375.5 560 c 128,-1,7
 345 568 345 568 319 568 c 0,8,9
 244 568 244 568 208.5 517 c 128,-1,10
 173 466 173 466 173 363 c 0,11,12
 173 259 173 259 209.5 211.5 c 128,-1,13
 246 164 246 164 316 164 c 0,14,15
 357 164 357 164 388 172.5 c 128,-1,16
 419 181 419 181 449 194 c 1,17,-1
 449 117 l 1,18,19
 423 104 423 104 395.5 96 c 128,-1,20
 368 88 368 88 332 87 c 1,21,-1
 332 -10 l 1,22,-1
 267 -10 l 1,23,-1
 267 90 l 1,24,25
 211 99 211 99 170 129 c 128,-1,26
 129 159 129 159 106.5 215.5 c 128,-1,27
 84 272 84 272 84 362 c 0,28,29
 84 453 84 453 107 511 c 128,-1,30
 130 569 130 569 171 600 c 128,-1,31
 212 631 212 631 267 640 c 1,32,-1
 267 724 l 1,33,-1
 332 724 l 1,0,-1
EndSplineSet
EndChar

StartChar: sterling#0
Encoding: 163 163 103
Width: 538
GlyphClass: 2
Flags: W
LayerCount: 2
Fore
SplineSet
315 723 m 0,0,1
 366 723 366 723 408 711 c 128,-1,2
 450 699 450 699 482 682 c 1,3,-1
 452 612 l 1,4,5
 424 626 424 626 389 638 c 128,-1,6
 354 650 354 650 317 650 c 0,7,8
 265 650 265 650 237.5 620.5 c 128,-1,9
 210 591 210 591 210 525 c 2,10,-1
 210 386 l 1,11,-1
 400 386 l 1,12,-1
 400 320 l 1,13,-1
 210 320 l 1,14,-1
 210 216 l 2,15,16
 210 155 210 155 190.5 125.5 c 128,-1,17
 171 96 171 96 146 80 c 1,18,-1
 504 80 l 1,19,-1
 504 0 l 1,20,-1
 31 0 l 1,21,-1
 31 74 l 1,22,23
 71 84 71 84 97 116.5 c 128,-1,24
 123 149 123 149 123 215 c 2,25,-1
 123 320 l 1,26,-1
 34 320 l 1,27,-1
 34 386 l 1,28,-1
 123 386 l 1,29,-1
 123 534 l 2,30,31
 123 623 123 623 176 673 c 128,-1,32
 229 723 229 723 315 723 c 0,0,1
EndSplineSet
EndChar

StartChar: currency#0
Encoding: 164 164 104
Width: 538
GlyphClass: 2
Flags: W
LayerCount: 2
Fore
SplineSet
85 353 m 0,0,1
 85 383 85 383 93.5 411.5 c 128,-1,2
 102 440 102 440 117 463 c 1,3,-1
 55 531 l 1,4,-1
 103 578 l 1,5,-1
 164 514 l 1,6,7
 210 549 210 549 269 549 c 0,8,9
 298 549 298 549 323 539.5 c 128,-1,10
 348 530 348 530 371 514 c 1,11,-1
 434 578 l 1,12,-1
 481 531 l 1,13,-1
 420 464 l 1,14,15
 434 441 434 441 443.5 412.5 c 128,-1,16
 453 384 453 384 453 353 c 0,17,18
 453 290 453 290 420 241 c 1,19,-1
 480 175 l 1,20,-1
 434 128 l 1,21,-1
 371 192 l 1,22,23
 349 176 349 176 323.5 167 c 128,-1,24
 298 158 298 158 269 158 c 0,25,26
 209 158 209 158 164 193 c 1,27,-1
 103 129 l 1,28,-1
 56 176 l 1,29,-1
 117 242 l 1,30,31
 102 265 102 265 93.5 293.5 c 128,-1,32
 85 322 85 322 85 353 c 0,0,1
150 353 m 0,33,34
 150 317 150 317 166 287.5 c 128,-1,35
 182 258 182 258 209 241 c 128,-1,36
 236 224 236 224 269 224 c 256,37,38
 302 224 302 224 329 241 c 128,-1,39
 356 258 356 258 372 287.5 c 128,-1,40
 388 317 388 317 388 353 c 0,41,42
 388 390 388 390 372 419.5 c 128,-1,43
 356 449 356 449 329 466.5 c 128,-1,44
 302 484 302 484 269 484 c 256,45,46
 236 484 236 484 209 466.5 c 128,-1,47
 182 449 182 449 166 419.5 c 128,-1,48
 150 390 150 390 150 353 c 0,33,34
EndSplineSet
EndChar

StartChar: yen#0
Encoding: 165 165 105
Width: 537
GlyphClass: 2
Flags: W
LayerCount: 2
Fore
SplineSet
268 365 m 1,0,-1
 432 714 l 1,1,-1
 523 714 l 1,2,-1
 335 339 l 1,3,-1
 450 339 l 1,4,-1
 450 275 l 1,5,-1
 310 275 l 1,6,-1
 310 193 l 1,7,-1
 450 193 l 1,8,-1
 450 129 l 1,9,-1
 310 129 l 1,10,-1
 310 0 l 1,11,-1
 225 0 l 1,12,-1
 225 129 l 1,13,-1
 85 129 l 1,14,-1
 85 193 l 1,15,-1
 225 193 l 1,16,-1
 225 275 l 1,17,-1
 85 275 l 1,18,-1
 85 339 l 1,19,-1
 198 339 l 1,20,-1
 12 714 l 1,21,-1
 104 714 l 1,22,-1
 268 365 l 1,0,-1
EndSplineSet
EndChar

StartChar: brokenbar#0
Encoding: 166 166 106
Width: 517
GlyphClass: 2
Flags: W
LayerCount: 2
Fore
SplineSet
223 760 m 1,0,-1
 294 760 l 1,1,-1
 294 379 l 1,2,-1
 223 379 l 1,3,-1
 223 760 l 1,0,-1
223 140 m 1,4,-1
 294 140 l 1,5,-1
 294 -241 l 1,6,-1
 223 -241 l 1,7,-1
 223 140 l 1,4,-1
EndSplineSet
EndChar

StartChar: section#0
Encoding: 167 167 107
Width: 481
GlyphClass: 2
Flags: W
LayerCount: 2
Fore
SplineSet
62 395 m 0,0,1
 62 444 62 444 85 475 c 128,-1,2
 108 506 108 506 136 521 c 1,3,4
 102 540 102 540 83.5 568 c 128,-1,5
 65 596 65 596 65 636 c 0,6,7
 65 696 65 696 113.5 730.5 c 128,-1,8
 162 765 162 765 250 765 c 0,9,10
 302 765 302 765 339 755.5 c 128,-1,11
 376 746 376 746 411 731 c 1,12,-1
 385 664 l 1,13,14
 353 678 353 678 321 687.5 c 128,-1,15
 289 697 289 697 245 697 c 0,16,17
 190 697 190 697 167.5 681.5 c 128,-1,18
 145 666 145 666 145 638 c 256,19,20
 145 610 145 610 170.5 590.5 c 128,-1,21
 196 571 196 571 267 543 c 0,22,23
 339 514 339 514 379.5 478.5 c 128,-1,24
 420 443 420 443 420 383 c 0,25,26
 420 332 420 332 398.5 299.5 c 128,-1,27
 377 267 377 267 350 250 c 1,28,29
 383 231 383 231 401 204.5 c 128,-1,30
 419 178 419 178 419 140 c 0,31,32
 419 71 419 71 364.5 33 c 128,-1,33
 310 -5 310 -5 214 -5 c 0,34,35
 162 -5 162 -5 123.5 3.5 c 128,-1,36
 85 12 85 12 55 28 c 1,37,-1
 55 103 l 1,38,39
 86 88 86 88 130 75 c 128,-1,40
 174 62 174 62 217 62 c 0,41,42
 286 62 286 62 311.5 83 c 128,-1,43
 337 104 337 104 337 133 c 0,44,45
 337 152 337 152 328.5 166.5 c 128,-1,46
 320 181 320 181 294 196 c 128,-1,47
 268 211 268 211 218 231 c 0,48,49
 168 250 168 250 133.5 271.5 c 128,-1,50
 99 293 99 293 80.5 322 c 128,-1,51
 62 351 62 351 62 395 c 0,0,1
135 405 m 0,52,53
 135 368 135 368 164.5 343 c 128,-1,54
 194 318 194 318 268 287 c 2,55,-1
 287 279 l 1,56,57
 309 292 309 292 327.5 314 c 128,-1,58
 346 336 346 336 346 370 c 0,59,60
 346 395 346 395 333.5 415 c 128,-1,61
 321 435 321 435 289.5 453.5 c 128,-1,62
 258 472 258 472 201 491 c 1,63,64
 176 484 176 484 155.5 461 c 128,-1,65
 135 438 135 438 135 405 c 0,52,53
EndSplineSet
EndChar

StartChar: dieresis#0
Encoding: 168 168 108
Width: 547
GlyphClass: 2
Flags: W
LayerCount: 2
Fore
SplineSet
139 681 m 0,0,1
 139 707 139 707 152.5 718.5 c 128,-1,2
 166 730 166 730 185 730 c 0,3,4
 203 730 203 730 216.5 718.5 c 128,-1,5
 230 707 230 707 230 681 c 0,6,7
 230 656 230 656 216.5 643.5 c 128,-1,8
 203 631 203 631 185 631 c 0,9,10
 166 631 166 631 152.5 643.5 c 128,-1,11
 139 656 139 656 139 681 c 0,0,1
316 681 m 0,12,13
 316 707 316 707 329.5 718.5 c 128,-1,14
 343 730 343 730 361 730 c 0,15,16
 380 730 380 730 393.5 718.5 c 128,-1,17
 407 707 407 707 407 681 c 0,18,19
 407 656 407 656 393.5 643.5 c 128,-1,20
 380 631 380 631 361 631 c 0,21,22
 343 631 343 631 329.5 643.5 c 128,-1,23
 316 656 316 656 316 681 c 0,12,13
EndSplineSet
EndChar

StartChar: copyright#0
Encoding: 169 169 109
Width: 782
GlyphClass: 2
Flags: W
LayerCount: 2
Fore
SplineSet
46 357 m 256,0,1
 46 433 46 433 72.5 499.5 c 128,-1,2
 99 566 99 566 146.5 616.5 c 128,-1,3
 194 667 194 667 256.5 695.5 c 128,-1,4
 319 724 319 724 391 724 c 256,5,6
 463 724 463 724 525.5 695.5 c 128,-1,7
 588 667 588 667 635.5 616.5 c 128,-1,8
 683 566 683 566 709.5 499.5 c 128,-1,9
 736 433 736 433 736 357 c 256,10,11
 736 281 736 281 709.5 214.5 c 128,-1,12
 683 148 683 148 635.5 97.5 c 128,-1,13
 588 47 588 47 525.5 18.5 c 128,-1,14
 463 -10 463 -10 391 -10 c 256,15,16
 319 -10 319 -10 256.5 18.5 c 128,-1,17
 194 47 194 47 146.5 97.5 c 128,-1,18
 99 148 99 148 72.5 214.5 c 128,-1,19
 46 281 46 281 46 357 c 256,0,1
96 357 m 256,20,21
 96 292 96 292 119 235 c 128,-1,22
 142 178 142 178 182.5 135 c 128,-1,23
 223 92 223 92 276.5 67.5 c 128,-1,24
 330 43 330 43 391 43 c 256,25,26
 452 43 452 43 505.5 67.5 c 128,-1,27
 559 92 559 92 599.5 135 c 128,-1,28
 640 178 640 178 663 235 c 128,-1,29
 686 292 686 292 686 357 c 256,30,31
 686 422 686 422 663 479 c 128,-1,32
 640 536 640 536 599.5 579 c 128,-1,33
 559 622 559 622 505.5 646.5 c 128,-1,34
 452 671 452 671 391 671 c 256,35,36
 330 671 330 671 276.5 646.5 c 128,-1,37
 223 622 223 622 182.5 579 c 128,-1,38
 142 536 142 536 119 479 c 128,-1,39
 96 422 96 422 96 357 c 256,20,21
410 515 m 0,40,41
 354 515 354 515 323.5 472.5 c 128,-1,42
 293 430 293 430 293 357 c 0,43,44
 293 280 293 280 320 239 c 128,-1,45
 347 198 347 198 409 198 c 0,46,47
 431 198 431 198 458 204.5 c 128,-1,48
 485 211 485 211 508 221 c 1,49,-1
 508 157 l 1,50,51
 485 146 485 146 461.5 139.5 c 128,-1,52
 438 133 438 133 405 133 c 0,53,54
 312 133 312 133 266 194.5 c 128,-1,55
 220 256 220 256 220 357 c 0,56,57
 220 422 220 422 242 472.5 c 128,-1,58
 264 523 264 523 306 551.5 c 128,-1,59
 348 580 348 580 409 580 c 256,60,61
 470 580 470 580 524 550 c 1,62,-1
 497 489 l 1,63,64
 450 515 450 515 410 515 c 0,40,41
EndSplineSet
EndChar

StartChar: ordfeminine#0
Encoding: 170 170 110
Width: 337
GlyphClass: 2
Flags: W
LayerCount: 2
Fore
SplineSet
168 722 m 0,0,1
 229 722 229 722 260 695 c 128,-1,2
 291 668 291 668 291 609 c 2,3,-1
 291 389 l 1,4,-1
 246 389 l 1,5,-1
 234 431 l 1,6,7
 215 410 215 410 188.5 396.5 c 128,-1,8
 162 383 162 383 127 383 c 0,9,10
 82 383 82 383 55.5 407.5 c 128,-1,11
 29 432 29 432 29 482 c 0,12,13
 29 581 29 581 179 587 c 2,14,-1
 231 589 l 1,15,-1
 231 611 l 2,16,17
 231 644 231 644 211.5 657 c 128,-1,18
 192 670 192 670 164 670 c 0,19,20
 138 670 138 670 114.5 662.5 c 128,-1,21
 91 655 91 655 69 644 c 1,22,-1
 48 693 l 1,23,24
 72 706 72 706 103 714 c 128,-1,25
 134 722 134 722 168 722 c 0,0,1
231 544 m 1,26,-1
 186 542 l 2,27,28
 130 540 130 540 111 524.5 c 128,-1,29
 92 509 92 509 92 482 c 0,30,31
 92 456 92 456 105 445 c 128,-1,32
 118 434 118 434 141 434 c 0,33,34
 188 434 188 434 209.5 457.5 c 128,-1,35
 231 481 231 481 231 521 c 2,36,-1
 231 544 l 1,26,-1
EndSplineSet
EndChar

StartChar: guillemotleft#0
Encoding: 171 171 111
Width: 487
GlyphClass: 2
Flags: W
LayerCount: 2
Fore
SplineSet
38 270 m 1,0,-1
 197 471 l 1,1,-1
 259 435 l 1,2,-1
 128 264 l 1,3,-1
 259 93 l 1,4,-1
 197 56 l 1,5,-1
 38 257 l 1,6,-1
 38 270 l 1,0,-1
228 270 m 1,7,-1
 388 471 l 1,8,-1
 450 435 l 1,9,-1
 318 264 l 1,10,-1
 450 93 l 1,11,-1
 388 56 l 1,12,-1
 228 257 l 1,13,-1
 228 270 l 1,7,-1
EndSplineSet
Substitution2: "'locl' Localized Forms in Arabic lookup 48 subtable" guillemotleft#1
EndChar

StartChar: logicalnot#0
Encoding: 172 172 112
Width: 537
GlyphClass: 2
Flags: W
LayerCount: 2
Fore
SplineSet
489 388 m 1,0,-1
 489 128 l 1,1,-1
 420 128 l 1,2,-1
 420 317 l 1,3,-1
 46 317 l 1,4,-1
 46 388 l 1,5,-1
 489 388 l 1,0,-1
EndSplineSet
EndChar

StartChar: registered#0
Encoding: 174 174 114
Width: 782
GlyphClass: 2
Flags: W
LayerCount: 2
Fore
SplineSet
46 357 m 256,0,1
 46 433 46 433 72.5 499.5 c 128,-1,2
 99 566 99 566 146.5 616.5 c 128,-1,3
 194 667 194 667 256.5 695.5 c 128,-1,4
 319 724 319 724 391 724 c 256,5,6
 463 724 463 724 525.5 695.5 c 128,-1,7
 588 667 588 667 635.5 616.5 c 128,-1,8
 683 566 683 566 709.5 499.5 c 128,-1,9
 736 433 736 433 736 357 c 256,10,11
 736 281 736 281 709.5 214.5 c 128,-1,12
 683 148 683 148 635.5 97.5 c 128,-1,13
 588 47 588 47 525.5 18.5 c 128,-1,14
 463 -10 463 -10 391 -10 c 256,15,16
 319 -10 319 -10 256.5 18.5 c 128,-1,17
 194 47 194 47 146.5 97.5 c 128,-1,18
 99 148 99 148 72.5 214.5 c 128,-1,19
 46 281 46 281 46 357 c 256,0,1
96 357 m 256,20,21
 96 292 96 292 119 235 c 128,-1,22
 142 178 142 178 182.5 135 c 128,-1,23
 223 92 223 92 276.5 67.5 c 128,-1,24
 330 43 330 43 391 43 c 256,25,26
 452 43 452 43 505.5 67.5 c 128,-1,27
 559 92 559 92 599.5 135 c 128,-1,28
 640 178 640 178 663 235 c 128,-1,29
 686 292 686 292 686 357 c 256,30,31
 686 422 686 422 663 479 c 128,-1,32
 640 536 640 536 599.5 579 c 128,-1,33
 559 622 559 622 505.5 646.5 c 128,-1,34
 452 671 452 671 391 671 c 256,35,36
 330 671 330 671 276.5 646.5 c 128,-1,37
 223 622 223 622 182.5 579 c 128,-1,38
 142 536 142 536 119 479 c 128,-1,39
 96 422 96 422 96 357 c 256,20,21
531 446 m 0,40,41
 531 399 531 399 508.5 371.5 c 128,-1,42
 486 344 486 344 458 332 c 1,43,-1
 567 138 l 1,44,-1
 486 138 l 1,45,-1
 392 311 l 1,46,-1
 334 311 l 1,47,-1
 334 138 l 1,48,-1
 262 138 l 1,49,-1
 262 575 l 1,50,-1
 383 575 l 2,51,52
 460 575 460 575 495.5 542.5 c 128,-1,53
 531 510 531 510 531 446 c 0,40,41
334 373 m 1,54,-1
 381 373 l 2,55,56
 418 373 418 373 438.5 392.5 c 128,-1,57
 459 412 459 412 459 444 c 0,58,59
 459 479 459 479 439.5 495 c 128,-1,60
 420 511 420 511 380 511 c 2,61,-1
 334 511 l 1,62,-1
 334 373 l 1,54,-1
EndSplineSet
EndChar

StartChar: overscore#0
Encoding: 175 175 115
Width: 470
GlyphClass: 2
Flags: W
LayerCount: 2
Fore
SplineSet
473 760 m 1,0,-1
 -3 760 l 1,1,-1
 -3 826 l 1,2,-1
 473 826 l 1,3,-1
 473 760 l 1,0,-1
EndSplineSet
Substitution2: "'smcp' Lowercase to Small Capitals lookup 34 subtable" overscore.sc#0
Substitution2: "'c2sc' Capitals to Small Capitals lookup 33 subtable" overscore.sc#0
EndChar

StartChar: degree#0
Encoding: 176 176 116
Width: 402
GlyphClass: 2
Flags: W
LayerCount: 2
Fore
SplineSet
55 570 m 256,0,1
 55 614 55 614 74.5 648.5 c 128,-1,2
 94 683 94 683 127 703.5 c 128,-1,3
 160 724 160 724 201 724 c 0,4,5
 241 724 241 724 274 703.5 c 128,-1,6
 307 683 307 683 327 648.5 c 128,-1,7
 347 614 347 614 347 570 c 256,8,9
 347 526 347 526 327 491.5 c 128,-1,10
 307 457 307 457 274 437 c 128,-1,11
 241 417 241 417 201 417 c 0,12,13
 160 417 160 417 127 437 c 128,-1,14
 94 457 94 457 74.5 491.5 c 128,-1,15
 55 526 55 526 55 570 c 256,0,1
114 570 m 0,16,17
 114 531 114 531 140 503.5 c 128,-1,18
 166 476 166 476 202 476 c 256,19,20
 238 476 238 476 263 503.5 c 128,-1,21
 288 531 288 531 288 570 c 0,22,23
 288 610 288 610 263 637 c 128,-1,24
 238 664 238 664 202 664 c 256,25,26
 166 664 166 664 140 637 c 128,-1,27
 114 610 114 610 114 570 c 0,16,17
EndSplineSet
EndChar

StartChar: plusminus#0
Encoding: 177 177 117
Width: 537
GlyphClass: 2
Flags: W
LayerCount: 2
Fore
SplineSet
303 391 m 1,0,-1
 489 391 l 1,1,-1
 489 320 l 1,2,-1
 303 320 l 1,3,-1
 303 114 l 1,4,-1
 232 114 l 1,5,-1
 232 320 l 1,6,-1
 46 320 l 1,7,-1
 46 391 l 1,8,-1
 232 391 l 1,9,-1
 232 598 l 1,10,-1
 303 598 l 1,11,-1
 303 391 l 1,0,-1
46 0 m 1,12,-1
 46 71 l 1,13,-1
 490 71 l 1,14,-1
 490 0 l 1,15,-1
 46 0 l 1,12,-1
EndSplineSet
EndChar

StartChar: uni00B2#0
Encoding: 178 178 118
Width: 331
GlyphClass: 2
Flags: W
LayerCount: 2
Fore
SplineSet
291 416 m 1,0,-1
 23 416 l 1,1,-1
 23 470 l 1,2,-1
 130 582 l 2,3,4
 168 621 168 621 187 645.5 c 128,-1,5
 206 670 206 670 213 689 c 128,-1,6
 220 708 220 708 220 731 c 0,7,8
 220 762 220 762 203.5 778.5 c 128,-1,9
 187 795 187 795 159 795 c 0,10,11
 132 795 132 795 109 783.5 c 128,-1,12
 86 772 86 772 62 752 c 1,13,-1
 27 798 l 1,14,15
 55 823 55 823 87.5 838 c 128,-1,16
 120 853 120 853 161 853 c 0,17,18
 221 853 221 853 256 821.5 c 128,-1,19
 291 790 291 790 291 735 c 0,20,21
 291 686 291 686 263 647 c 128,-1,22
 235 608 235 608 183 555 c 2,23,-1
 108 478 l 1,24,-1
 291 478 l 1,25,-1
 291 416 l 1,0,-1
EndSplineSet
EndChar

StartChar: uni00B3#0
Encoding: 179 179 119
Width: 331
GlyphClass: 2
Flags: W
LayerCount: 2
Fore
SplineSet
157 853 m 0,0,1
 223 853 223 853 257 822 c 128,-1,2
 291 791 291 791 291 743 c 0,3,4
 291 702 291 702 270.5 676.5 c 128,-1,5
 250 651 250 651 222 641 c 1,6,-1
 222 638 l 1,7,8
 259 630 259 630 281 605 c 128,-1,9
 303 580 303 580 303 539 c 0,10,11
 303 481 303 481 263 444.5 c 128,-1,12
 223 408 223 408 140 408 c 0,13,14
 106 408 106 408 76 414.5 c 128,-1,15
 46 421 46 421 17 436 c 1,16,-1
 17 499 l 1,17,18
 82 465 82 465 141 465 c 0,19,20
 188 465 188 465 210.5 485.5 c 128,-1,21
 233 506 233 506 233 541 c 0,22,23
 233 577 233 577 206.5 593.5 c 128,-1,24
 180 610 180 610 132 610 c 2,25,-1
 78 610 l 1,26,-1
 78 665 l 1,27,-1
 131 665 l 2,28,29
 178 665 178 665 199.5 684.5 c 128,-1,30
 221 704 221 704 221 735 c 256,31,32
 221 766 221 766 202.5 781 c 128,-1,33
 184 796 184 796 157 796 c 0,34,35
 128 796 128 796 104 785.5 c 128,-1,36
 80 775 80 775 54 758 c 1,37,-1
 19 804 l 1,38,39
 48 826 48 826 80.5 839.5 c 128,-1,40
 113 853 113 853 157 853 c 0,0,1
EndSplineSet
EndChar

StartChar: acute#0
Encoding: 180 180 120
Width: 275
GlyphClass: 2
Flags: W
LayerCount: 2
Fore
SplineSet
235 766 m 1,0,-1
 235 756 l 1,1,2
 222 738 222 738 198 709.5 c 128,-1,3
 174 681 174 681 147 652.5 c 128,-1,4
 120 624 120 624 97 606 c 1,5,-1
 40 606 l 1,6,-1
 40 618 l 1,7,8
 54 636 54 636 71 662.5 c 128,-1,9
 88 689 88 689 104 716.5 c 128,-1,10
 120 744 120 744 131 766 c 1,11,-1
 235 766 l 1,0,-1
EndSplineSet
EndChar

StartChar: uni00B5#0
Encoding: 181 181 121
Width: 588
GlyphClass: 2
Flags: W
LayerCount: 2
Fore
SplineSet
509 536 m 1,0,-1
 509 0 l 1,1,-1
 439 0 l 1,2,-1
 425 72 l 1,3,-1
 420 72 l 1,4,5
 397 32 397 32 360.5 11 c 128,-1,6
 324 -10 324 -10 272 -10 c 0,7,8
 236 -10 236 -10 209.5 2.5 c 128,-1,9
 183 15 183 15 165 35 c 1,10,-1
 161 35 l 1,11,12
 163 17 163 17 164.5 -13.5 c 128,-1,13
 166 -44 166 -44 166 -84 c 2,14,-1
 166 -240 l 1,15,-1
 79 -240 l 1,16,-1
 79 536 l 1,17,-1
 166 536 l 1,18,-1
 166 190 l 2,19,20
 166 63 166 63 277 63 c 0,21,22
 359 63 359 63 390 113 c 128,-1,23
 421 163 421 163 421 257 c 2,24,-1
 421 536 l 1,25,-1
 509 536 l 1,0,-1
EndSplineSet
EndChar

StartChar: paragraph#0
Encoding: 182 182 122
Width: 616
GlyphClass: 2
Flags: W
LayerCount: 2
Fore
SplineSet
518 -127 m 1,0,-1
 462 -127 l 1,1,-1
 462 704 l 1,2,-1
 367 704 l 1,3,-1
 367 -127 l 1,4,-1
 311 -127 l 1,5,-1
 311 273 l 1,6,7
 298 268 298 268 280 266 c 128,-1,8
 262 264 262 264 245 264 c 0,9,10
 186 264 186 264 143 287 c 128,-1,11
 100 310 100 310 76 364 c 128,-1,12
 52 418 52 418 52 509 c 0,13,14
 52 604 52 604 78 659 c 128,-1,15
 104 714 104 714 151 737 c 128,-1,16
 198 760 198 760 259 760 c 2,17,-1
 518 760 l 1,18,-1
 518 -127 l 1,0,-1
EndSplineSet
EndChar

StartChar: cedilla#0
Encoding: 184 184 124
Width: 210
GlyphClass: 2
Flags: W
LayerCount: 2
Fore
SplineSet
199 -139 m 0,0,1
 199 -187 199 -187 164.5 -213.5 c 128,-1,2
 130 -240 130 -240 60 -240 c 0,3,4
 29 -240 29 -240 11 -235 c 1,5,-1
 11 -180 l 1,6,7
 31 -185 31 -185 62 -185 c 0,8,9
 94 -185 94 -185 111.5 -175.5 c 128,-1,10
 129 -166 129 -166 129 -141 c 0,11,12
 129 -115 129 -115 105 -103 c 128,-1,13
 81 -91 81 -91 44 -86 c 1,14,-1
 84 0 l 1,15,-1
 141 0 l 1,16,-1
 118 -53 l 1,17,18
 151 -61 151 -61 175 -81 c 128,-1,19
 199 -101 199 -101 199 -139 c 0,0,1
EndSplineSet
EndChar

StartChar: uni00B9#0
Encoding: 185 185 125
Width: 331
GlyphClass: 2
Flags: W
LayerCount: 2
Fore
SplineSet
229 844 m 1,0,-1
 229 416 l 1,1,-1
 159 416 l 1,2,-1
 159 692 l 2,3,4
 159 718 159 718 159.5 739 c 128,-1,5
 160 760 160 760 162 781 c 1,6,7
 153 772 153 772 141.5 761.5 c 128,-1,8
 130 751 130 751 119 742 c 2,9,-1
 69 703 l 1,10,-1
 35 752 l 1,11,-1
 158 844 l 1,12,-1
 229 844 l 1,0,-1
EndSplineSet
EndChar

StartChar: ordmasculine#0
Encoding: 186 186 126
Width: 355
GlyphClass: 2
Flags: W
LayerCount: 2
Fore
SplineSet
326 553 m 0,0,1
 326 472 326 472 285 427.5 c 128,-1,2
 244 383 244 383 176 383 c 0,3,4
 112 383 112 383 71 426.5 c 128,-1,5
 30 470 30 470 30 553 c 0,6,7
 30 635 30 635 70 678.5 c 128,-1,8
 110 722 110 722 178 722 c 0,9,10
 245 722 245 722 285.5 679 c 128,-1,11
 326 636 326 636 326 553 c 0,0,1
92 553 m 256,12,13
 92 494 92 494 112 465 c 128,-1,14
 132 436 132 436 177 436 c 256,15,16
 222 436 222 436 242.5 465 c 128,-1,17
 263 494 263 494 263 553 c 256,18,19
 263 612 263 612 242.5 640.5 c 128,-1,20
 222 669 222 669 177 669 c 0,21,22
 133 669 133 669 112.5 640.5 c 128,-1,23
 92 612 92 612 92 553 c 256,12,13
EndSplineSet
EndChar

StartChar: guillemotright#0
Encoding: 187 187 127
Width: 487
GlyphClass: 2
Flags: W
LayerCount: 2
Fore
SplineSet
449 257 m 1,0,-1
 288 56 l 1,1,-1
 227 93 l 1,2,-1
 358 264 l 1,3,-1
 227 435 l 1,4,-1
 288 471 l 1,5,-1
 449 270 l 1,6,-1
 449 257 l 1,0,-1
258 257 m 1,7,-1
 99 56 l 1,8,-1
 37 93 l 1,9,-1
 168 264 l 1,10,-1
 37 435 l 1,11,-1
 99 471 l 1,12,-1
 258 270 l 1,13,-1
 258 257 l 1,7,-1
EndSplineSet
Substitution2: "'locl' Localized Forms in Arabic lookup 48 subtable" guillemotright#1
EndChar

StartChar: onequarter#0
Encoding: 188 188 128
Width: 706
GlyphClass: 2
Flags: W
LayerCount: 2
Fore
SplineSet
121 0 m 1,0,-1
 527 714 l 1,1,-1
 601 714 l 1,2,-1
 194 0 l 1,3,-1
 121 0 l 1,0,-1
155 286 m 1,4,-1
 155 562 l 2,5,6
 155 588 155 588 155.5 609 c 128,-1,7
 156 630 156 630 158 651 c 1,8,9
 149 642 149 642 137.5 631.5 c 128,-1,10
 126 621 126 621 115 612 c 2,11,-1
 65 573 l 1,12,-1
 31 622 l 1,13,-1
 154 714 l 1,14,-1
 225 714 l 1,15,-1
 225 286 l 1,16,-1
 155 286 l 1,4,-1
567 0 m 1,17,-1
 567 96 l 1,18,-1
 384 96 l 1,19,-1
 384 148 l 1,20,-1
 569 431 l 1,21,-1
 641 431 l 1,22,-1
 641 156 l 1,23,-1
 698 156 l 1,24,-1
 698 96 l 1,25,-1
 641 96 l 1,26,-1
 641 0 l 1,27,-1
 567 0 l 1,17,-1
452 156 m 1,28,-1
 567 156 l 1,29,-1
 567 249 l 2,30,31
 567 270 567 270 567.5 298 c 128,-1,32
 568 326 568 326 570 350 c 1,33,34
 565 339 565 339 550.5 314.5 c 128,-1,35
 536 290 536 290 526 273 c 2,36,-1
 452 156 l 1,28,-1
EndSplineSet
EndChar

StartChar: onehalf#0
Encoding: 189 189 129
Width: 732
GlyphClass: 2
Flags: W
LayerCount: 2
Fore
SplineSet
95 0 m 1,0,-1
 502 714 l 1,1,-1
 575 714 l 1,2,-1
 168 0 l 1,3,-1
 95 0 l 1,0,-1
145 286 m 1,4,-1
 145 562 l 2,5,6
 145 588 145 588 145.5 609 c 128,-1,7
 146 630 146 630 148 651 c 1,8,9
 139 642 139 642 128 631.5 c 128,-1,10
 117 621 117 621 105 612 c 2,11,-1
 55 573 l 1,12,-1
 21 622 l 1,13,-1
 144 714 l 1,14,-1
 215 714 l 1,15,-1
 215 286 l 1,16,-1
 145 286 l 1,4,-1
424 0 m 1,17,-1
 424 54 l 1,18,-1
 531 166 l 2,19,20
 568 205 568 205 588 229.5 c 128,-1,21
 608 254 608 254 615 273 c 128,-1,22
 622 292 622 292 622 315 c 0,23,24
 622 346 622 346 605 362.5 c 128,-1,25
 588 379 588 379 560 379 c 0,26,27
 533 379 533 379 510 367.5 c 128,-1,28
 487 356 487 356 463 336 c 1,29,-1
 428 382 l 1,30,31
 456 407 456 407 489 422 c 128,-1,32
 522 437 522 437 562 437 c 0,33,34
 622 437 622 437 657 405.5 c 128,-1,35
 692 374 692 374 692 319 c 0,36,37
 692 270 692 270 664 231 c 128,-1,38
 636 192 636 192 584 139 c 2,39,-1
 509 62 l 1,40,-1
 692 62 l 1,41,-1
 692 0 l 1,42,-1
 424 0 l 1,17,-1
EndSplineSet
EndChar

StartChar: threequarters#0
Encoding: 190 190 130
Width: 738
GlyphClass: 2
Flags: W
LayerCount: 2
Fore
SplineSet
139 278 m 0,0,1
 104 278 104 278 74 284.5 c 128,-1,2
 44 291 44 291 16 306 c 1,3,-1
 16 369 l 1,4,5
 81 335 81 335 140 335 c 0,6,7
 187 335 187 335 209.5 355.5 c 128,-1,8
 232 376 232 376 232 411 c 0,9,10
 232 447 232 447 205.5 463.5 c 128,-1,11
 179 480 179 480 131 480 c 2,12,-1
 77 480 l 1,13,-1
 77 535 l 1,14,-1
 130 535 l 2,15,16
 177 535 177 535 198.5 554.5 c 128,-1,17
 220 574 220 574 220 605 c 256,18,19
 220 636 220 636 201.5 651 c 128,-1,20
 183 666 183 666 156 666 c 0,21,22
 128 666 128 666 103 655.5 c 128,-1,23
 78 645 78 645 53 628 c 1,24,-1
 18 674 l 1,25,26
 46 696 46 696 79 709.5 c 128,-1,27
 112 723 112 723 156 723 c 0,28,29
 222 723 222 723 256 692 c 128,-1,30
 290 661 290 661 290 613 c 0,31,32
 290 572 290 572 270 546.5 c 128,-1,33
 250 521 250 521 221 511 c 1,34,-1
 221 508 l 1,35,36
 258 500 258 500 280 475 c 128,-1,37
 302 450 302 450 302 409 c 0,38,39
 302 351 302 351 262 314.5 c 128,-1,40
 222 278 222 278 139 278 c 0,0,1
161 0 m 1,41,-1
 568 714 l 1,42,-1
 642 714 l 1,43,-1
 235 0 l 1,44,-1
 161 0 l 1,41,-1
599 0 m 1,45,-1
 599 96 l 1,46,-1
 417 96 l 1,47,-1
 417 148 l 1,48,-1
 601 431 l 1,49,-1
 673 431 l 1,50,-1
 673 156 l 1,51,-1
 730 156 l 1,52,-1
 730 96 l 1,53,-1
 673 96 l 1,54,-1
 673 0 l 1,55,-1
 599 0 l 1,45,-1
484 156 m 1,56,-1
 599 156 l 1,57,-1
 599 249 l 2,58,59
 599 270 599 270 599.5 298 c 128,-1,60
 600 326 600 326 602 350 c 1,61,62
 598 339 598 339 583 314.5 c 128,-1,63
 568 290 568 290 558 273 c 2,64,-1
 484 156 l 1,56,-1
EndSplineSet
EndChar

StartChar: AE#0
Encoding: 198 198 138
Width: 833
GlyphClass: 2
Flags: W
AnchorPoint: "Anchor-2" 464 714 basechar 0
AnchorPoint: "Anchor-0" 417 0 basechar 0
LayerCount: 2
Fore
SplineSet
777 0 m 1,0,-1
 423 0 l 1,1,-1
 423 221 l 1,2,-1
 189 221 l 1,3,-1
 91 0 l 1,4,-1
 -1 0 l 1,5,-1
 316 714 l 1,6,-1
 777 714 l 1,7,-1
 777 635 l 1,8,-1
 512 635 l 1,9,-1
 512 412 l 1,10,-1
 759 412 l 1,11,-1
 759 334 l 1,12,-1
 512 334 l 1,13,-1
 512 79 l 1,14,-1
 777 79 l 1,15,-1
 777 0 l 1,0,-1
223 301 m 1,16,-1
 423 301 l 1,17,-1
 423 634 l 1,18,-1
 368 634 l 1,19,-1
 223 301 l 1,16,-1
EndSplineSet
Substitution2: "'c2sc' Capitals to Small Capitals lookup 33 subtable" ae.sc#0
EndChar

StartChar: Eth#0
Encoding: 208 208 148
Width: 687
GlyphClass: 2
Flags: W
AnchorPoint: "Anchor-2" 344 714 basechar 0
AnchorPoint: "Anchor-0" 344 0 basechar 0
LayerCount: 2
Fore
SplineSet
298 714 m 2,0,1
 399 714 399 714 473.5 674 c 128,-1,2
 548 634 548 634 589 556 c 128,-1,3
 630 478 630 478 630 364 c 0,4,5
 630 183 630 183 537 91.5 c 128,-1,6
 444 0 444 0 277 0 c 2,7,-1
 97 0 l 1,8,-1
 97 314 l 1,9,-1
 28 314 l 1,10,-1
 28 392 l 1,11,-1
 97 392 l 1,12,-1
 97 714 l 1,13,-1
 298 714 l 2,0,1
287 637 m 2,14,-1
 186 637 l 1,15,-1
 186 392 l 1,16,-1
 349 392 l 1,17,-1
 349 314 l 1,18,-1
 186 314 l 1,19,-1
 186 77 l 1,20,-1
 269 77 l 2,21,22
 536 77 536 77 536 361 c 0,23,24
 536 504 536 504 471 570.5 c 128,-1,25
 406 637 406 637 287 637 c 2,14,-1
EndSplineSet
Substitution2: "'c2sc' Capitals to Small Capitals lookup 33 subtable" eth.sc#0
EndChar

StartChar: multiply#0
Encoding: 215 215 155
Width: 538
GlyphClass: 2
Flags: W
LayerCount: 2
Fore
SplineSet
427 574 m 1,0,-1
 476 523 l 1,1,-1
 317 353 l 1,2,-1
 475 183 l 1,3,-1
 426 132 l 1,4,-1
 267 301 l 1,5,-1
 111 132 l 1,6,-1
 61 183 l 1,7,-1
 218 353 l 1,8,-1
 60 522 l 1,9,-1
 110 574 l 1,10,-1
 268 403 l 1,11,-1
 427 574 l 1,0,-1
EndSplineSet
EndChar

StartChar: Oslash#0
Encoding: 216 216 156
Width: 735
GlyphClass: 2
Flags: W
AnchorPoint: "Anchor-2" 369 746 basechar 0
AnchorPoint: "Anchor-0" 368 -31 basechar 0
LayerCount: 2
Fore
SplineSet
678 358 m 0,0,1
 678 247 678 247 643 164.5 c 128,-1,2
 608 82 608 82 539 36 c 128,-1,3
 470 -10 470 -10 368 -10 c 0,4,5
 263 -10 263 -10 196 37 c 1,6,-1
 151 -31 l 1,7,-1
 92 9 l 1,8,-1
 140 83 l 1,9,10
 98 132 98 132 77.5 202 c 128,-1,11
 57 272 57 272 57 359 c 0,12,13
 57 468 57 468 91 550.5 c 128,-1,14
 125 633 125 633 194.5 679 c 128,-1,15
 264 725 264 725 369 725 c 0,16,17
 418 725 418 725 459.5 713 c 128,-1,18
 501 701 501 701 535 680 c 1,19,-1
 578 746 l 1,20,-1
 637 705 l 1,21,-1
 590 634 l 1,22,23
 678 535 678 535 678 358 c 0,0,1
151 358 m 0,24,25
 151 233 151 233 194 160 c 1,26,-1
 488 611 l 1,27,28
 441 646 441 646 369 646 c 0,29,30
 256 646 256 646 203.5 569.5 c 128,-1,31
 151 493 151 493 151 358 c 0,24,25
584 358 m 0,32,33
 584 421 584 421 572.5 472 c 128,-1,34
 561 523 561 523 538 560 c 1,35,-1
 243 106 l 1,36,37
 267 88 267 88 298.5 78 c 128,-1,38
 330 68 330 68 368 68 c 0,39,40
 480 68 480 68 532 145.5 c 128,-1,41
 584 223 584 223 584 358 c 0,32,33
EndSplineSet
Substitution2: "'c2sc' Capitals to Small Capitals lookup 33 subtable" oslash.sc#0
EndChar

StartChar: Thorn#0
Encoding: 222 222 162
Width: 571
GlyphClass: 2
Flags: W
AnchorPoint: "Anchor-2" 286 714 basechar 0
AnchorPoint: "Anchor-0" 286 0 basechar 0
LayerCount: 2
Fore
SplineSet
523 382 m 0,0,1
 523 322 523 322 498.5 270 c 128,-1,2
 474 218 474 218 416 186.5 c 128,-1,3
 358 155 358 155 256 155 c 2,4,-1
 180 155 l 1,5,-1
 180 0 l 1,6,-1
 91 0 l 1,7,-1
 91 714 l 1,8,-1
 180 714 l 1,9,-1
 180 590 l 1,10,-1
 270 590 l 2,11,12
 405 590 405 590 464 535 c 128,-1,13
 523 480 523 480 523 382 c 0,0,1
180 231 m 1,14,-1
 246 231 l 2,15,16
 342 231 342 231 386.5 264.5 c 128,-1,17
 431 298 431 298 431 377 c 0,18,19
 431 446 431 446 391 479.5 c 128,-1,20
 351 513 351 513 262 513 c 2,21,-1
 180 513 l 1,22,-1
 180 231 l 1,14,-1
EndSplineSet
Substitution2: "'c2sc' Capitals to Small Capitals lookup 33 subtable" thorn.sc#0
EndChar

StartChar: germandbls#0
Encoding: 223 223 163
Width: 599
GlyphClass: 2
Flags: W
AnchorPoint: "Anchor-2" 300 765 basechar 0
AnchorPoint: "Anchor-0" 300 0 basechar 0
LayerCount: 2
Fore
SplineSet
497 617 m 0,0,1
 497 583 497 583 483.5 557.5 c 128,-1,2
 470 532 470 532 450.5 512.5 c 128,-1,3
 431 493 431 493 411.5 477 c 128,-1,4
 392 461 392 461 378.5 445.5 c 128,-1,5
 365 430 365 430 365 412 c 0,6,7
 365 398 365 398 371.5 387.5 c 128,-1,8
 378 377 378 377 396 362.5 c 128,-1,9
 414 348 414 348 449 323 c 0,10,11
 499 287 499 287 528 249.5 c 128,-1,12
 557 212 557 212 557 153 c 0,13,14
 557 68 557 68 507.5 29 c 128,-1,15
 458 -10 458 -10 379 -10 c 0,16,17
 335 -10 335 -10 301.5 -1 c 128,-1,18
 268 8 268 8 243 24 c 1,19,-1
 243 103 l 1,20,21
 267 87 267 87 303 74 c 128,-1,22
 339 61 339 61 376 61 c 0,23,24
 426 61 426 61 448.5 84 c 128,-1,25
 471 107 471 107 471 147 c 0,26,27
 471 183 471 183 452 207.5 c 128,-1,28
 433 232 433 232 383 267 c 0,29,30
 324 308 324 308 302.5 337.5 c 128,-1,31
 281 367 281 367 281 407 c 0,32,33
 281 438 281 438 294 460 c 128,-1,34
 307 482 307 482 325.5 498.5 c 128,-1,35
 344 515 344 515 363 531 c 128,-1,36
 382 547 382 547 395 566 c 128,-1,37
 408 585 408 585 408 612 c 0,38,39
 408 654 408 654 375 673 c 128,-1,40
 342 692 342 692 290 692 c 0,41,42
 257 692 257 692 228.5 682.5 c 128,-1,43
 200 673 200 673 183 649.5 c 128,-1,44
 166 626 166 626 166 584 c 2,45,-1
 166 0 l 1,46,-1
 79 0 l 1,47,-1
 79 584 l 2,48,49
 79 651 79 651 106.5 690.5 c 128,-1,50
 134 730 134 730 182 747.5 c 128,-1,51
 230 765 230 765 290 765 c 0,52,53
 382 765 382 765 439.5 728 c 128,-1,54
 497 691 497 691 497 617 c 0,0,1
EndSplineSet
Substitution2: "'smcp' Lowercase to Small Capitals lookup 34 subtable" germandbls.sc#0
EndChar

StartChar: ae#0
Encoding: 230 230 170
Width: 816
GlyphClass: 2
Flags: W
AnchorPoint: "Anchor-2" 415 536 basechar 0
AnchorPoint: "Anchor-0" 408 0 basechar 0
LayerCount: 2
Fore
SplineSet
570 546 m 0,0,1
 631 546 631 546 675.5 516 c 128,-1,2
 720 486 720 486 744.5 432 c 128,-1,3
 769 378 769 378 769 306 c 2,4,-1
 769 252 l 1,5,-1
 446 252 l 1,6,7
 448 156 448 156 484.5 110.5 c 128,-1,8
 521 65 521 65 590 65 c 0,9,10
 636 65 636 65 672.5 74.5 c 128,-1,11
 709 84 709 84 746 102 c 1,12,-1
 746 25 l 1,13,14
 708 7 708 7 671.5 -1.5 c 128,-1,15
 635 -10 635 -10 587 -10 c 0,16,17
 454 -10 454 -10 395 103 c 1,18,19
 362 51 362 51 319 20.5 c 128,-1,20
 276 -10 276 -10 203 -10 c 0,21,22
 135 -10 135 -10 89 28.5 c 128,-1,23
 43 67 43 67 43 149 c 0,24,25
 43 313 43 313 272 320 c 2,26,-1
 357 323 l 1,27,-1
 357 357 l 2,28,29
 357 422 357 422 328.5 448 c 128,-1,30
 300 474 300 474 254 474 c 0,31,32
 216 474 216 474 180 462 c 128,-1,33
 144 450 144 450 113 433 c 1,34,-1
 86 499 l 1,35,36
 120 518 120 518 167 531.5 c 128,-1,37
 214 545 214 545 260 545 c 0,38,39
 318 545 318 545 356.5 524.5 c 128,-1,40
 395 504 395 504 415 459 c 1,41,42
 440 500 440 500 479.5 523 c 128,-1,43
 519 546 519 546 570 546 c 0,0,1
569 474 m 0,44,45
 515 474 515 474 483.5 434.5 c 128,-1,46
 452 395 452 395 447 321 c 1,47,-1
 678 321 l 1,48,49
 678 390 678 390 651 432 c 128,-1,50
 624 474 624 474 569 474 c 0,44,45
355 262 m 1,51,-1
 286 259 l 2,52,53
 200 255 200 255 166.5 227 c 128,-1,54
 133 199 133 199 133 148 c 0,55,56
 133 103 133 103 156.5 82 c 128,-1,57
 180 61 180 61 219 61 c 0,58,59
 277 61 277 61 316 98.5 c 128,-1,60
 355 136 355 136 355 214 c 2,61,-1
 355 262 l 1,51,-1
EndSplineSet
Substitution2: "'smcp' Lowercase to Small Capitals lookup 34 subtable" ae.sc#0
EndChar

StartChar: eth#0
Encoding: 240 240 180
Width: 570
GlyphClass: 2
Flags: W
AnchorPoint: "Anchor-2" 285 765 basechar 0
AnchorPoint: "Anchor-0" 285 0 basechar 0
LayerCount: 2
Fore
SplineSet
204 765 m 1,0,1
 234 750 234 750 264.5 732 c 128,-1,2
 295 714 295 714 322 693 c 1,3,-1
 430 760 l 1,4,-1
 466 706 l 1,5,-1
 374 649 l 1,6,7
 438 585 438 585 479 490.5 c 128,-1,8
 520 396 520 396 520 275 c 0,9,10
 520 132 520 132 456.5 61 c 128,-1,11
 393 -10 393 -10 283 -10 c 0,12,13
 215 -10 215 -10 162.5 19.5 c 128,-1,14
 110 49 110 49 80.5 103.5 c 128,-1,15
 51 158 51 158 51 233 c 0,16,17
 51 345 51 345 111 409 c 128,-1,18
 171 473 171 473 272 473 c 0,19,20
 321 473 321 473 358 459 c 128,-1,21
 395 445 395 445 417 415 c 1,22,-1
 421 417 l 1,23,24
 406 474 406 474 375.5 522 c 128,-1,25
 345 570 345 570 306 608 c 1,26,-1
 185 533 l 1,27,-1
 149 588 l 1,28,-1
 252 652 l 1,29,30
 212 681 212 681 169 705 c 1,31,-1
 204 765 l 1,0,1
285 402 m 0,32,33
 208 402 208 402 173.5 357.5 c 128,-1,34
 139 313 139 313 139 230 c 0,35,36
 139 156 139 156 173.5 109 c 128,-1,37
 208 62 208 62 285 62 c 256,38,39
 362 62 362 62 396.5 110.5 c 128,-1,40
 431 159 431 159 431 251 c 0,41,42
 431 313 431 313 395.5 357.5 c 128,-1,43
 360 402 360 402 285 402 c 0,32,33
EndSplineSet
Substitution2: "'smcp' Lowercase to Small Capitals lookup 34 subtable" eth.sc#0
EndChar

StartChar: divide#0
Encoding: 247 247 187
Width: 537
GlyphClass: 2
Flags: W
LayerCount: 2
Fore
SplineSet
267 462 m 256,0,1
 245 462 245 462 229.5 476.5 c 128,-1,2
 214 491 214 491 214 523 c 0,3,4
 214 557 214 557 229.5 570 c 128,-1,5
 245 583 245 583 267 583 c 256,6,7
 289 583 289 583 304.5 570 c 128,-1,8
 320 557 320 557 320 523 c 0,9,10
 320 491 320 491 304.5 476.5 c 128,-1,11
 289 462 289 462 267 462 c 256,0,1
46 317 m 1,12,-1
 46 388 l 1,13,-1
 490 388 l 1,14,-1
 490 317 l 1,15,-1
 46 317 l 1,12,-1
267 121 m 256,16,17
 245 121 245 121 229.5 135.5 c 128,-1,18
 214 150 214 150 214 182 c 0,19,20
 214 216 214 216 229.5 229 c 128,-1,21
 245 242 245 242 267 242 c 256,22,23
 289 242 289 242 304.5 229 c 128,-1,24
 320 216 320 216 320 182 c 0,25,26
 320 150 320 150 304.5 135.5 c 128,-1,27
 289 121 289 121 267 121 c 256,16,17
EndSplineSet
EndChar

StartChar: oslash#0
Encoding: 248 248 188
Width: 570
GlyphClass: 2
Flags: W
AnchorPoint: "Anchor-2" 285 566 basechar 0
AnchorPoint: "Anchor-0" 285 -33 basechar 0
LayerCount: 2
Fore
SplineSet
520 269 m 0,0,1
 520 136 520 136 456 63 c 128,-1,2
 392 -10 392 -10 283 -10 c 0,3,4
 216 -10 216 -10 163 23 c 1,5,-1
 126 -33 l 1,6,-1
 70 6 l 1,7,-1
 112 68 l 1,8,9
 83 104 83 104 67 154 c 128,-1,10
 51 204 51 204 51 269 c 0,11,12
 51 402 51 402 114 474 c 128,-1,13
 177 546 177 546 286 546 c 0,14,15
 354 546 354 546 409 510 c 1,16,-1
 444 566 l 1,17,-1
 501 528 l 1,18,-1
 460 465 l 1,19,20
 488 430 488 430 504 380.5 c 128,-1,21
 520 331 520 331 520 269 c 0,0,1
141 269 m 0,22,23
 141 231 141 231 146 198.5 c 128,-1,24
 151 166 151 166 162 141 c 1,25,-1
 365 447 l 1,26,27
 332 472 332 472 284 472 c 0,28,29
 209 472 209 472 175 418 c 128,-1,30
 141 364 141 364 141 269 c 0,22,23
430 269 m 0,31,32
 430 344 430 344 409 392 c 1,33,-1
 207 86 l 1,34,35
 239 63 239 63 285 63 c 0,36,37
 360 63 360 63 395 118.5 c 128,-1,38
 430 174 430 174 430 269 c 0,31,32
EndSplineSet
Substitution2: "'smcp' Lowercase to Small Capitals lookup 34 subtable" oslash.sc#0
EndChar

StartChar: thorn#0
Encoding: 254 254 194
Width: 579
GlyphClass: 2
Flags: W
AnchorPoint: "Anchor-2" 290 760 basechar 0
AnchorPoint: "Anchor-0" 290 -240 basechar 0
LayerCount: 2
Fore
SplineSet
528 269 m 256,0,1
 528 132 528 132 471.5 61 c 128,-1,2
 415 -10 415 -10 322 -10 c 0,3,4
 264 -10 264 -10 226 13 c 128,-1,5
 188 36 188 36 166 68 c 1,6,-1
 160 68 l 1,7,8
 161 60 161 60 162.5 44 c 128,-1,9
 164 28 164 28 165 11 c 128,-1,10
 166 -6 166 -6 166 -16 c 2,11,-1
 166 -240 l 1,12,-1
 79 -240 l 1,13,-1
 79 760 l 1,14,-1
 166 760 l 1,15,-1
 166 536 l 2,16,17
 166 522 166 522 165 499.5 c 128,-1,18
 164 477 164 477 163 464 c 1,19,-1
 167 464 l 1,20,21
 190 498 190 498 226 522 c 128,-1,22
 262 546 262 546 322 546 c 0,23,24
 415 546 415 546 471.5 476 c 128,-1,25
 528 406 528 406 528 269 c 256,0,1
438 270 m 0,26,27
 438 371 438 371 406 421.5 c 128,-1,28
 374 472 374 472 306 472 c 0,29,30
 230 472 230 472 198 426 c 128,-1,31
 166 380 166 380 166 288 c 2,32,-1
 166 269 l 2,33,34
 166 170 166 170 196 116.5 c 128,-1,35
 226 63 226 63 307 63 c 0,36,37
 374 63 374 63 406 116.5 c 128,-1,38
 438 170 438 170 438 270 c 0,26,27
EndSplineSet
Substitution2: "'smcp' Lowercase to Small Capitals lookup 34 subtable" thorn.sc#0
EndChar

StartChar: dcroat#0
Encoding: 273 273 213
Width: 582
GlyphClass: 2
Flags: W
AnchorPoint: "Anchor-2" 292 760 basechar 0
AnchorPoint: "Anchor-0" 292 0 basechar 0
LayerCount: 2
Fore
SplineSet
257 -10 m 0,0,1
 163 -10 163 -10 107 59 c 128,-1,2
 51 128 51 128 51 265 c 0,3,4
 51 405 51 405 108 474 c 128,-1,5
 165 543 165 543 257 543 c 0,6,7
 316 543 316 543 353 520 c 128,-1,8
 390 497 390 497 413 464 c 1,9,-1
 419 464 l 1,10,11
 417 477 417 477 415 502.5 c 128,-1,12
 413 528 413 528 413 544 c 2,13,-1
 413 605 l 1,14,-1
 217 605 l 1,15,-1
 217 671 l 1,16,-1
 413 671 l 1,17,-1
 413 760 l 1,18,-1
 500 760 l 1,19,-1
 500 671 l 1,20,-1
 571 671 l 1,21,-1
 571 605 l 1,22,-1
 500 605 l 1,23,-1
 500 0 l 1,24,-1
 429 0 l 1,25,-1
 416 72 l 1,26,-1
 412 72 l 1,27,28
 390 38 390 38 353 14 c 128,-1,29
 316 -10 316 -10 257 -10 c 0,0,1
274 63 m 0,30,31
 351 63 351 63 382.5 109 c 128,-1,32
 414 155 414 155 414 248 c 2,33,-1
 414 265 l 2,34,35
 414 366 414 366 384 418 c 128,-1,36
 354 470 354 470 272 470 c 0,37,38
 206 470 206 470 174 415 c 128,-1,39
 142 360 142 360 142 264 c 256,40,41
 142 168 142 168 174 115.5 c 128,-1,42
 206 63 206 63 274 63 c 0,30,31
EndSplineSet
Substitution2: "'smcp' Lowercase to Small Capitals lookup 34 subtable" dcroat.sc#0
EndChar

StartChar: eogonek#0
Encoding: 281 281 221
Width: 532
GlyphClass: 2
Flags: W
AnchorPoint: "Anchor-3" 513 536 basechar 0
AnchorPoint: "Anchor-2" 269 536 basechar 0
AnchorPoint: "Anchor-0" 283 -220 basechar 0
LayerCount: 2
Fore
SplineSet
359 -116 m 0,0,1
 359 -161 359 -161 404 -161 c 0,2,3
 420 -161 420 -161 432 -158.5 c 128,-1,4
 444 -156 444 -156 452 -155 c 1,5,-1
 452 -211 l 1,6,7
 438 -215 438 -215 424 -217.5 c 128,-1,8
 410 -220 410 -220 390 -220 c 0,9,10
 337 -220 337 -220 312 -195 c 128,-1,11
 287 -170 287 -170 287 -126 c 0,12,13
 287 -93 287 -93 307 -61.5 c 128,-1,14
 327 -30 327 -30 352 -7 c 1,15,16
 326 -10 326 -10 295 -10 c 0,17,18
 222 -10 222 -10 167.5 21 c 128,-1,19
 113 52 113 52 82 113 c 128,-1,20
 51 174 51 174 51 264 c 0,21,22
 51 352 51 352 79 415 c 128,-1,23
 107 478 107 478 157.5 512 c 128,-1,24
 208 546 208 546 275 546 c 0,25,26
 340 546 340 546 387 516 c 128,-1,27
 434 486 434 486 459.5 431.5 c 128,-1,28
 485 377 485 377 485 304 c 2,29,-1
 485 251 l 1,30,-1
 141 251 l 1,31,32
 143 160 143 160 184 112.5 c 128,-1,33
 225 65 225 65 299 65 c 0,34,35
 347 65 347 65 384.5 74.5 c 128,-1,36
 422 84 422 84 462 102 c 1,37,-1
 462 25 l 1,38,39
 458 23 458 23 455 22 c 0,40,41
 397 -25 397 -25 378 -55.5 c 128,-1,42
 359 -86 359 -86 359 -116 c 0,0,1
275 474 m 0,43,44
 216 474 216 474 182.5 433.5 c 128,-1,45
 149 393 149 393 143 321 c 1,46,-1
 395 321 l 1,47,48
 394 389 394 389 365 431.5 c 128,-1,49
 336 474 336 474 275 474 c 0,43,44
EndSplineSet
Substitution2: "'smcp' Lowercase to Small Capitals lookup 34 subtable" eogonek.sc#0
Substitution2: "'locl' Localized Forms in Latin lookup 9 subtable" eogonek.loclNAV#0
Ligature2: "'ccmp' Glyph Composition/Decomposition lookup 6 subtable" e#0 uni0328#0
EndChar

StartChar: Hbar#0
Encoding: 294 294 234
Width: 698
GlyphClass: 2
Flags: W
AnchorPoint: "Anchor-2" 350 714 basechar 0
AnchorPoint: "Anchor-0" 350 0 basechar 0
LayerCount: 2
Fore
SplineSet
91 0 m 1,0,-1
 91 523 l 1,1,-1
 0 523 l 1,2,-1
 0 595 l 1,3,-1
 91 595 l 1,4,-1
 91 714 l 1,5,-1
 180 714 l 1,6,-1
 180 595 l 1,7,-1
 518 595 l 1,8,-1
 518 714 l 1,9,-1
 607 714 l 1,10,-1
 607 595 l 1,11,-1
 697 595 l 1,12,-1
 697 523 l 1,13,-1
 607 523 l 1,14,-1
 607 0 l 1,15,-1
 518 0 l 1,16,-1
 518 333 l 1,17,-1
 180 333 l 1,18,-1
 180 0 l 1,19,-1
 91 0 l 1,0,-1
180 412 m 1,20,-1
 518 412 l 1,21,-1
 518 523 l 1,22,-1
 180 523 l 1,23,-1
 180 412 l 1,20,-1
EndSplineSet
Substitution2: "'c2sc' Capitals to Small Capitals lookup 33 subtable" hbar.sc#0
EndChar

StartChar: hbar#0
Encoding: 295 295 235
Width: 584
GlyphClass: 2
Flags: W
AnchorPoint: "Anchor-2" 124 760 basechar 0
AnchorPoint: "Anchor-0" 292 0 basechar 0
LayerCount: 2
Fore
SplineSet
167 760 m 1,0,-1
 167 670 l 1,1,-1
 362 670 l 1,2,-1
 362 604 l 1,3,-1
 167 604 l 1,4,-1
 167 517 l 2,5,6
 167 498 167 498 165.5 478.5 c 128,-1,7
 164 459 164 459 162 443 c 1,8,-1
 168 443 l 1,9,10
 192 484 192 484 234 505 c 128,-1,11
 276 526 276 526 325 526 c 0,12,13
 415 526 415 526 461.5 479 c 128,-1,14
 508 432 508 432 508 329 c 2,15,-1
 508 0 l 1,16,-1
 422 0 l 1,17,-1
 422 323 l 2,18,19
 422 452 422 452 311 452 c 0,20,21
 228 452 228 452 197.5 402 c 128,-1,22
 167 352 167 352 167 258 c 2,23,-1
 167 0 l 1,24,-1
 79 0 l 1,25,-1
 79 604 l 1,26,-1
 8 604 l 1,27,-1
 8 670 l 1,28,-1
 79 670 l 1,29,-1
 79 760 l 1,30,-1
 167 760 l 1,0,-1
EndSplineSet
Substitution2: "'smcp' Lowercase to Small Capitals lookup 34 subtable" hbar.sc#0
EndChar

StartChar: dotlessi#0
Encoding: 305 305 245
Width: 245
GlyphClass: 2
Flags: W
AnchorPoint: "Anchor-2" 123 536 basechar 0
AnchorPoint: "Anchor-0" 126 0 basechar 0
LayerCount: 2
Fore
SplineSet
166 0 m 1,0,-1
 79 0 l 1,1,-1
 79 536 l 1,2,-1
 166 536 l 1,3,-1
 166 0 l 1,0,-1
EndSplineSet
EndChar

StartChar: kgreenlandic#0
Encoding: 312 312 252
Width: 508
GlyphClass: 2
Flags: W
AnchorPoint: "Anchor-2" 254 536 basechar 0
AnchorPoint: "Anchor-0" 254 0 basechar 0
LayerCount: 2
Fore
SplineSet
485 536 m 1,0,-1
 293 299 l 1,1,-1
 500 0 l 1,2,-1
 397 0 l 1,3,-1
 233 242 l 1,4,-1
 170 188 l 1,5,-1
 170 0 l 1,6,-1
 79 0 l 1,7,-1
 79 536 l 1,8,-1
 170 536 l 1,9,-1
 170 397 l 2,10,11
 170 357 170 357 168.5 319 c 128,-1,12
 167 281 167 281 165 261 c 1,13,-1
 167 261 l 1,14,15
 176 274 176 274 186.5 287.5 c 128,-1,16
 197 301 197 301 206 312 c 2,17,-1
 382 536 l 1,18,-1
 485 536 l 1,0,-1
EndSplineSet
EndChar

StartChar: Lslash#0
Encoding: 321 321 261
Width: 495
GlyphClass: 2
Flags: W
AnchorPoint: "Anchor-2" 133 714 basechar 0
AnchorPoint: "Anchor-0" 282 0 basechar 0
LayerCount: 2
Fore
SplineSet
90 0 m 1,0,-1
 90 247 l 1,1,-1
 45 219 l 1,2,-1
 11 279 l 1,3,-1
 90 329 l 1,4,-1
 90 714 l 1,5,-1
 179 714 l 1,6,-1
 179 382 l 1,7,-1
 303 463 l 1,8,-1
 339 400 l 1,9,-1
 179 300 l 1,10,-1
 179 80 l 1,11,-1
 471 80 l 1,12,-1
 471 0 l 1,13,-1
 90 0 l 1,0,-1
EndSplineSet
Substitution2: "'c2sc' Capitals to Small Capitals lookup 33 subtable" lslash.sc#0
EndChar

StartChar: lslash#0
Encoding: 322 322 262
Width: 245
GlyphClass: 2
Flags: W
AnchorPoint: "Anchor-2" 123 760 basechar 0
AnchorPoint: "Anchor-0" 123 0 basechar 0
LayerCount: 2
Fore
SplineSet
73 0 m 1,0,-1
 73 285 l 1,1,-1
 26 253 l 1,2,-1
 -9 312 l 1,3,-1
 73 368 l 1,4,-1
 73 760 l 1,5,-1
 160 760 l 1,6,-1
 160 425 l 1,7,-1
 218 469 l 1,8,-1
 254 410 l 1,9,-1
 160 342 l 1,10,-1
 160 0 l 1,11,-1
 73 0 l 1,0,-1
EndSplineSet
Substitution2: "'smcp' Lowercase to Small Capitals lookup 34 subtable" lslash.sc#0
EndChar

StartChar: Eng#0
Encoding: 330 330 270
Width: 719
GlyphClass: 2
Flags: W
AnchorPoint: "Anchor-2" 359 714 basechar 0
AnchorPoint: "Anchor-0" 359 -190 basechar 0
LayerCount: 2
Fore
SplineSet
448 -190 m 0,0,1
 425 -190 425 -190 406.5 -186.5 c 128,-1,2
 388 -183 388 -183 375 -177 c 1,3,-1
 375 -101 l 1,4,5
 390 -106 390 -106 408.5 -108.5 c 128,-1,6
 427 -111 427 -111 447 -111 c 0,7,8
 472 -111 472 -111 494 -101.5 c 128,-1,9
 516 -92 516 -92 530 -68 c 128,-1,10
 544 -44 544 -44 545 0 c 1,11,-1
 169 593 l 1,12,-1
 165 593 l 1,13,14
 166 574 166 574 168 539 c 128,-1,15
 170 504 170 504 171.5 464 c 128,-1,16
 173 424 173 424 173 387 c 2,17,-1
 173 0 l 1,18,-1
 91 0 l 1,19,-1
 91 714 l 1,20,-1
 195 714 l 1,21,-1
 548 142 l 1,22,-1
 552 142 l 1,23,24
 549 174 549 174 547 230 c 128,-1,25
 545 286 545 286 545 342 c 2,26,-1
 545 714 l 1,27,-1
 628 714 l 1,28,-1
 628 6 l 2,29,30
 628 -94 628 -94 579 -142 c 128,-1,31
 530 -190 530 -190 448 -190 c 0,0,1
EndSplineSet
Substitution2: "'c2sc' Capitals to Small Capitals lookup 33 subtable" eng.sc#0
AlternateSubs2: "'aalt' Access All Alternates lookup 1 subtable" Eng.alt1#0 Eng.alt2#0 Eng.alt3#0
EndChar

StartChar: eng#0
Encoding: 331 331 271
Width: 584
GlyphClass: 2
Flags: W
AnchorPoint: "Anchor-2" 292 536 basechar 0
AnchorPoint: "Anchor-0" 292 -240 basechar 0
LayerCount: 2
Fore
SplineSet
371 -240 m 0,0,1
 348 -240 348 -240 331.5 -236.5 c 128,-1,2
 315 -233 315 -233 303 -228 c 1,3,-1
 303 -157 l 1,4,5
 316 -162 316 -162 329 -164.5 c 128,-1,6
 342 -167 342 -167 359 -167 c 0,7,8
 385 -167 385 -167 403 -149.5 c 128,-1,9
 421 -132 421 -132 421 -83 c 2,10,-1
 421 344 l 2,11,12
 421 472 421 472 312 472 c 0,13,14
 230 472 230 472 198 422.5 c 128,-1,15
 166 373 166 373 166 279 c 2,16,-1
 166 0 l 1,17,-1
 79 0 l 1,18,-1
 79 536 l 1,19,-1
 149 536 l 1,20,-1
 162 463 l 1,21,-1
 167 463 l 1,22,23
 192 505 192 505 234 525.5 c 128,-1,24
 276 546 276 546 324 546 c 0,25,26
 416 546 416 546 462.5 499.5 c 128,-1,27
 509 453 509 453 509 350 c 2,28,-1
 509 -80 l 2,29,30
 509 -155 509 -155 475.5 -197.5 c 128,-1,31
 442 -240 442 -240 371 -240 c 0,0,1
EndSplineSet
Substitution2: "'smcp' Lowercase to Small Capitals lookup 34 subtable" eng.sc#0
EndChar

StartChar: OE#0
Encoding: 338 338 278
Width: 875
GlyphClass: 2
Flags: W
AnchorPoint: "Anchor-2" 438 725 basechar 0
AnchorPoint: "Anchor-0" 438 0 basechar 0
LayerCount: 2
Fore
SplineSet
362 725 m 0,0,1
 410 725 410 725 454 714 c 1,2,-1
 819 714 l 1,3,-1
 819 635 l 1,4,-1
 550 635 l 1,5,-1
 550 412 l 1,6,-1
 801 412 l 1,7,-1
 801 334 l 1,8,-1
 550 334 l 1,9,-1
 550 79 l 1,10,-1
 819 79 l 1,11,-1
 819 0 l 1,12,-1
 459 0 l 1,13,14
 437 -4 437 -4 413.5 -7 c 128,-1,15
 390 -10 390 -10 366 -10 c 0,16,17
 262 -10 262 -10 193 36 c 128,-1,18
 124 82 124 82 90.5 165 c 128,-1,19
 57 248 57 248 57 359 c 256,20,21
 57 470 57 470 90.5 552 c 128,-1,22
 124 634 124 634 191.5 679.5 c 128,-1,23
 259 725 259 725 362 725 c 0,0,1
369 646 m 0,24,25
 256 646 256 646 203 569.5 c 128,-1,26
 150 493 150 493 150 358 c 256,27,28
 150 223 150 223 203 145.5 c 128,-1,29
 256 68 256 68 368 68 c 0,30,31
 423 68 423 68 462 85 c 1,32,-1
 462 630 l 1,33,34
 442 638 442 638 418.5 642 c 128,-1,35
 395 646 395 646 369 646 c 0,24,25
EndSplineSet
Substitution2: "'c2sc' Capitals to Small Capitals lookup 33 subtable" oe.sc#0
EndChar

StartChar: oe#0
Encoding: 339 339 279
Width: 891
GlyphClass: 2
Flags: W
AnchorPoint: "Anchor-2" 446 536 basechar 0
AnchorPoint: "Anchor-0" 446 0 basechar 0
LayerCount: 2
Fore
SplineSet
637 545 m 0,0,1
 733 545 733 545 788 479.5 c 128,-1,2
 843 414 843 414 843 304 c 2,3,-1
 843 251 l 1,4,-1
 508 251 l 1,5,6
 510 155 510 155 548.5 110 c 128,-1,7
 587 65 587 65 659 65 c 0,8,9
 708 65 708 65 745 74.5 c 128,-1,10
 782 84 782 84 820 102 c 1,11,-1
 820 25 l 1,12,13
 782 7 782 7 745 -1.5 c 128,-1,14
 708 -10 708 -10 657 -10 c 0,15,16
 593 -10 593 -10 544.5 18 c 128,-1,17
 496 46 496 46 466 101 c 1,18,19
 437 46 437 46 388.5 18 c 128,-1,20
 340 -10 340 -10 279 -10 c 0,21,22
 212 -10 212 -10 160.5 22.5 c 128,-1,23
 109 55 109 55 79.5 117.5 c 128,-1,24
 50 180 50 180 50 269 c 0,25,26
 50 401 50 401 112 473 c 128,-1,27
 174 545 174 545 282 545 c 0,28,29
 340 545 340 545 387 517 c 128,-1,30
 434 489 434 489 463 435 c 1,31,32
 491 488 491 488 535 516.5 c 128,-1,33
 579 545 579 545 637 545 c 0,0,1
636 473 m 0,34,35
 580 473 580 473 547.5 434 c 128,-1,36
 515 395 515 395 510 321 c 1,37,-1
 752 321 l 1,38,39
 752 390 752 390 724.5 431.5 c 128,-1,40
 697 473 697 473 636 473 c 0,34,35
278 472 m 256,41,42
 205 472 205 472 173 421 c 128,-1,43
 141 370 141 370 141 269 c 256,44,45
 141 168 141 168 173.5 115.5 c 128,-1,46
 206 63 206 63 280 63 c 0,47,48
 352 63 352 63 385 114 c 128,-1,49
 418 165 418 165 418 265 c 0,50,51
 418 369 418 369 384.5 420.5 c 128,-1,52
 351 472 351 472 278 472 c 256,41,42
EndSplineSet
Substitution2: "'smcp' Lowercase to Small Capitals lookup 34 subtable" oe.sc#0
EndChar

StartChar: Tbar#0
Encoding: 358 358 298
Width: 524
GlyphClass: 2
Flags: W
AnchorPoint: "Anchor-2" 262 714 basechar 0
AnchorPoint: "Anchor-0" 262 0 basechar 0
LayerCount: 2
Fore
SplineSet
217 0 m 1,0,-1
 217 325 l 1,1,-1
 79 325 l 1,2,-1
 79 399 l 1,3,-1
 217 399 l 1,4,-1
 217 634 l 1,5,-1
 10 634 l 1,6,-1
 10 714 l 1,7,-1
 513 714 l 1,8,-1
 513 634 l 1,9,-1
 306 634 l 1,10,-1
 306 399 l 1,11,-1
 443 399 l 1,12,-1
 443 325 l 1,13,-1
 306 325 l 1,14,-1
 306 0 l 1,15,-1
 217 0 l 1,0,-1
EndSplineSet
Substitution2: "'c2sc' Capitals to Small Capitals lookup 33 subtable" tbar.sc#0
EndChar

StartChar: tbar#0
Encoding: 359 359 299
Width: 361
GlyphClass: 2
Flags: W
AnchorPoint: "Anchor-3" 320 659 basechar 0
AnchorPoint: "Anchor-2" 148 659 basechar 0
AnchorPoint: "Anchor-1" 173 268 basechar 0
AnchorPoint: "Anchor-0" 204 0 basechar 0
LayerCount: 2
Fore
SplineSet
252 62 m 0,0,1
 271 62 271 62 291 65 c 128,-1,2
 311 68 311 68 324 73 c 1,3,-1
 324 6 l 1,4,5
 310 -1 310 -1 284.5 -5.5 c 128,-1,6
 259 -10 259 -10 236 -10 c 0,7,8
 196 -10 196 -10 162 4.5 c 128,-1,9
 128 19 128 19 107.5 55 c 128,-1,10
 87 91 87 91 87 156 c 2,11,-1
 87 280 l 1,12,-1
 24 280 l 1,13,-1
 24 346 l 1,14,-1
 87 346 l 1,15,-1
 87 468 l 1,16,-1
 16 468 l 1,17,-1
 16 510 l 1,18,-1
 89 545 l 1,19,-1
 122 659 l 1,20,-1
 174 659 l 1,21,-1
 174 536 l 1,22,-1
 320 536 l 1,23,-1
 320 468 l 1,24,-1
 174 468 l 1,25,-1
 174 346 l 1,26,-1
 326 346 l 1,27,-1
 326 280 l 1,28,-1
 174 280 l 1,29,-1
 174 158 l 2,30,31
 174 109 174 109 196 85.5 c 128,-1,32
 218 62 218 62 252 62 c 0,0,1
EndSplineSet
Substitution2: "'smcp' Lowercase to Small Capitals lookup 34 subtable" tbar.sc#0
EndChar

StartChar: Uogonek#0
Encoding: 370 370 310
Width: 731
GlyphClass: 2
Flags: W
AnchorPoint: "Anchor-3" 670 714 basechar 0
AnchorPoint: "Anchor-2" 345 714 basechar 0
AnchorPoint: "Anchor-0" 343 -220 basechar 0
LayerCount: 2
Fore
SplineSet
435 -107 m 0,0,1
 435 -136 435 -136 447 -148.5 c 128,-1,2
 459 -161 459 -161 480 -161 c 0,3,4
 496 -161 496 -161 508 -158.5 c 128,-1,5
 520 -156 520 -156 528 -155 c 1,6,-1
 528 -211 l 1,7,8
 514 -215 514 -215 500 -217.5 c 128,-1,9
 486 -220 486 -220 466 -220 c 0,10,11
 413 -220 413 -220 388 -194 c 128,-1,12
 363 -168 363 -168 363 -117 c 0,13,14
 363 -87 363 -87 378.5 -57 c 128,-1,15
 394 -27 394 -27 415 -3 c 1,16,17
 380 -10 380 -10 341 -10 c 0,18,19
 215 -10 215 -10 149.5 62.5 c 128,-1,20
 84 135 84 135 84 254 c 2,21,-1
 84 714 l 1,22,-1
 173 714 l 1,23,-1
 173 251 l 2,24,25
 173 164 173 164 216 116 c 128,-1,26
 259 68 259 68 346 68 c 0,27,28
 435 68 435 68 475 119.5 c 128,-1,29
 515 171 515 171 515 252 c 2,30,-1
 515 714 l 1,31,-1
 604 714 l 1,32,-1
 604 252 l 2,33,34
 604 190 604 190 584 137.5 c 128,-1,35
 564 85 564 85 522 49 c 1,36,37
 478 -2 478 -2 456.5 -37 c 128,-1,38
 435 -72 435 -72 435 -107 c 0,0,1
EndSplineSet
Substitution2: "'c2sc' Capitals to Small Capitals lookup 33 subtable" uogonek.sc#0
Substitution2: "'locl' Localized Forms in Latin lookup 9 subtable" Uogonek.loclNAV#0
Ligature2: "'ccmp' Glyph Composition/Decomposition lookup 6 subtable" U#0 uni0328#0
EndChar

StartChar: longs#0
Encoding: 383 383 323
Width: 310
GlyphClass: 2
Flags: W
AnchorPoint: "Anchor-2" 211 765 basechar 0
AnchorPoint: "Anchor-0" 125 0 basechar 0
LayerCount: 2
Fore
SplineSet
247 692 m 0,0,1
 209 692 209 692 187.5 666 c 128,-1,2
 166 640 166 640 166 577 c 2,3,-1
 166 0 l 1,4,-1
 79 0 l 1,5,-1
 79 577 l 2,6,7
 79 680 79 680 124.5 722.5 c 128,-1,8
 170 765 170 765 246 765 c 0,9,10
 277 765 277 765 300.5 759.5 c 128,-1,11
 324 754 324 754 343 746 c 1,12,-1
 321 677 l 1,13,14
 306 682 306 682 286 687 c 128,-1,15
 266 692 266 692 247 692 c 0,0,1
EndSplineSet
EndChar

StartChar: uni0180#0
Encoding: 384 384 324
Width: 579
GlyphClass: 2
Flags: W
AnchorPoint: "Anchor-2" 290 760 basechar 0
AnchorPoint: "Anchor-0" 290 0 basechar 0
LayerCount: 2
Fore
SplineSet
322 -10 m 0,0,1
 263 -10 263 -10 225.5 13 c 128,-1,2
 188 36 188 36 167 68 c 1,3,-1
 160 68 l 1,4,-1
 142 0 l 1,5,-1
 79 0 l 1,6,-1
 79 605 l 1,7,-1
 8 605 l 1,8,-1
 8 671 l 1,9,-1
 79 671 l 1,10,-1
 79 760 l 1,11,-1
 167 760 l 1,12,-1
 167 671 l 1,13,-1
 363 671 l 1,14,-1
 363 605 l 1,15,-1
 167 605 l 1,16,-1
 167 575 l 2,17,18
 167 541 167 541 165.5 511.5 c 128,-1,19
 164 482 164 482 162 465 c 1,20,-1
 167 465 l 1,21,22
 188 499 188 499 225.5 522 c 128,-1,23
 263 545 263 545 322 545 c 0,24,25
 415 545 415 545 471.5 475.5 c 128,-1,26
 528 406 528 406 528 268 c 256,27,28
 528 130 528 130 471 60 c 128,-1,29
 414 -10 414 -10 322 -10 c 0,0,1
307 63 m 0,30,31
 373 63 373 63 406 116 c 128,-1,32
 439 169 439 169 439 269 c 0,33,34
 439 472 439 472 305 472 c 0,35,36
 228 472 228 472 197.5 423 c 128,-1,37
 167 374 167 374 167 271 c 2,38,-1
 167 267 l 2,39,40
 167 168 167 168 196.5 115.5 c 128,-1,41
 226 63 226 63 307 63 c 0,30,31
EndSplineSet
EndChar

StartChar: uni0181#0
Encoding: 385 385 325
Width: 691
GlyphClass: 2
Flags: W
AnchorPoint: "Anchor-2" 345 714 basechar 0
AnchorPoint: "Anchor-0" 345 0 basechar 0
LayerCount: 2
Fore
SplineSet
169 0 m 1,0,-1
 169 637 l 1,1,-1
 144 637 l 2,2,3
 115 637 115 637 101 623.5 c 128,-1,4
 87 610 87 610 87 587 c 0,5,6
 87 570 87 570 90.5 555 c 128,-1,7
 94 540 94 540 96 533 c 1,8,-1
 19 533 l 1,9,10
 15 544 15 544 12 560 c 128,-1,11
 9 576 9 576 9 588 c 0,12,13
 9 652 9 652 42 683 c 128,-1,14
 75 714 75 714 145 714 c 2,15,-1
 362 714 l 2,16,17
 488 714 488 714 553 674 c 128,-1,18
 618 634 618 634 618 537 c 0,19,20
 618 474 618 474 585.5 432.5 c 128,-1,21
 553 391 553 391 492 379 c 1,22,-1
 492 374 l 1,23,24
 534 366 534 366 567.5 347 c 128,-1,25
 601 328 601 328 620.5 293 c 128,-1,26
 640 258 640 258 640 203 c 0,27,28
 640 106 640 106 577 53 c 128,-1,29
 514 0 514 0 406 0 c 2,30,-1
 169 0 l 1,0,-1
258 410 m 1,31,-1
 379 410 l 2,32,33
 463 410 463 410 494.5 439.5 c 128,-1,34
 526 469 526 469 526 527 c 0,35,36
 526 586 526 586 487.5 611.5 c 128,-1,37
 449 637 449 637 366 637 c 2,38,-1
 258 637 l 1,39,-1
 258 410 l 1,31,-1
258 76 m 1,40,-1
 390 76 l 2,41,42
 477 76 477 76 511 113 c 128,-1,43
 545 150 545 150 545 210 c 0,44,45
 545 266 545 266 509.5 300.5 c 128,-1,46
 474 335 474 335 383 335 c 2,47,-1
 258 335 l 1,48,-1
 258 76 l 1,40,-1
EndSplineSet
EndChar

StartChar: uni0183#0
Encoding: 387 387 327
Width: 579
GlyphClass: 2
Flags: W
AnchorPoint: "Anchor-2" 290 760 basechar 0
AnchorPoint: "Anchor-0" 290 0 basechar 0
LayerCount: 2
Fore
SplineSet
321 -10 m 0,0,1
 262 -10 262 -10 224.5 13 c 128,-1,2
 187 36 187 36 166 68 c 1,3,-1
 159 68 l 1,4,-1
 142 0 l 1,5,-1
 79 0 l 1,6,-1
 79 760 l 1,7,-1
 477 760 l 1,8,-1
 477 686 l 1,9,-1
 166 686 l 1,10,-1
 166 575 l 2,11,12
 166 541 166 541 164 511.5 c 128,-1,13
 162 482 162 482 161 465 c 1,14,-1
 166 465 l 1,15,16
 187 499 187 499 224.5 522 c 128,-1,17
 262 545 262 545 321 545 c 0,18,19
 415 545 415 545 471.5 475.5 c 128,-1,20
 528 406 528 406 528 268 c 256,21,22
 528 130 528 130 471 60 c 128,-1,23
 414 -10 414 -10 321 -10 c 0,0,1
307 63 m 0,24,25
 372 63 372 63 405 116 c 128,-1,26
 438 169 438 169 438 269 c 0,27,28
 438 472 438 472 305 472 c 0,29,30
 227 472 227 472 196.5 423 c 128,-1,31
 166 374 166 374 166 271 c 2,32,-1
 166 267 l 2,33,34
 166 168 166 168 195.5 115.5 c 128,-1,35
 225 63 225 63 307 63 c 0,24,25
EndSplineSet
EndChar

StartChar: uni0184#0
Encoding: 388 388 328
Width: 599
GlyphClass: 2
Flags: W
AnchorPoint: "Anchor-2" 300 714 basechar 0
AnchorPoint: "Anchor-0" 300 0 basechar 0
LayerCount: 2
Fore
SplineSet
321 -10 m 0,0,1
 234 -10 234 -10 182 18 c 128,-1,2
 130 46 130 46 107 95.5 c 128,-1,3
 84 145 84 145 84 210 c 2,4,-1
 84 714 l 1,5,-1
 173 714 l 1,6,-1
 173 412 l 1,7,-1
 296 412 l 2,8,9
 390 412 390 412 445.5 384 c 128,-1,10
 501 356 501 356 526 309 c 128,-1,11
 551 262 551 262 551 205 c 0,12,13
 551 110 551 110 494 50 c 128,-1,14
 437 -10 437 -10 321 -10 c 0,0,1
320 67 m 0,15,16
 393 67 393 67 426 102.5 c 128,-1,17
 459 138 459 138 459 205 c 0,18,19
 459 274 459 274 414.5 304 c 128,-1,20
 370 334 370 334 285 334 c 2,21,-1
 173 334 l 1,22,-1
 173 210 l 2,23,24
 173 132 173 132 208 99.5 c 128,-1,25
 243 67 243 67 320 67 c 0,15,16
EndSplineSet
EndChar

StartChar: uni0185#0
Encoding: 389 389 329
Width: 577
GlyphClass: 2
Flags: W
AnchorPoint: "Anchor-2" 289 760 basechar 0
AnchorPoint: "Anchor-0" 289 0 basechar 0
LayerCount: 2
Fore
SplineSet
304 -10 m 0,0,1
 200 -10 200 -10 138.5 59.5 c 128,-1,2
 77 129 77 129 77 267 c 2,3,-1
 77 760 l 1,4,-1
 164 760 l 1,5,-1
 164 575 l 2,6,7
 164 541 164 541 162 511.5 c 128,-1,8
 160 482 160 482 159 465 c 1,9,-1
 164 465 l 1,10,11
 185 499 185 499 223 522 c 128,-1,12
 261 545 261 545 320 545 c 0,13,14
 413 545 413 545 469.5 475.5 c 128,-1,15
 526 406 526 406 526 268 c 256,16,17
 526 130 526 130 466 60 c 128,-1,18
 406 -10 406 -10 304 -10 c 0,0,1
305 63 m 0,19,20
 371 63 371 63 403.5 116 c 128,-1,21
 436 169 436 169 436 269 c 0,22,23
 436 472 436 472 303 472 c 0,24,25
 225 472 225 472 194.5 423 c 128,-1,26
 164 374 164 374 164 271 c 2,27,-1
 164 265 l 2,28,29
 164 169 164 169 201 116 c 128,-1,30
 238 63 238 63 305 63 c 0,19,20
EndSplineSet
EndChar

StartChar: uni0186#0
Encoding: 390 390 330
Width: 594
GlyphClass: 2
Flags: W
AnchorPoint: "Anchor-2" 232 714 basechar 0
AnchorPoint: "Anchor-0" 232 0 basechar 0
LayerCount: 2
Fore
SplineSet
228 -10 m 0,0,1
 172 -10 172 -10 132 -3 c 128,-1,2
 92 4 92 4 55 19 c 1,3,-1
 55 97 l 1,4,5
 94 85 94 85 133 77 c 128,-1,6
 172 69 172 69 215 69 c 0,7,8
 322 69 322 69 382.5 146 c 128,-1,9
 443 223 443 223 443 357 c 0,10,11
 443 490 443 490 385.5 567.5 c 128,-1,12
 328 645 328 645 216 645 c 0,13,14
 171 645 171 645 133 633 c 128,-1,15
 95 621 95 621 64 606 c 1,16,-1
 29 682 l 1,17,18
 67 702 67 702 117.5 713 c 128,-1,19
 168 724 168 724 229 724 c 0,20,21
 332 724 332 724 400 679 c 128,-1,22
 468 634 468 634 502.5 551 c 128,-1,23
 537 468 537 468 537 356 c 0,24,25
 537 248 537 248 500.5 165.5 c 128,-1,26
 464 83 464 83 395 36.5 c 128,-1,27
 326 -10 326 -10 228 -10 c 0,0,1
EndSplineSet
EndChar

StartChar: uni0187#0
Encoding: 391 391 331
Width: 594
GlyphClass: 2
Flags: W
AnchorPoint: "Anchor-2" 357 858 basechar 0
AnchorPoint: "Anchor-0" 349 0 basechar 0
LayerCount: 2
Fore
SplineSet
598 858 m 0,0,1
 616 858 616 858 630.5 854 c 128,-1,2
 645 850 645 850 655 845 c 1,3,-1
 655 773 l 1,4,5
 648 776 648 776 634.5 779.5 c 128,-1,6
 621 783 621 783 606 783 c 0,7,8
 561 783 561 783 561 735 c 2,9,-1
 561 684 l 1,10,-1
 527 606 l 1,11,12
 496 621 496 621 459 633 c 128,-1,13
 422 645 422 645 378 645 c 0,14,15
 272 645 272 645 211.5 568 c 128,-1,16
 151 491 151 491 151 357 c 0,17,18
 151 224 151 224 207.5 146.5 c 128,-1,19
 264 69 264 69 377 69 c 0,20,21
 420 69 420 69 460 77 c 128,-1,22
 500 85 500 85 539 97 c 1,23,-1
 539 19 l 1,24,25
 501 4 501 4 460.5 -3 c 128,-1,26
 420 -10 420 -10 365 -10 c 0,27,28
 262 -10 262 -10 193.5 35 c 128,-1,29
 125 80 125 80 91 163 c 128,-1,30
 57 246 57 246 57 358 c 0,31,32
 57 466 57 466 94 548.5 c 128,-1,33
 131 631 131 631 203 677.5 c 128,-1,34
 275 724 275 724 379 724 c 0,35,36
 434 724 434 724 487 710 c 1,37,-1
 487 724 l 2,38,39
 487 788 487 788 513.5 823 c 128,-1,40
 540 858 540 858 598 858 c 0,0,1
EndSplineSet
EndChar

StartChar: uni0188#0
Encoding: 392 392 332
Width: 473
GlyphClass: 2
Flags: W
AnchorPoint: "Anchor-2" 267 765 basechar 0
AnchorPoint: "Anchor-0" 265 0 basechar 0
LayerCount: 2
Fore
SplineSet
282 -10 m 0,0,1
 214 -10 214 -10 162 19 c 128,-1,2
 110 48 110 48 80.5 109 c 128,-1,3
 51 170 51 170 51 265 c 0,4,5
 51 364 51 364 82 426 c 128,-1,6
 113 488 113 488 166.5 517 c 128,-1,7
 220 546 220 546 288 546 c 0,8,9
 303 546 303 546 318.5 544 c 128,-1,10
 334 542 334 542 348 540 c 1,11,-1
 348 631 l 2,12,13
 348 696 348 696 374 730.5 c 128,-1,14
 400 765 400 765 459 765 c 0,15,16
 477 765 477 765 491.5 760.5 c 128,-1,17
 506 756 506 756 516 752 c 1,18,-1
 516 679 l 1,19,20
 510 682 510 682 496.5 685.5 c 128,-1,21
 483 689 483 689 467 689 c 0,22,23
 423 689 423 689 423 641 c 2,24,-1
 423 517 l 1,25,-1
 396 444 l 1,26,27
 373 453 373 453 342.5 461 c 128,-1,28
 312 469 312 469 286 469 c 0,29,30
 141 469 141 469 141 266 c 0,31,32
 141 169 141 169 176.5 117.5 c 128,-1,33
 212 66 212 66 282 66 c 0,34,35
 323 66 323 66 355 75 c 128,-1,36
 387 84 387 84 414 97 c 1,37,-1
 414 19 l 1,38,39
 388 5 388 5 357 -2.5 c 128,-1,40
 326 -10 326 -10 282 -10 c 0,0,1
EndSplineSet
EndChar

StartChar: uni018A#0
Encoding: 394 394 334
Width: 765
GlyphClass: 2
Flags: W
AnchorPoint: "Anchor-2" 383 714 basechar 0
AnchorPoint: "Anchor-0" 383 0 basechar 0
LayerCount: 2
Fore
SplineSet
169 0 m 1,0,-1
 169 637 l 1,1,-1
 144 637 l 2,2,3
 115 637 115 637 101 623.5 c 128,-1,4
 87 610 87 610 87 587 c 0,5,6
 87 570 87 570 90.5 555 c 128,-1,7
 94 540 94 540 96 533 c 1,8,-1
 19 533 l 1,9,10
 15 544 15 544 12 560 c 128,-1,11
 9 576 9 576 9 588 c 0,12,13
 9 652 9 652 42 683 c 128,-1,14
 75 714 75 714 145 714 c 2,15,-1
 376 714 l 2,16,17
 478 714 478 714 552.5 674 c 128,-1,18
 627 634 627 634 667.5 556 c 128,-1,19
 708 478 708 478 708 364 c 0,20,21
 708 183 708 183 615 91.5 c 128,-1,22
 522 0 522 0 356 0 c 2,23,-1
 169 0 l 1,0,-1
258 77 m 1,24,-1
 347 77 l 2,25,26
 614 77 614 77 614 361 c 0,27,28
 614 504 614 504 549 570.5 c 128,-1,29
 484 637 484 637 365 637 c 2,30,-1
 258 637 l 1,31,-1
 258 77 l 1,24,-1
EndSplineSet
EndChar

StartChar: uni018B#0
Encoding: 395 395 335
Width: 581
GlyphClass: 2
Flags: W
AnchorPoint: "Anchor-2" 291 714 basechar 0
AnchorPoint: "Anchor-0" 291 0 basechar 0
LayerCount: 2
Fore
SplineSet
301 0 m 2,0,1
 168 0 168 0 108 52 c 128,-1,2
 48 104 48 104 48 198 c 0,3,4
 48 254 48 254 73.5 303 c 128,-1,5
 99 352 99 352 157.5 382 c 128,-1,6
 216 412 216 412 317 412 c 2,7,-1
 401 412 l 1,8,-1
 401 635 l 1,9,-1
 89 635 l 1,10,-1
 89 714 l 1,11,-1
 490 714 l 1,12,-1
 490 0 l 1,13,-1
 301 0 l 2,0,1
309 77 m 2,14,-1
 401 77 l 1,15,-1
 401 335 l 1,16,-1
 327 335 l 2,17,18
 232 335 232 335 186 304.5 c 128,-1,19
 140 274 140 274 140 202 c 0,20,21
 140 139 140 139 181 108 c 128,-1,22
 222 77 222 77 309 77 c 2,14,-1
EndSplineSet
EndChar

StartChar: uni018C#0
Encoding: 396 396 336
Width: 579
GlyphClass: 2
Flags: W
AnchorPoint: "Anchor-2" 290 760 basechar 0
AnchorPoint: "Anchor-0" 290 0 basechar 0
LayerCount: 2
Fore
SplineSet
257 -10 m 0,0,1
 164 -10 164 -10 107.5 59.5 c 128,-1,2
 51 129 51 129 51 267 c 256,3,4
 51 405 51 405 108 475.5 c 128,-1,5
 165 546 165 546 258 546 c 0,6,7
 316 546 316 546 353 523 c 128,-1,8
 390 500 390 500 413 467 c 1,9,-1
 419 467 l 1,10,11
 418 480 418 480 415.5 505.5 c 128,-1,12
 413 531 413 531 413 546 c 2,13,-1
 413 686 l 1,14,-1
 102 686 l 1,15,-1
 102 760 l 1,16,-1
 500 760 l 1,17,-1
 500 0 l 1,18,-1
 430 0 l 1,19,-1
 417 72 l 1,20,-1
 413 72 l 1,21,22
 390 38 390 38 353 14 c 128,-1,23
 316 -10 316 -10 257 -10 c 0,0,1
273 63 m 0,24,25
 351 63 351 63 382.5 109.5 c 128,-1,26
 414 156 414 156 414 250 c 2,27,-1
 414 266 l 2,28,29
 414 366 414 366 384 419.5 c 128,-1,30
 354 473 354 473 272 473 c 0,31,32
 206 473 206 473 173.5 416.5 c 128,-1,33
 141 360 141 360 141 265 c 0,34,35
 141 169 141 169 173.5 116 c 128,-1,36
 206 63 206 63 273 63 c 0,24,25
EndSplineSet
EndChar

StartChar: uni018E#0
Encoding: 398 398 338
Width: 523
GlyphClass: 2
Flags: W
AnchorPoint: "Anchor-2" 261 714 basechar 0
AnchorPoint: "Anchor-0" 261 0 basechar 0
LayerCount: 2
Fore
SplineSet
432 714 m 1,0,-1
 432 0 l 1,1,-1
 56 0 l 1,2,-1
 56 79 l 1,3,-1
 343 79 l 1,4,-1
 343 334 l 1,5,-1
 73 334 l 1,6,-1
 73 412 l 1,7,-1
 343 412 l 1,8,-1
 343 635 l 1,9,-1
 56 635 l 1,10,-1
 56 714 l 1,11,-1
 432 714 l 1,0,-1
EndSplineSet
EndChar

StartChar: uni0190#0
Encoding: 400 400 340
Width: 557
GlyphClass: 2
Flags: W
AnchorPoint: "Anchor-2" 279 714 basechar 0
AnchorPoint: "Anchor-0" 279 0 basechar 0
LayerCount: 2
Fore
SplineSet
296 724 m 0,0,1
 367 724 367 724 423 702.5 c 128,-1,2
 479 681 479 681 518 650 c 1,3,-1
 476 589 l 1,4,5
 438 616 438 616 398.5 633 c 128,-1,6
 359 650 359 650 299 650 c 0,7,8
 242 650 242 650 207 621 c 128,-1,9
 172 592 172 592 172 538 c 0,10,11
 172 478 172 478 217 442.5 c 128,-1,12
 262 407 262 407 355 407 c 2,13,-1
 443 407 l 1,14,-1
 443 332 l 1,15,-1
 350 332 l 2,16,17
 252 332 252 332 197 301 c 128,-1,18
 142 270 142 270 142 202 c 0,19,20
 142 136 142 136 187.5 100 c 128,-1,21
 233 64 233 64 319 64 c 0,22,23
 370 64 370 64 423 79 c 128,-1,24
 476 94 476 94 520 116 c 1,25,-1
 520 34 l 1,26,27
 478 12 478 12 426.5 1 c 128,-1,28
 375 -10 375 -10 312 -10 c 0,29,30
 218 -10 218 -10 160 16.5 c 128,-1,31
 102 43 102 43 76 89.5 c 128,-1,32
 50 136 50 136 50 195 c 0,33,34
 50 271 50 271 94.5 316 c 128,-1,35
 139 361 139 361 224 373 c 1,36,-1
 224 377 l 1,37,38
 159 389 159 389 119.5 431.5 c 128,-1,39
 80 474 80 474 80 547 c 0,40,41
 80 624 80 624 135.5 674 c 128,-1,42
 191 724 191 724 296 724 c 0,0,1
EndSplineSet
EndChar

StartChar: uni0191#0
Encoding: 401 401 341
Width: 490
GlyphClass: 2
Flags: W
AnchorPoint: "Anchor-2" 273 714 basechar 0
AnchorPoint: "Anchor-0" 245 -240 basechar 0
LayerCount: 2
Fore
SplineSet
43 -240 m 0,0,1
 10 -240 10 -240 -11 -227 c 1,2,-1
 -11 -151 l 1,3,4
 9 -161 9 -161 32 -161 c 0,5,6
 60 -161 60 -161 75.5 -143.5 c 128,-1,7
 91 -126 91 -126 91 -79 c 2,8,-1
 91 714 l 1,9,-1
 466 714 l 1,10,-1
 466 635 l 1,11,-1
 179 635 l 1,12,-1
 179 382 l 1,13,-1
 449 382 l 1,14,-1
 449 303 l 1,15,-1
 179 303 l 1,16,-1
 179 -83 l 2,17,18
 179 -166 179 -166 143.5 -203 c 128,-1,19
 108 -240 108 -240 43 -240 c 0,0,1
EndSplineSet
EndChar

StartChar: florin#0
Encoding: 402 402 342
Width: 538
GlyphClass: 2
Flags: W
AnchorPoint: "Anchor-2" 344 724 basechar 0
AnchorPoint: "Anchor-0" 269 -240 basechar 0
LayerCount: 2
Fore
SplineSet
382 724 m 0,0,1
 413 724 413 724 438 717 c 128,-1,2
 463 710 463 710 481 703 c 1,3,-1
 459 635 l 1,4,5
 444 640 444 640 425 645.5 c 128,-1,6
 406 651 406 651 386 651 c 0,7,8
 346 651 346 651 328 627.5 c 128,-1,9
 310 604 310 604 310 543 c 2,10,-1
 310 474 l 1,11,-1
 435 474 l 1,12,-1
 435 406 l 1,13,-1
 311 406 l 1,14,-1
 311 -64 l 2,15,16
 311 -162 311 -162 270.5 -201 c 128,-1,17
 230 -240 230 -240 154 -240 c 0,18,19
 136 -240 136 -240 118.5 -237.5 c 128,-1,20
 101 -235 101 -235 88 -231 c 1,21,-1
 88 -158 l 1,22,23
 102 -162 102 -162 116.5 -164.5 c 128,-1,24
 131 -167 131 -167 147 -167 c 0,25,26
 185 -167 185 -167 203.5 -145 c 128,-1,27
 222 -123 222 -123 222 -64 c 2,28,-1
 222 406 l 1,29,-1
 125 406 l 1,30,-1
 125 447 l 1,31,-1
 222 477 l 1,32,-1
 222 542 l 2,33,34
 222 646 222 646 264 685 c 128,-1,35
 306 724 306 724 382 724 c 0,0,1
EndSplineSet
EndChar

StartChar: uni0193#0
Encoding: 403 403 343
Width: 684
GlyphClass: 2
Flags: W
AnchorPoint: "Anchor-2" 406 858 basechar 0
AnchorPoint: "Anchor-0" 379 0 basechar 0
LayerCount: 2
Fore
SplineSet
642 858 m 0,0,1
 659 858 659 858 674 854 c 128,-1,2
 689 850 689 850 699 845 c 1,3,-1
 699 773 l 1,4,5
 692 776 692 776 678.5 779.5 c 128,-1,6
 665 783 665 783 650 783 c 0,7,8
 605 783 605 783 605 735 c 2,9,-1
 605 682 l 1,10,-1
 572 604 l 1,11,12
 537 620 537 620 492.5 632.5 c 128,-1,13
 448 645 448 645 401 645 c 0,14,15
 282 645 282 645 216 567.5 c 128,-1,16
 150 490 150 490 150 357 c 0,17,18
 150 272 150 272 175 206.5 c 128,-1,19
 200 141 200 141 254.5 104.5 c 128,-1,20
 309 68 309 68 397 68 c 0,21,22
 440 68 440 68 470 73 c 128,-1,23
 500 78 500 78 525 85 c 1,24,-1
 525 297 l 1,25,-1
 379 297 l 1,26,-1
 379 377 l 1,27,-1
 614 377 l 1,28,-1
 614 27 l 1,29,30
 560 8 560 8 504 -1 c 128,-1,31
 448 -10 448 -10 378 -10 c 0,32,33
 274 -10 274 -10 202.5 34.5 c 128,-1,34
 131 79 131 79 94 161.5 c 128,-1,35
 57 244 57 244 57 357 c 0,36,37
 57 468 57 468 98 550.5 c 128,-1,38
 139 633 139 633 217 678.5 c 128,-1,39
 295 724 295 724 405 724 c 0,40,41
 471 724 471 724 531 707 c 1,42,-1
 531 724 l 2,43,44
 531 788 531 788 557.5 823 c 128,-1,45
 584 858 584 858 642 858 c 0,0,1
EndSplineSet
EndChar

StartChar: uni0194#0
Encoding: 404 404 344
Width: 542
GlyphClass: 2
Flags: W
AnchorPoint: "Anchor-2" 271 714 basechar 0
AnchorPoint: "Anchor-0" 271 -240 basechar 0
LayerCount: 2
Fore
SplineSet
270 -240 m 256,0,1
 218 -240 218 -240 189 -202 c 128,-1,2
 160 -164 160 -164 160 -107 c 0,3,4
 160 -63 160 -63 178 -5 c 128,-1,5
 196 53 196 53 222 107 c 1,6,-1
 0 714 l 1,7,-1
 93 714 l 1,8,-1
 224 341 l 2,9,10
 239 297 239 297 251 258.5 c 128,-1,11
 263 220 263 220 270 185 c 1,12,13
 277 220 277 220 289 259.5 c 128,-1,14
 301 299 301 299 317 343 c 2,15,-1
 447 714 l 1,16,-1
 542 714 l 1,17,-1
 318 108 l 1,18,19
 349 43 349 43 365 -13.5 c 128,-1,20
 381 -70 381 -70 381 -107 c 0,21,22
 381 -163 381 -163 351.5 -201.5 c 128,-1,23
 322 -240 322 -240 270 -240 c 256,0,1
270 -162 m 0,24,25
 302 -162 302 -162 302 -105 c 0,26,27
 302 -82 302 -82 294.5 -46 c 128,-1,28
 287 -10 287 -10 270 25 c 1,29,30
 253 -12 253 -12 245.5 -46.5 c 128,-1,31
 238 -81 238 -81 238 -103 c 0,32,33
 238 -134 238 -134 247 -148 c 128,-1,34
 256 -162 256 -162 270 -162 c 0,24,25
EndSplineSet
EndChar

StartChar: uni0195#0
Encoding: 405 405 345
Width: 882
GlyphClass: 2
Flags: W
AnchorPoint: "Anchor-2" 441 760 basechar 0
AnchorPoint: "Anchor-0" 441 0 basechar 0
LayerCount: 2
Fore
SplineSet
602 -10 m 0,0,1
 502 -10 502 -10 450.5 36.5 c 128,-1,2
 399 83 399 83 399 186 c 2,3,-1
 399 343 l 2,4,5
 399 472 399 472 298 472 c 0,6,7
 223 472 223 472 194.5 421.5 c 128,-1,8
 166 371 166 371 166 277 c 2,9,-1
 166 0 l 1,10,-1
 79 0 l 1,11,-1
 79 760 l 1,12,-1
 166 760 l 1,13,-1
 166 537 l 2,14,15
 166 497 166 497 161 462 c 1,16,-1
 167 462 l 1,17,18
 190 503 190 503 229 524 c 128,-1,19
 268 545 268 545 314 545 c 0,20,21
 399 545 399 545 442.5 498.5 c 128,-1,22
 486 452 486 452 486 349 c 2,23,-1
 486 192 l 2,24,25
 486 63 486 63 602 63 c 0,26,27
 663 63 663 63 691 97.5 c 128,-1,28
 719 132 719 132 719 212 c 2,29,-1
 719 536 l 1,30,-1
 806 536 l 1,31,-1
 806 209 l 2,32,33
 806 89 806 89 754.5 39.5 c 128,-1,34
 703 -10 703 -10 602 -10 c 0,0,1
EndSplineSet
EndChar

StartChar: uni0196#0
Encoding: 406 406 346
Width: 330
GlyphClass: 2
Flags: W
AnchorPoint: "Anchor-2" 131 714 basechar 0
AnchorPoint: "Anchor-0" 194 0 basechar 0
LayerCount: 2
Fore
SplineSet
230 -10 m 0,0,1
 188 -10 188 -10 155 4.5 c 128,-1,2
 122 19 122 19 103 55.5 c 128,-1,3
 84 92 84 92 84 157 c 2,4,-1
 84 714 l 1,5,-1
 173 714 l 1,6,-1
 173 165 l 2,7,8
 173 117 173 117 189.5 93 c 128,-1,9
 206 69 206 69 244 69 c 0,10,11
 265 69 265 69 287 72.5 c 128,-1,12
 309 76 309 76 321 80 c 1,13,-1
 321 6 l 1,14,15
 308 -1 308 -1 282 -5.5 c 128,-1,16
 256 -10 256 -10 230 -10 c 0,0,1
EndSplineSet
EndChar

StartChar: uni0197#0
Encoding: 407 407 347
Width: 322
GlyphClass: 2
Flags: W
AnchorPoint: "Anchor-2" 161 714 basechar 0
AnchorPoint: "Anchor-0" 161 0 basechar 0
LayerCount: 2
Fore
SplineSet
284 714 m 1,0,-1
 284 662 l 1,1,-1
 205 642 l 1,2,-1
 205 405 l 1,3,-1
 290 405 l 1,4,-1
 290 327 l 1,5,-1
 205 327 l 1,6,-1
 205 71 l 1,7,-1
 284 52 l 1,8,-1
 284 0 l 1,9,-1
 37 0 l 1,10,-1
 37 52 l 1,11,-1
 116 71 l 1,12,-1
 116 327 l 1,13,-1
 31 327 l 1,14,-1
 31 405 l 1,15,-1
 116 405 l 1,16,-1
 116 642 l 1,17,-1
 37 662 l 1,18,-1
 37 714 l 1,19,-1
 284 714 l 1,0,-1
EndSplineSet
EndChar

StartChar: uni0198#0
Encoding: 408 408 348
Width: 585
GlyphClass: 2
Flags: W
AnchorPoint: "Anchor-2" 293 714 basechar 0
AnchorPoint: "Anchor-0" 293 0 basechar 0
LayerCount: 2
Fore
SplineSet
522 720 m 0,0,1
 539 720 539 720 550.5 718 c 128,-1,2
 562 716 562 716 571 712 c 1,3,-1
 571 642 l 1,4,5
 564 644 564 644 551 644.5 c 128,-1,6
 538 645 538 645 529 645 c 0,7,8
 516 645 516 645 502 637.5 c 128,-1,9
 488 630 488 630 464 599 c 2,10,-1
 314 405 l 1,11,-1
 585 0 l 1,12,-1
 481 0 l 1,13,-1
 253 342 l 1,14,-1
 180 265 l 1,15,-1
 180 0 l 1,16,-1
 91 0 l 1,17,-1
 91 714 l 1,18,-1
 180 714 l 1,19,-1
 180 354 l 1,20,21
 206 389 206 389 235 426 c 128,-1,22
 264 463 264 463 290 498 c 2,23,-1
 403 650 l 2,24,25
 426 682 426 682 445 696.5 c 128,-1,26
 464 711 464 711 482 715.5 c 128,-1,27
 500 720 500 720 522 720 c 0,0,1
EndSplineSet
EndChar

StartChar: uni0199#0
Encoding: 409 409 349
Width: 508
GlyphClass: 2
Flags: W
AnchorPoint: "Anchor-2" 254 765 basechar 0
AnchorPoint: "Anchor-0" 254 0 basechar 0
LayerCount: 2
Fore
SplineSet
197 765 m 0,0,1
 215 765 215 765 232 760.5 c 128,-1,2
 249 756 249 756 259 752 c 1,3,-1
 259 679 l 1,4,5
 252 682 252 682 238.5 685.5 c 128,-1,6
 225 689 225 689 210 689 c 0,7,8
 188 689 188 689 176.5 675.5 c 128,-1,9
 165 662 165 662 165 631 c 2,10,-1
 165 363 l 2,11,12
 165 347 165 347 163.5 321 c 128,-1,13
 162 295 162 295 161 276 c 1,14,-1
 165 276 l 1,15,16
 171 284 171 284 182 299 c 128,-1,17
 193 314 193 314 205 329.5 c 128,-1,18
 217 345 217 345 226 355 c 2,19,-1
 385 536 l 1,20,-1
 486 536 l 1,21,-1
 282 307 l 1,22,-1
 500 0 l 1,23,-1
 396 0 l 1,24,-1
 223 250 l 1,25,-1
 165 197 l 1,26,-1
 165 0 l 1,27,-1
 79 0 l 1,28,-1
 79 625 l 2,29,30
 79 765 79 765 197 765 c 0,0,1
EndSplineSet
EndChar

StartChar: uni019A#0
Encoding: 410 410 350
Width: 248
GlyphClass: 2
Flags: W
AnchorPoint: "Anchor-2" 124 760 basechar 0
AnchorPoint: "Anchor-0" 124 0 basechar 0
LayerCount: 2
Fore
SplineSet
81 0 m 1,0,-1
 81 354 l 1,1,-1
 14 354 l 1,2,-1
 14 420 l 1,3,-1
 81 420 l 1,4,-1
 81 760 l 1,5,-1
 168 760 l 1,6,-1
 168 420 l 1,7,-1
 234 420 l 1,8,-1
 234 354 l 1,9,-1
 168 354 l 1,10,-1
 168 0 l 1,11,-1
 81 0 l 1,0,-1
EndSplineSet
EndChar

StartChar: uni019B#0
Encoding: 411 411 351
Width: 514
GlyphClass: 2
Flags: W
AnchorPoint: "Anchor-2" 257 766 basechar 0
AnchorPoint: "Anchor-0" 257 0 basechar 0
LayerCount: 2
Fore
SplineSet
-5 0 m 1,0,-1
 212 526 l 1,1,-1
 191 590 l 1,2,-1
 92 558 l 1,3,-1
 74 621 l 1,4,-1
 166 651 l 1,5,6
 152 675 152 675 136 684 c 128,-1,7
 120 693 120 693 95 693 c 0,8,9
 78 693 78 693 65.5 691 c 128,-1,10
 53 689 53 689 43 687 c 1,11,-1
 43 758 l 1,12,13
 56 761 56 761 73 763.5 c 128,-1,14
 90 766 90 766 106 766 c 0,15,16
 161 766 161 766 192.5 744 c 128,-1,17
 224 722 224 722 246 676 c 1,18,-1
 348 709 l 1,19,-1
 366 646 l 1,20,-1
 271 614 l 1,21,-1
 437 116 l 2,22,23
 455 62 455 62 486 62 c 0,24,25
 493 62 493 62 501 64 c 128,-1,26
 509 66 509 66 514 67 c 1,27,-1
 514 2 l 1,28,29
 504 -3 504 -3 489.5 -6.5 c 128,-1,30
 475 -10 475 -10 459 -10 c 0,31,32
 422 -10 422 -10 401 8.5 c 128,-1,33
 380 27 380 27 365 71 c 2,34,-1
 298 276 l 2,35,36
 290 300 290 300 281 329.5 c 128,-1,37
 272 359 272 359 264 387.5 c 128,-1,38
 256 416 256 416 252 435 c 1,39,-1
 249 435 l 1,40,41
 241 400 241 400 227.5 360 c 128,-1,42
 214 320 214 320 198 281 c 2,43,-1
 86 0 l 1,44,-1
 -5 0 l 1,0,-1
EndSplineSet
EndChar

StartChar: uni019C#0
Encoding: 412 412 352
Width: 969
GlyphClass: 2
Flags: W
AnchorPoint: "Anchor-2" 484 714 basechar 0
AnchorPoint: "Anchor-0" 484 0 basechar 0
LayerCount: 2
Fore
SplineSet
270 -10 m 0,0,1
 176 -10 176 -10 130 41.5 c 128,-1,2
 84 93 84 93 84 208 c 2,3,-1
 84 714 l 1,4,-1
 173 714 l 1,5,-1
 173 208 l 2,6,7
 173 138 173 138 199.5 103 c 128,-1,8
 226 68 226 68 284 68 c 0,9,10
 366 68 366 68 401 118 c 128,-1,11
 436 168 436 168 436 262 c 2,12,-1
 436 714 l 1,13,-1
 525 714 l 1,14,-1
 525 208 l 2,15,16
 525 138 525 138 552 103 c 128,-1,17
 579 68 579 68 638 68 c 0,18,19
 723 68 723 68 755.5 123 c 128,-1,20
 788 178 788 178 788 282 c 2,21,-1
 788 714 l 1,22,-1
 877 714 l 1,23,-1
 877 0 l 1,24,-1
 807 0 l 1,25,-1
 792 82 l 1,26,-1
 787 82 l 1,27,28
 762 36 762 36 715 13 c 128,-1,29
 668 -10 668 -10 618 -10 c 0,30,31
 495 -10 495 -10 454 90 c 1,32,-1
 449 90 l 1,33,34
 421 39 421 39 372.5 14.5 c 128,-1,35
 324 -10 324 -10 270 -10 c 0,0,1
EndSplineSet
EndChar

StartChar: uni019D#0
Encoding: 413 413 353
Width: 718
GlyphClass: 2
Flags: W
AnchorPoint: "Anchor-2" 359 714 basechar 0
AnchorPoint: "Anchor-0" 359 -240 basechar 0
LayerCount: 2
Fore
SplineSet
43 -240 m 0,0,1
 10 -240 10 -240 -11 -227 c 1,2,-1
 -11 -151 l 1,3,4
 9 -161 9 -161 32 -161 c 0,5,6
 60 -161 60 -161 75.5 -143.5 c 128,-1,7
 91 -126 91 -126 91 -79 c 2,8,-1
 91 714 l 1,9,-1
 195 714 l 1,10,-1
 548 123 l 1,11,-1
 551 123 l 1,12,13
 550 139 550 139 549 171 c 128,-1,14
 548 203 548 203 546.5 240.5 c 128,-1,15
 545 278 545 278 545 311 c 2,16,-1
 545 714 l 1,17,-1
 627 714 l 1,18,-1
 627 0 l 1,19,-1
 522 0 l 1,20,-1
 168 593 l 1,21,-1
 165 593 l 1,22,23
 166 558 166 558 169 506 c 128,-1,24
 172 454 172 454 172 399 c 2,25,-1
 172 -83 l 2,26,27
 172 -166 172 -166 139.5 -203 c 128,-1,28
 107 -240 107 -240 43 -240 c 0,0,1
EndSplineSet
EndChar

StartChar: Ohorn#0
Encoding: 416 416 356
Width: 740
GlyphClass: 2
Flags: W
AnchorPoint: "Anchor-2" 368 760 basechar 0
AnchorPoint: "Anchor-0" 368 0 basechar 0
LayerCount: 2
Fore
SplineSet
677 358 m 0,0,1
 677 247 677 247 642 164.5 c 128,-1,2
 607 82 607 82 538.5 36 c 128,-1,3
 470 -10 470 -10 368 -10 c 0,4,5
 262 -10 262 -10 193.5 36 c 128,-1,6
 125 82 125 82 91 165 c 128,-1,7
 57 248 57 248 57 359 c 0,8,9
 57 468 57 468 91 550.5 c 128,-1,10
 125 633 125 633 194 679 c 128,-1,11
 263 725 263 725 369 725 c 0,12,13
 446 725 446 725 504.5 697.5 c 128,-1,14
 563 670 563 670 602 621 c 1,15,16
 640 632 640 632 650.5 670 c 128,-1,17
 661 708 661 708 661 760 c 1,18,-1
 754 760 l 1,19,-1
 760 749 l 1,20,21
 750 690 750 690 722.5 640 c 128,-1,22
 695 590 695 590 636 567 c 1,23,24
 677 480 677 480 677 358 c 0,0,1
151 358 m 0,25,26
 151 223 151 223 203 145.5 c 128,-1,27
 255 68 255 68 368 68 c 256,28,29
 481 68 481 68 532 145.5 c 128,-1,30
 583 223 583 223 583 358 c 0,31,32
 583 492 583 492 532.5 569 c 128,-1,33
 482 646 482 646 369 646 c 0,34,35
 255 646 255 646 203 569 c 128,-1,36
 151 492 151 492 151 358 c 0,25,26
EndSplineSet
Ligature2: "'ccmp' Glyph Composition/Decomposition lookup 6 subtable" O#0 uni031B#0
EndChar

StartChar: ohorn#0
Encoding: 417 417 357
Width: 584
GlyphClass: 2
Flags: W
AnchorPoint: "Anchor-2" 286 536 basechar 0
AnchorPoint: "Anchor-0" 283 0 basechar 0
LayerCount: 2
Fore
SplineSet
520 269 m 0,0,1
 520 136 520 136 456 63 c 128,-1,2
 392 -10 392 -10 283 -10 c 0,3,4
 216 -10 216 -10 163.5 22.5 c 128,-1,5
 111 55 111 55 81 117.5 c 128,-1,6
 51 180 51 180 51 269 c 0,7,8
 51 402 51 402 114 474 c 128,-1,9
 177 546 177 546 286 546 c 0,10,11
 336 546 336 546 378 528 c 128,-1,12
 420 510 420 510 451 477 c 1,13,14
 493 490 493 490 503.5 529 c 128,-1,15
 514 568 514 568 514 618 c 1,16,-1
 606 618 l 1,17,-1
 613 607 l 1,18,19
 600 538 600 538 572.5 491.5 c 128,-1,20
 545 445 545 445 488 424 c 1,21,22
 503 392 503 392 511.5 353.5 c 128,-1,23
 520 315 520 315 520 269 c 0,0,1
141 269 m 256,24,25
 141 168 141 168 175 115.5 c 128,-1,26
 209 63 209 63 285 63 c 0,27,28
 362 63 362 63 396 115.5 c 128,-1,29
 430 168 430 168 430 269 c 256,30,31
 430 370 430 370 395 421 c 128,-1,32
 360 472 360 472 284 472 c 256,33,34
 208 472 208 472 174.5 421 c 128,-1,35
 141 370 141 370 141 269 c 256,24,25
EndSplineSet
Ligature2: "'ccmp' Glyph Composition/Decomposition lookup 6 subtable" o#0 uni031B#0
EndChar

StartChar: uni01A2#0
Encoding: 418 418 358
Width: 1014
GlyphClass: 2
Flags: W
AnchorPoint: "Anchor-2" 508 725 basechar 0
AnchorPoint: "Anchor-0" 508 0 basechar 0
LayerCount: 2
Fore
SplineSet
649 358 m 0,0,1
 649 247 649 247 615.5 164.5 c 128,-1,2
 582 82 582 82 516 36 c 128,-1,3
 450 -10 450 -10 353 -10 c 0,4,5
 253 -10 253 -10 187.5 36 c 128,-1,6
 122 82 122 82 89.5 165 c 128,-1,7
 57 248 57 248 57 359 c 0,8,9
 57 468 57 468 89.5 550.5 c 128,-1,10
 122 633 122 633 188 679 c 128,-1,11
 254 725 254 725 354 725 c 0,12,13
 423 725 423 725 476 701.5 c 128,-1,14
 529 678 529 678 566 634 c 1,15,16
 595 680 595 680 643 702.5 c 128,-1,17
 691 725 691 725 744 725 c 0,18,19
 838 725 838 725 884 673.5 c 128,-1,20
 930 622 930 622 930 507 c 2,21,-1
 930 0 l 1,22,-1
 841 0 l 1,23,-1
 841 507 l 2,24,25
 841 577 841 577 814 612 c 128,-1,26
 787 647 787 647 729 647 c 0,27,28
 634 647 634 647 600 586 c 1,29,30
 649 493 649 493 649 358 c 0,0,1
151 358 m 256,31,32
 151 223 151 223 200 145.5 c 128,-1,33
 249 68 249 68 353 68 c 0,34,35
 458 68 458 68 506.5 145.5 c 128,-1,36
 555 223 555 223 555 358 c 256,37,38
 555 493 555 493 506.5 569.5 c 128,-1,39
 458 646 458 646 354 646 c 0,40,41
 249 646 249 646 200 569.5 c 128,-1,42
 151 493 151 493 151 358 c 256,31,32
EndSplineSet
EndChar

StartChar: uni01A3#0
Encoding: 419 419 359
Width: 801
GlyphClass: 2
Flags: W
AnchorPoint: "Anchor-2" 401 536 basechar 0
AnchorPoint: "Anchor-0" 401 -240 basechar 0
LayerCount: 2
Fore
SplineSet
496 269 m 0,0,1
 496 136 496 136 436 63 c 128,-1,2
 376 -10 376 -10 272 -10 c 0,3,4
 208 -10 208 -10 158.5 22.5 c 128,-1,5
 109 55 109 55 80 117.5 c 128,-1,6
 51 180 51 180 51 269 c 0,7,8
 51 402 51 402 110.5 474 c 128,-1,9
 170 546 170 546 274 546 c 0,10,11
 374 546 374 546 434 474 c 1,12,13
 459 511 459 511 495.5 528.5 c 128,-1,14
 532 546 532 546 572 546 c 0,15,16
 648 546 648 546 686.5 499 c 128,-1,17
 725 452 725 452 725 349 c 2,18,-1
 725 -240 l 1,19,-1
 638 -240 l 1,20,-1
 638 345 l 2,21,22
 638 472 638 472 552 472 c 0,23,24
 492 472 492 472 465 428 c 1,25,26
 496 366 496 366 496 269 c 0,0,1
141 269 m 256,27,28
 141 174 141 174 172.5 118.5 c 128,-1,29
 204 63 204 63 273 63 c 256,30,31
 342 63 342 63 374.5 118.5 c 128,-1,32
 407 174 407 174 407 269 c 256,33,34
 407 364 407 364 374.5 418 c 128,-1,35
 342 472 342 472 273 472 c 256,36,37
 204 472 204 472 172.5 418 c 128,-1,38
 141 364 141 364 141 269 c 256,27,28
EndSplineSet
EndChar

StartChar: uni01A4#0
Encoding: 420 420 360
Width: 649
GlyphClass: 2
Flags: W
AnchorPoint: "Anchor-2" 325 714 basechar 0
AnchorPoint: "Anchor-0" 325 0 basechar 0
LayerCount: 2
Fore
SplineSet
169 0 m 1,0,-1
 169 637 l 1,1,-1
 144 637 l 2,2,3
 115 637 115 637 101 623.5 c 128,-1,4
 87 610 87 610 87 587 c 0,5,6
 87 570 87 570 90.5 555 c 128,-1,7
 94 540 94 540 96 533 c 1,8,-1
 19 533 l 1,9,10
 15 544 15 544 12 560 c 128,-1,11
 9 576 9 576 9 588 c 0,12,13
 9 652 9 652 42 683 c 128,-1,14
 75 714 75 714 145 714 c 2,15,-1
 349 714 l 2,16,17
 481 714 481 714 541 659 c 128,-1,18
 601 604 601 604 601 504 c 0,19,20
 601 445 601 445 576 393.5 c 128,-1,21
 551 342 551 342 492.5 310 c 128,-1,22
 434 278 434 278 334 278 c 2,23,-1
 258 278 l 1,24,-1
 258 0 l 1,25,-1
 169 0 l 1,0,-1
258 355 m 1,26,-1
 324 355 l 2,27,28
 417 355 417 355 463 388 c 128,-1,29
 509 421 509 421 509 500 c 0,30,31
 509 569 509 569 468.5 603 c 128,-1,32
 428 637 428 637 342 637 c 2,33,-1
 258 637 l 1,34,-1
 258 355 l 1,26,-1
EndSplineSet
EndChar

StartChar: uni01A5#0
Encoding: 421 421 361
Width: 579
GlyphClass: 2
Flags: W
AnchorPoint: "Anchor-2" 290 765 basechar 0
AnchorPoint: "Anchor-0" 290 -240 basechar 0
LayerCount: 2
Fore
SplineSet
198 765 m 0,0,1
 216 765 216 765 233 760.5 c 128,-1,2
 250 756 250 756 260 752 c 1,3,-1
 260 679 l 1,4,5
 253 682 253 682 239.5 685.5 c 128,-1,6
 226 689 226 689 210 689 c 0,7,8
 189 689 189 689 177.5 675.5 c 128,-1,9
 166 662 166 662 166 631 c 2,10,-1
 166 551 l 2,11,12
 166 532 166 532 164 506 c 128,-1,13
 162 480 162 480 160 463 c 1,14,-1
 166 463 l 1,15,16
 188 498 188 498 224.5 522 c 128,-1,17
 261 546 261 546 322 546 c 0,18,19
 415 546 415 546 471.5 477 c 128,-1,20
 528 408 528 408 528 269 c 0,21,22
 528 132 528 132 471.5 61 c 128,-1,23
 415 -10 415 -10 321 -10 c 0,24,25
 263 -10 263 -10 225.5 13 c 128,-1,26
 188 36 188 36 166 68 c 1,27,-1
 161 68 l 1,28,29
 162 51 162 51 164 25 c 128,-1,30
 166 -1 166 -1 166 -20 c 2,31,-1
 166 -240 l 1,32,-1
 79 -240 l 1,33,-1
 79 625 l 2,34,35
 79 765 79 765 198 765 c 0,0,1
305 472 m 0,36,37
 230 472 230 472 198 426 c 128,-1,38
 166 380 166 380 166 286 c 2,39,-1
 166 269 l 2,40,41
 166 170 166 170 196 116.5 c 128,-1,42
 226 63 226 63 307 63 c 0,43,44
 352 63 352 63 381 89.5 c 128,-1,45
 410 116 410 116 424 163 c 128,-1,46
 438 210 438 210 438 270 c 0,47,48
 438 362 438 362 405.5 417 c 128,-1,49
 373 472 373 472 305 472 c 0,36,37
EndSplineSet
EndChar

StartChar: uni01A6#0
Encoding: 422 422 362
Width: 588
GlyphClass: 2
Flags: W
AnchorPoint: "Anchor-2" 294 714 basechar 0
AnchorPoint: "Anchor-0" 294 -100 basechar 0
LayerCount: 2
Fore
SplineSet
471 -100 m 1,0,-1
 309 195 l 1,1,-1
 180 195 l 1,2,-1
 180 0 l 1,3,-1
 91 0 l 1,4,-1
 91 714 l 1,5,-1
 180 714 l 1,6,-1
 180 614 l 1,7,-1
 277 614 l 2,8,9
 403 614 403 614 463 563.5 c 128,-1,10
 523 513 523 513 523 411 c 0,11,12
 523 354 523 354 503.5 316 c 128,-1,13
 484 278 484 278 453.5 255 c 128,-1,14
 423 232 423 232 389 220 c 1,15,-1
 575 -100 l 1,16,-1
 471 -100 l 1,0,-1
180 271 m 1,17,-1
 276 271 l 2,18,19
 357 271 357 271 394 305.5 c 128,-1,20
 431 340 431 340 431 407 c 0,21,22
 431 477 431 477 392 506.5 c 128,-1,23
 353 536 353 536 272 536 c 2,24,-1
 180 536 l 1,25,-1
 180 271 l 1,17,-1
EndSplineSet
EndChar

StartChar: uni01A7#0
Encoding: 423 423 363
Width: 516
GlyphClass: 2
Flags: W
AnchorPoint: "Anchor-2" 259 714 basechar 0
AnchorPoint: "Anchor-0" 259 0 basechar 0
LayerCount: 2
Fore
SplineSet
256 724 m 0,0,1
 351 724 351 724 410.5 675.5 c 128,-1,2
 470 627 470 627 470 542 c 0,3,4
 470 459 470 459 425.5 411.5 c 128,-1,5
 381 364 381 364 297 330 c 0,6,7
 238 306 238 306 202 286 c 128,-1,8
 166 266 166 266 149.5 242 c 128,-1,9
 133 218 133 218 133 183 c 0,10,11
 133 130 133 130 170 99 c 128,-1,12
 207 68 207 68 280 68 c 0,13,14
 333 68 333 68 383.5 83.5 c 128,-1,15
 434 99 434 99 469 115 c 1,16,-1
 469 29 l 1,17,18
 436 12 436 12 387.5 1 c 128,-1,19
 339 -10 339 -10 283 -10 c 0,20,21
 173 -10 173 -10 108.5 43 c 128,-1,22
 44 96 44 96 44 191 c 0,23,24
 44 247 44 247 67 284 c 128,-1,25
 90 321 90 321 133 347.5 c 128,-1,26
 176 374 176 374 234 397 c 0,27,28
 288 418 288 418 320 437.5 c 128,-1,29
 352 457 352 457 366 481 c 128,-1,30
 380 505 380 505 380 541 c 0,31,32
 380 588 380 588 349 616.5 c 128,-1,33
 318 645 318 645 257 645 c 0,34,35
 217 645 217 645 180 634 c 128,-1,36
 143 623 143 623 111 607 c 1,37,-1
 83 684 l 1,38,39
 120 702 120 702 163 713 c 128,-1,40
 206 724 206 724 256 724 c 0,0,1
EndSplineSet
EndChar

StartChar: uni01A8#0
Encoding: 424 424 364
Width: 452
GlyphClass: 2
Flags: W
AnchorPoint: "Anchor-2" 226 536 basechar 0
AnchorPoint: "Anchor-0" 226 0 basechar 0
LayerCount: 2
Fore
SplineSet
215 546 m 0,0,1
 306 546 306 546 355.5 509 c 128,-1,2
 405 472 405 472 405 404 c 0,3,4
 405 360 405 360 386.5 332 c 128,-1,5
 368 304 368 304 333 284 c 128,-1,6
 298 264 298 264 249 244 c 256,7,8
 200 224 200 224 173 208 c 128,-1,9
 146 192 146 192 136 176 c 128,-1,10
 126 160 126 160 126 140 c 0,11,12
 126 104 126 104 154 82.5 c 128,-1,13
 182 61 182 61 243 61 c 0,14,15
 286 61 286 61 329 74.5 c 128,-1,16
 372 88 372 88 403 104 c 1,17,-1
 403 24 l 1,18,19
 373 8 373 8 334.5 -1 c 128,-1,20
 296 -10 296 -10 244 -10 c 0,21,22
 42 -10 42 -10 42 148 c 0,23,24
 42 191 42 191 60 219 c 128,-1,25
 78 247 78 247 112 267.5 c 128,-1,26
 146 288 146 288 193 307 c 256,27,28
 240 326 240 326 268.5 341 c 128,-1,29
 297 356 297 356 309 371 c 128,-1,30
 321 386 321 386 321 409 c 0,31,32
 321 439 321 439 295 456.5 c 128,-1,33
 269 474 269 474 220 474 c 0,34,35
 190 474 190 474 158 464 c 128,-1,36
 126 454 126 454 94 440 c 1,37,-1
 65 510 l 1,38,39
 102 526 102 526 139 536 c 128,-1,40
 176 546 176 546 215 546 c 0,0,1
EndSplineSet
EndChar

StartChar: uni01AA#0
Encoding: 426 426 366
Width: 340
GlyphClass: 2
Flags: W
AnchorPoint: "Anchor-2" 170 765 basechar 0
AnchorPoint: "Anchor-0" 170 -240 basechar 0
LayerCount: 2
Fore
SplineSet
111 765 m 0,0,1
 170 765 170 765 203 730 c 128,-1,2
 236 695 236 695 236 624 c 2,3,-1
 236 -72 l 2,4,5
 236 -168 236 -168 308 -168 c 0,6,7
 328 -168 328 -168 350.5 -164.5 c 128,-1,8
 373 -161 373 -161 386 -157 c 1,9,-1
 386 -224 l 1,10,11
 372 -231 372 -231 346 -235.5 c 128,-1,12
 320 -240 320 -240 295 -240 c 0,13,14
 253 -240 253 -240 220 -225.5 c 128,-1,15
 187 -211 187 -211 168.5 -174.5 c 128,-1,16
 150 -138 150 -138 150 -73 c 2,17,-1
 150 542 l 1,18,-1
 109 542 l 2,19,20
 47 542 47 542 19.5 573.5 c 128,-1,21
 -8 605 -8 605 -8 654 c 0,22,23
 -8 682 -8 682 3 707.5 c 128,-1,24
 14 733 14 733 40 749 c 128,-1,25
 66 765 66 765 111 765 c 0,0,1
104 693 m 0,26,27
 84 693 84 693 76 681 c 128,-1,28
 68 669 68 669 68 654 c 0,29,30
 68 632 68 632 81 623 c 128,-1,31
 94 614 94 614 114 614 c 2,32,-1
 150 614 l 1,33,-1
 150 627 l 2,34,35
 150 656 150 656 140 674.5 c 128,-1,36
 130 693 130 693 104 693 c 0,26,27
EndSplineSet
EndChar

StartChar: uni01AB#0
Encoding: 427 427 367
Width: 345
GlyphClass: 2
Flags: W
AnchorPoint: "Anchor-2" 173 659 basechar 0
AnchorPoint: "Anchor-0" 173 -240 basechar 0
LayerCount: 2
Fore
SplineSet
212 -240 m 0,0,1
 194 -240 194 -240 179 -236 c 128,-1,2
 164 -232 164 -232 154 -228 c 1,3,-1
 154 -155 l 1,4,5
 162 -158 162 -158 174 -161 c 128,-1,6
 186 -164 186 -164 201 -164 c 0,7,8
 246 -164 246 -164 246 -112 c 2,9,-1
 246 -10 l 1,10,-1
 227 -10 l 2,11,12
 192 -10 192 -10 159.5 4.5 c 128,-1,13
 127 19 127 19 107 55 c 128,-1,14
 87 91 87 91 87 156 c 2,15,-1
 87 468 l 1,16,-1
 16 468 l 1,17,-1
 16 510 l 1,18,-1
 89 545 l 1,19,-1
 122 659 l 1,20,-1
 174 659 l 1,21,-1
 174 536 l 1,22,-1
 320 536 l 1,23,-1
 320 468 l 1,24,-1
 174 468 l 1,25,-1
 174 158 l 2,26,27
 174 62 174 62 252 62 c 0,28,29
 271 62 271 62 291 65 c 128,-1,30
 311 68 311 68 324 73 c 1,31,-1
 324 -107 l 2,32,33
 324 -172 324 -172 296.5 -206 c 128,-1,34
 269 -240 269 -240 212 -240 c 0,0,1
EndSplineSet
EndChar

StartChar: uni01AC#0
Encoding: 428 428 368
Width: 544
GlyphClass: 2
Flags: W
AnchorPoint: "Anchor-2" 272 714 basechar 0
AnchorPoint: "Anchor-0" 272 0 basechar 0
LayerCount: 2
Fore
SplineSet
238 0 m 1,0,-1
 238 635 l 1,1,-1
 144 635 l 2,2,3
 87 635 87 635 87 587 c 0,4,5
 87 570 87 570 90.5 555 c 128,-1,6
 94 540 94 540 96 533 c 1,7,-1
 19 533 l 1,8,9
 15 544 15 544 12 560 c 128,-1,10
 9 576 9 576 9 588 c 0,11,12
 9 652 9 652 42 683 c 128,-1,13
 75 714 75 714 145 714 c 2,14,-1
 533 714 l 1,15,-1
 533 635 l 1,16,-1
 327 635 l 1,17,-1
 327 0 l 1,18,-1
 238 0 l 1,0,-1
EndSplineSet
EndChar

StartChar: uni01AD#0
Encoding: 429 429 369
Width: 345
GlyphClass: 2
Flags: W
AnchorPoint: "Anchor-2" 173 765 basechar 0
AnchorPoint: "Anchor-0" 173 0 basechar 0
LayerCount: 2
Fore
SplineSet
229 765 m 0,0,1
 251 765 251 765 271 760.5 c 128,-1,2
 291 756 291 756 303 752 c 1,3,-1
 303 679 l 1,4,5
 294 682 294 682 273 685.5 c 128,-1,6
 252 689 252 689 230 689 c 0,7,8
 174 689 174 689 174 621 c 2,9,-1
 174 536 l 1,10,-1
 320 536 l 1,11,-1
 320 468 l 1,12,-1
 174 468 l 1,13,-1
 174 158 l 2,14,15
 174 109 174 109 196 85.5 c 128,-1,16
 218 62 218 62 252 62 c 0,17,18
 271 62 271 62 291 65 c 128,-1,19
 311 68 311 68 324 73 c 1,20,-1
 324 6 l 1,21,22
 310 -1 310 -1 284.5 -5.5 c 128,-1,23
 259 -10 259 -10 236 -10 c 0,24,25
 196 -10 196 -10 162 4.5 c 128,-1,26
 128 19 128 19 107.5 55 c 128,-1,27
 87 91 87 91 87 156 c 2,28,-1
 87 468 l 1,29,-1
 16 468 l 1,30,-1
 16 510 l 1,31,-1
 88 545 l 1,32,-1
 88 611 l 2,33,34
 88 685 88 685 123 725 c 128,-1,35
 158 765 158 765 229 765 c 0,0,1
EndSplineSet
EndChar

StartChar: uni01AE#0
Encoding: 430 430 370
Width: 524
GlyphClass: 2
Flags: W
AnchorPoint: "Anchor-2" 262 714 basechar 0
AnchorPoint: "Anchor-0" 262 -240 basechar 0
LayerCount: 2
Fore
SplineSet
347 -240 m 0,0,1
 282 -240 282 -240 250 -203 c 128,-1,2
 218 -166 218 -166 218 -83 c 2,3,-1
 218 635 l 1,4,-1
 10 635 l 1,5,-1
 10 714 l 1,6,-1
 513 714 l 1,7,-1
 513 635 l 1,8,-1
 307 635 l 1,9,-1
 307 -79 l 2,10,11
 307 -126 307 -126 321.5 -143.5 c 128,-1,12
 336 -161 336 -161 365 -161 c 0,13,14
 388 -161 388 -161 408 -151 c 1,15,-1
 408 -227 l 1,16,17
 387 -240 387 -240 347 -240 c 0,0,1
EndSplineSet
EndChar

StartChar: Uhorn#0
Encoding: 431 431 371
Width: 740
GlyphClass: 2
Flags: W
AnchorPoint: "Anchor-2" 345 760 basechar 0
AnchorPoint: "Anchor-0" 348 0 basechar 0
LayerCount: 2
Fore
SplineSet
604 714 m 1,0,-1
 604 617 l 1,1,2
 648 624 648 624 662 662.5 c 128,-1,3
 676 701 676 701 676 760 c 1,4,-1
 768 760 l 1,5,-1
 774 749 l 1,6,7
 766 702 766 702 748.5 661.5 c 128,-1,8
 731 621 731 621 696.5 593.5 c 128,-1,9
 662 566 662 566 604 555 c 1,10,-1
 604 252 l 2,11,12
 604 178 604 178 577 118.5 c 128,-1,13
 550 59 550 59 493.5 24.5 c 128,-1,14
 437 -10 437 -10 347 -10 c 0,15,16
 218 -10 218 -10 151 62.5 c 128,-1,17
 84 135 84 135 84 254 c 2,18,-1
 84 714 l 1,19,-1
 173 714 l 1,20,-1
 173 250 l 2,21,22
 173 164 173 164 216.5 116 c 128,-1,23
 260 68 260 68 349 68 c 0,24,25
 439 68 439 68 477 119.5 c 128,-1,26
 515 171 515 171 515 251 c 2,27,-1
 515 714 l 1,28,-1
 604 714 l 1,0,-1
EndSplineSet
Ligature2: "'ccmp' Glyph Composition/Decomposition lookup 6 subtable" U#0 uni031B#0
EndChar

StartChar: uhorn#0
Encoding: 432 432 372
Width: 640
GlyphClass: 2
Flags: W
AnchorPoint: "Anchor-2" 292 619 basechar 0
AnchorPoint: "Anchor-0" 277 0 basechar 0
LayerCount: 2
Fore
SplineSet
666 619 m 1,0,-1
 673 608 l 1,1,2
 665 561 665 561 647.5 519 c 128,-1,3
 630 477 630 477 596 448.5 c 128,-1,4
 562 420 562 420 504 414 c 1,5,-1
 504 0 l 1,6,-1
 434 0 l 1,7,-1
 421 71 l 1,8,-1
 417 71 l 1,9,10
 392 29 392 29 349.5 9.5 c 128,-1,11
 307 -10 307 -10 259 -10 c 0,12,13
 168 -10 168 -10 121 36.5 c 128,-1,14
 74 83 74 83 74 185 c 2,15,-1
 74 535 l 1,16,-1
 162 535 l 1,17,-1
 162 191 l 2,18,19
 162 63 162 63 272 63 c 0,20,21
 354 63 354 63 385.5 113 c 128,-1,22
 417 163 417 163 417 257 c 2,23,-1
 417 535 l 1,24,-1
 504 535 l 1,25,-1
 504 476 l 1,26,27
 549 484 549 484 562 522.5 c 128,-1,28
 575 561 575 561 575 619 c 1,29,-1
 666 619 l 1,0,-1
EndSplineSet
Ligature2: "'ccmp' Glyph Composition/Decomposition lookup 6 subtable" u#0 uni031B#0
EndChar

StartChar: uni01B1#0
Encoding: 433 433 373
Width: 735
GlyphClass: 2
Flags: W
AnchorPoint: "Anchor-2" 368 714 basechar 0
AnchorPoint: "Anchor-0" 368 -11 basechar 0
LayerCount: 2
Fore
SplineSet
368 68 m 0,0,1
 478 68 478 68 530 133.5 c 128,-1,2
 582 199 582 199 582 313 c 0,3,4
 582 413 582 413 548 494 c 128,-1,5
 514 575 514 575 428 642 c 1,6,-1
 428 714 l 1,7,-1
 700 714 l 1,8,-1
 700 635 l 1,9,-1
 533 635 l 1,10,11
 593 586 593 586 634.5 504 c 128,-1,12
 676 422 676 422 676 310 c 0,13,14
 676 212 676 212 640 140 c 128,-1,15
 604 68 604 68 535 28.5 c 128,-1,16
 466 -11 466 -11 368 -11 c 0,17,18
 268 -11 268 -11 199 28 c 128,-1,19
 130 67 130 67 94 139 c 128,-1,20
 58 211 58 211 58 309 c 0,21,22
 58 422 58 422 99 504 c 128,-1,23
 140 586 140 586 201 635 c 1,24,-1
 34 635 l 1,25,-1
 34 714 l 1,26,-1
 307 714 l 1,27,-1
 307 642 l 1,28,29
 221 576 221 576 186 494 c 128,-1,30
 151 412 151 412 151 313 c 0,31,32
 151 199 151 199 204 133.5 c 128,-1,33
 257 68 257 68 368 68 c 0,0,1
EndSplineSet
EndChar

StartChar: uni01B2#0
Encoding: 434 434 374
Width: 689
GlyphClass: 2
Flags: W
AnchorPoint: "Anchor-3" 670 714 basechar 0
AnchorPoint: "Anchor-2" 345 714 basechar 0
AnchorPoint: "Anchor-0" 343 0 basechar 0
LayerCount: 2
Fore
SplineSet
341 -10 m 0,0,1
 215 -10 215 -10 149.5 62.5 c 128,-1,2
 84 135 84 135 84 254 c 2,3,-1
 84 714 l 1,4,-1
 173 714 l 1,5,-1
 173 251 l 2,6,7
 173 164 173 164 216 116 c 128,-1,8
 259 68 259 68 346 68 c 0,9,10
 435 68 435 68 475 119.5 c 128,-1,11
 515 171 515 171 515 252 c 2,12,-1
 515 574 l 2,13,14
 515 613 515 613 499 629 c 128,-1,15
 483 645 483 645 452 645 c 0,16,17
 432 645 432 645 413 639.5 c 128,-1,18
 394 634 394 634 378 625 c 1,19,-1
 378 701 l 1,20,21
 393 712 393 712 418 718 c 128,-1,22
 443 724 443 724 469 724 c 0,23,24
 604 724 604 724 604 580 c 2,25,-1
 604 252 l 2,26,27
 604 178 604 178 575.5 118.5 c 128,-1,28
 547 59 547 59 488.5 24.5 c 128,-1,29
 430 -10 430 -10 341 -10 c 0,0,1
EndSplineSet
EndChar

StartChar: uni01B3#0
Encoding: 435 435 375
Width: 536
GlyphClass: 2
Flags: W
AnchorPoint: "Anchor-2" 268 725 basechar 0
AnchorPoint: "Anchor-0" 268 0 basechar 0
LayerCount: 2
Fore
SplineSet
58 725 m 0,0,1
 90 725 90 725 113 710 c 128,-1,2
 136 695 136 695 155 650 c 2,3,-1
 273 363 l 1,4,-1
 440 714 l 1,5,-1
 536 714 l 1,6,-1
 317 277 l 1,7,-1
 317 0 l 1,8,-1
 228 0 l 1,9,-1
 228 273 l 1,10,-1
 78 614 l 2,11,12
 63 649 63 649 37 649 c 0,13,14
 16 649 16 649 0 641 c 1,15,-1
 0 714 l 1,16,17
 10 718 10 718 24 721.5 c 128,-1,18
 38 725 38 725 58 725 c 0,0,1
EndSplineSet
EndChar

StartChar: uni01B4#0
Encoding: 436 436 376
Width: 515
GlyphClass: 2
Flags: W
AnchorPoint: "Anchor-2" 258 536 basechar 0
AnchorPoint: "Anchor-0" 258 -240 basechar 0
LayerCount: 2
Fore
SplineSet
460 546 m 0,0,1
 476 546 476 546 490 542.5 c 128,-1,2
 504 539 504 539 515 534 c 1,3,-1
 515 469 l 1,4,5
 510 470 510 470 502 472 c 128,-1,6
 494 474 494 474 486 474 c 0,7,8
 470 474 470 474 459 461 c 128,-1,9
 448 448 448 448 437 418 c 2,10,-1
 268 -72 l 2,11,12
 242 -149 242 -149 199 -194.5 c 128,-1,13
 156 -240 156 -240 82 -240 c 0,14,15
 60 -240 60 -240 42.5 -237.5 c 128,-1,16
 25 -235 25 -235 13 -232 c 1,17,-1
 13 -162 l 1,18,19
 23 -164 23 -164 37.5 -166 c 128,-1,20
 52 -168 52 -168 68 -168 c 0,21,22
 112 -168 112 -168 139.5 -142 c 128,-1,23
 167 -116 167 -116 182 -71 c 2,24,-1
 205 -2 l 1,25,-1
 2 536 l 1,26,-1
 95 536 l 1,27,-1
 202 231 l 2,28,29
 216 190 216 190 227 154 c 128,-1,30
 238 118 238 118 244 85 c 1,31,-1
 247 85 l 1,32,33
 253 110 253 110 265.5 150.5 c 128,-1,34
 278 191 278 191 292 233 c 2,35,-1
 361 447 l 2,36,37
 380 505 380 505 401.5 525.5 c 128,-1,38
 423 546 423 546 460 546 c 0,0,1
EndSplineSet
EndChar

StartChar: uni01B5#0
Encoding: 437 437 377
Width: 539
GlyphClass: 2
Flags: W
AnchorPoint: "Anchor-2" 269 714 basechar 0
AnchorPoint: "Anchor-0" 269 0 basechar 0
LayerCount: 2
Fore
SplineSet
73 407 m 1,0,-1
 246 407 l 1,1,-1
 386 634 l 1,2,-1
 46 634 l 1,3,-1
 46 714 l 1,4,-1
 494 714 l 1,5,-1
 494 646 l 1,6,-1
 345 407 l 1,7,-1
 458 407 l 1,8,-1
 458 336 l 1,9,-1
 298 336 l 1,10,-1
 143 80 l 1,11,-1
 503 80 l 1,12,-1
 503 0 l 1,13,-1
 35 0 l 1,14,-1
 35 68 l 1,15,-1
 199 336 l 1,16,-1
 73 336 l 1,17,-1
 73 407 l 1,0,-1
EndSplineSet
EndChar

StartChar: uni01B6#0
Encoding: 438 438 378
Width: 443
GlyphClass: 2
Flags: W
AnchorPoint: "Anchor-2" 222 536 basechar 0
AnchorPoint: "Anchor-0" 222 0 basechar 0
LayerCount: 2
Fore
SplineSet
401 536 m 1,0,-1
 401 470 l 1,1,-1
 298 313 l 1,2,-1
 391 313 l 1,3,-1
 391 243 l 1,4,-1
 249 243 l 1,5,-1
 136 68 l 1,6,-1
 407 68 l 1,7,-1
 407 0 l 1,8,-1
 36 0 l 1,9,-1
 36 58 l 1,10,-1
 156 243 l 1,11,-1
 53 243 l 1,12,-1
 53 313 l 1,13,-1
 204 313 l 1,14,-1
 304 468 l 1,15,-1
 52 468 l 1,16,-1
 52 536 l 1,17,-1
 401 536 l 1,0,-1
EndSplineSet
EndChar

StartChar: uni01B8#0
Encoding: 440 440 380
Width: 550
GlyphClass: 2
Flags: W
AnchorPoint: "Anchor-2" 275 714 basechar 0
AnchorPoint: "Anchor-0" 275 0 basechar 0
LayerCount: 2
Fore
SplineSet
312 -10 m 0,0,1
 220 -10 220 -10 162.5 20.5 c 128,-1,2
 105 51 105 51 78 101.5 c 128,-1,3
 51 152 51 152 51 211 c 0,4,5
 51 286 51 286 82 336.5 c 128,-1,6
 113 387 113 387 164.5 412.5 c 128,-1,7
 216 438 216 438 275 440 c 1,8,-1
 79 643 l 1,9,-1
 79 714 l 1,10,-1
 498 714 l 1,11,-1
 498 634 l 1,12,-1
 193 634 l 1,13,-1
 384 432 l 1,14,-1
 384 367 l 1,15,-1
 312 367 l 2,16,17
 239 367 239 367 191 331 c 128,-1,18
 143 295 143 295 143 213 c 0,19,20
 143 144 143 144 187.5 104 c 128,-1,21
 232 64 232 64 323 64 c 0,22,23
 370 64 370 64 422 76 c 128,-1,24
 474 88 474 88 518 111 c 1,25,-1
 518 29 l 1,26,27
 475 7 475 7 425 -1.5 c 128,-1,28
 375 -10 375 -10 312 -10 c 0,0,1
EndSplineSet
EndChar

StartChar: uni01B9#0
Encoding: 441 441 381
Width: 474
GlyphClass: 2
Flags: W
AnchorPoint: "Anchor-2" 237 536 basechar 0
AnchorPoint: "Anchor-0" 237 -240 basechar 0
LayerCount: 2
Fore
SplineSet
273 -240 m 0,0,1
 198 -240 198 -240 144 -210 c 128,-1,2
 90 -180 90 -180 61 -128 c 128,-1,3
 32 -76 32 -76 32 -11 c 0,4,5
 32 68 32 68 62.5 119 c 128,-1,6
 93 170 93 170 145.5 197 c 128,-1,7
 198 224 198 224 263 228 c 1,8,-1
 57 472 l 1,9,-1
 57 536 l 1,10,-1
 446 536 l 1,11,-1
 446 462 l 1,12,-1
 160 462 l 1,13,-1
 364 219 l 1,14,-1
 364 158 l 1,15,-1
 309 158 l 2,16,17
 222 158 222 158 170.5 119.5 c 128,-1,18
 119 81 119 81 119 -9 c 0,19,20
 119 -80 119 -80 163 -123.5 c 128,-1,21
 207 -167 207 -167 280 -167 c 0,22,23
 335 -167 335 -167 381 -154 c 128,-1,24
 427 -141 427 -141 459 -125 c 1,25,-1
 459 -205 l 1,26,27
 428 -222 428 -222 382.5 -231 c 128,-1,28
 337 -240 337 -240 273 -240 c 0,0,1
EndSplineSet
EndChar

StartChar: uni01BA#0
Encoding: 442 442 382
Width: 475
GlyphClass: 2
Flags: W
AnchorPoint: "Anchor-2" 237 536 basechar 0
AnchorPoint: "Anchor-0" 237 -240 basechar 0
LayerCount: 2
Fore
SplineSet
205 -240 m 0,0,1
 128 -240 128 -240 78 -211.5 c 128,-1,2
 28 -183 28 -183 28 -121 c 0,3,4
 28 -88 28 -88 43 -60.5 c 128,-1,5
 58 -33 58 -33 95.5 -16.5 c 128,-1,6
 133 0 133 0 202 0 c 0,7,8
 279 0 279 0 309.5 29 c 128,-1,9
 340 58 340 58 340 122 c 256,10,11
 340 186 340 186 296 212 c 128,-1,12
 252 238 252 238 167 238 c 2,13,-1
 111 238 l 1,14,-1
 111 299 l 1,15,-1
 281 462 l 1,16,-1
 29 462 l 1,17,-1
 29 536 l 1,18,-1
 403 536 l 1,19,-1
 403 472 l 1,20,-1
 228 308 l 1,21,22
 324 304 324 304 376 257 c 128,-1,23
 428 210 428 210 428 123 c 0,24,25
 428 66 428 66 406 22 c 128,-1,26
 384 -22 384 -22 335 -47.5 c 128,-1,27
 286 -73 286 -73 204 -73 c 0,28,29
 146 -73 146 -73 127.5 -86 c 128,-1,30
 109 -99 109 -99 109 -121 c 0,31,32
 109 -142 109 -142 134 -154.5 c 128,-1,33
 159 -167 159 -167 208 -167 c 256,34,35
 257 -167 257 -167 295.5 -155.5 c 128,-1,36
 334 -144 334 -144 361 -131 c 1,37,-1
 361 -211 l 1,38,39
 334 -224 334 -224 294.5 -232 c 128,-1,40
 255 -240 255 -240 205 -240 c 0,0,1
EndSplineSet
EndChar

StartChar: uni01BB#0
Encoding: 443 443 383
Width: 537
GlyphClass: 2
Flags: W
AnchorPoint: "Anchor-2" 268 765 basechar 0
AnchorPoint: "Anchor-0" 268 0 basechar 0
LayerCount: 2
Fore
SplineSet
245 765 m 0,0,1
 334 765 334 765 385 717 c 128,-1,2
 436 669 436 669 436 584 c 0,3,4
 436 542 436 542 426 502.5 c 128,-1,5
 416 463 416 463 394 419 c 1,6,-1
 485 419 l 1,7,-1
 485 349 l 1,8,-1
 350 349 l 1,9,-1
 142 74 l 1,10,-1
 142 70 l 1,11,-1
 490 70 l 1,12,-1
 490 0 l 1,13,-1
 44 0 l 1,14,-1
 44 73 l 1,15,-1
 251 349 l 1,16,-1
 71 349 l 1,17,-1
 71 419 l 1,18,-1
 299 419 l 1,19,20
 325 465 325 465 335.5 502.5 c 128,-1,21
 346 540 346 540 346 582 c 0,22,23
 346 634 346 634 317.5 661 c 128,-1,24
 289 688 289 688 242 688 c 0,25,26
 198 688 198 688 165 671 c 128,-1,27
 132 654 132 654 97 622 c 1,28,-1
 51 681 l 1,29,30
 88 716 88 716 136 740.5 c 128,-1,31
 184 765 184 765 245 765 c 0,0,1
EndSplineSet
EndChar

StartChar: uni01BC#0
Encoding: 444 444 384
Width: 549
GlyphClass: 2
Flags: W
AnchorPoint: "Anchor-2" 274 714 basechar 0
AnchorPoint: "Anchor-0" 274 0 basechar 0
LayerCount: 2
Fore
SplineSet
225 -10 m 0,0,1
 171 -10 171 -10 122.5 -1.5 c 128,-1,2
 74 7 74 7 32 29 c 1,3,-1
 32 111 l 1,4,5
 75 88 75 88 127 76 c 128,-1,6
 179 64 179 64 226 64 c 0,7,8
 315 64 315 64 360 105 c 128,-1,9
 405 146 405 146 405 222 c 0,10,11
 405 297 405 297 358 332 c 128,-1,12
 311 367 311 367 241 367 c 2,13,-1
 124 367 l 1,14,-1
 124 634 l 1,15,-1
 36 634 l 1,16,-1
 36 714 l 1,17,-1
 470 714 l 1,18,-1
 470 634 l 1,19,-1
 213 634 l 1,20,-1
 213 441 l 1,21,-1
 251 441 l 2,22,23
 322 441 322 441 377.5 415.5 c 128,-1,24
 433 390 433 390 465.5 341 c 128,-1,25
 498 292 498 292 498 221 c 0,26,27
 498 154 498 154 468.5 101.5 c 128,-1,28
 439 49 439 49 378.5 19.5 c 128,-1,29
 318 -10 318 -10 225 -10 c 0,0,1
EndSplineSet
EndChar

StartChar: uni01BD#0
Encoding: 445 445 385
Width: 465
GlyphClass: 2
Flags: W
AnchorPoint: "Anchor-2" 232 536 basechar 0
AnchorPoint: "Anchor-0" 232 0 basechar 0
LayerCount: 2
Fore
SplineSet
204 -10 m 0,0,1
 93 -10 93 -10 31 25 c 1,2,-1
 31 104 l 1,3,4
 62 88 62 88 107 75 c 128,-1,5
 152 62 152 62 203 62 c 0,6,7
 259 62 259 62 298 87 c 128,-1,8
 337 112 337 112 337 171 c 0,9,10
 337 224 337 224 301.5 248.5 c 128,-1,11
 266 273 266 273 194 273 c 2,12,-1
 109 273 l 1,13,-1
 109 462 l 1,14,-1
 40 462 l 1,15,-1
 40 536 l 1,16,-1
 393 536 l 1,17,-1
 393 462 l 1,18,-1
 187 462 l 1,19,-1
 187 345 l 1,20,-1
 214 345 l 2,21,22
 292 345 292 345 337.5 323.5 c 128,-1,23
 383 302 383 302 403 264 c 128,-1,24
 423 226 423 226 423 177 c 256,25,26
 423 128 423 128 399.5 85.5 c 128,-1,27
 376 43 376 43 327.5 16.5 c 128,-1,28
 279 -10 279 -10 204 -10 c 0,0,1
EndSplineSet
EndChar

StartChar: uni01BE#0
Encoding: 446 446 386
Width: 438
GlyphClass: 2
Flags: W
AnchorPoint: "Anchor-2" 179 659 basechar 0
AnchorPoint: "Anchor-0" 219 0 basechar 0
LayerCount: 2
Fore
SplineSet
194 -10 m 0,0,1
 142 -10 142 -10 102.5 -1 c 128,-1,2
 63 8 63 8 34 24 c 1,3,-1
 34 104 l 1,4,5
 64 88 64 88 107 74.5 c 128,-1,6
 150 61 150 61 194 61 c 0,7,8
 256 61 256 61 284 82.5 c 128,-1,9
 312 104 312 104 312 140 c 0,10,11
 312 168 312 168 290 189 c 128,-1,12
 268 210 268 210 207 237 c 0,13,14
 166 255 166 255 147 285.5 c 128,-1,15
 128 316 128 316 128 378 c 2,16,-1
 128 468 l 1,17,-1
 42 468 l 1,18,-1
 42 510 l 1,19,-1
 129 545 l 1,20,-1
 162 659 l 1,21,-1
 214 659 l 1,22,-1
 214 536 l 1,23,-1
 359 536 l 1,24,-1
 359 468 l 1,25,-1
 214 468 l 1,26,-1
 214 376 l 2,27,28
 214 342 214 342 224 327 c 128,-1,29
 234 312 234 312 258 302 c 0,30,31
 322 276 322 276 359 242.5 c 128,-1,32
 396 209 396 209 396 148 c 0,33,34
 396 70 396 70 342 30 c 128,-1,35
 288 -10 288 -10 194 -10 c 0,0,1
EndSplineSet
EndChar

StartChar: uni01BF#0
Encoding: 447 447 387
Width: 555
GlyphClass: 2
Flags: W
AnchorPoint: "Anchor-2" 278 536 basechar 0
AnchorPoint: "Anchor-0" 278 -240 basechar 0
LayerCount: 2
Fore
SplineSet
314 546 m 0,0,1
 399 546 399 546 454.5 489.5 c 128,-1,2
 510 433 510 433 510 323 c 0,3,4
 510 228 510 228 466.5 155.5 c 128,-1,5
 423 83 423 83 345.5 40 c 128,-1,6
 268 -3 268 -3 166 -10 c 1,7,-1
 166 -240 l 1,8,-1
 79 -240 l 1,9,-1
 79 536 l 1,10,-1
 150 536 l 1,11,-1
 162 463 l 1,12,-1
 166 463 l 1,13,14
 187 498 187 498 222 522 c 128,-1,15
 257 546 257 546 314 546 c 0,0,1
295 472 m 0,16,17
 225 472 225 472 195.5 426 c 128,-1,18
 166 380 166 380 166 286 c 2,19,-1
 166 62 l 1,20,21
 238 66 238 66 295.5 100 c 128,-1,22
 353 134 353 134 386.5 191 c 128,-1,23
 420 248 420 248 420 321 c 0,24,25
 420 389 420 389 387 430.5 c 128,-1,26
 354 472 354 472 295 472 c 0,16,17
EndSplineSet
EndChar

StartChar: uni01C0#0
Encoding: 448 448 388
Width: 301
GlyphClass: 2
Flags: W
AnchorPoint: "Anchor-2" 151 760 basechar 0
AnchorPoint: "Anchor-0" 151 0 basechar 0
LayerCount: 2
Fore
SplineSet
113 0 m 1,0,-1
 113 760 l 1,1,-1
 188 760 l 1,2,-1
 188 0 l 1,3,-1
 113 0 l 1,0,-1
EndSplineSet
EndChar

StartChar: uni01C2#0
Encoding: 450 450 390
Width: 485
GlyphClass: 2
Flags: W
AnchorPoint: "Anchor-2" 243 760 basechar 0
AnchorPoint: "Anchor-0" 243 0 basechar 0
LayerCount: 2
Fore
SplineSet
280 760 m 1,0,-1
 280 505 l 1,1,-1
 425 505 l 1,2,-1
 425 433 l 1,3,-1
 280 433 l 1,4,-1
 280 339 l 1,5,-1
 425 339 l 1,6,-1
 425 267 l 1,7,-1
 280 267 l 1,8,-1
 280 0 l 1,9,-1
 205 0 l 1,10,-1
 205 267 l 1,11,-1
 60 267 l 1,12,-1
 60 339 l 1,13,-1
 205 339 l 1,14,-1
 205 433 l 1,15,-1
 60 433 l 1,16,-1
 60 505 l 1,17,-1
 205 505 l 1,18,-1
 205 760 l 1,19,-1
 280 760 l 1,0,-1
EndSplineSet
EndChar

StartChar: uni01E4#0
Encoding: 484 484 424
Width: 684
GlyphClass: 2
Flags: W
AnchorPoint: "Anchor-2" 406 714 basechar 0
AnchorPoint: "Anchor-0" 388 0 basechar 0
LayerCount: 2
Fore
SplineSet
386 -10 m 0,0,1
 274 -10 274 -10 201 35 c 128,-1,2
 128 80 128 80 92.5 161.5 c 128,-1,3
 57 243 57 243 57 354 c 0,4,5
 57 466 57 466 98 549 c 128,-1,6
 139 632 139 632 217 678 c 128,-1,7
 295 724 295 724 405 724 c 0,8,9
 461 724 461 724 511.5 713 c 128,-1,10
 562 702 562 702 605 682 c 1,11,-1
 572 604 l 1,12,13
 537 620 537 620 491 632.5 c 128,-1,14
 445 645 445 645 398 645 c 0,15,16
 280 645 280 645 215 570.5 c 128,-1,17
 150 496 150 496 150 357 c 0,18,19
 150 268 150 268 175 203 c 128,-1,20
 200 138 200 138 254.5 103 c 128,-1,21
 309 68 309 68 397 68 c 0,22,23
 440 68 440 68 470 73 c 128,-1,24
 500 78 500 78 525 85 c 1,25,-1
 525 158 l 1,26,-1
 389 158 l 1,27,-1
 389 229 l 1,28,-1
 525 229 l 1,29,-1
 525 307 l 1,30,-1
 379 307 l 1,31,-1
 379 387 l 1,32,-1
 614 387 l 1,33,-1
 614 229 l 1,34,-1
 674 229 l 1,35,-1
 674 158 l 1,36,-1
 614 158 l 1,37,-1
 614 30 l 1,38,39
 565 13 565 13 512.5 1.5 c 128,-1,40
 460 -10 460 -10 386 -10 c 0,0,1
EndSplineSet
EndChar

StartChar: uni01E5#0
Encoding: 485 485 425
Width: 579
GlyphClass: 2
Flags: W
AnchorPoint: "Anchor-2" 290 536 basechar 0
AnchorPoint: "Anchor-0" 290 -240 basechar 0
LayerCount: 2
Fore
SplineSet
257 546 m 0,0,1
 306 546 306 546 346 526 c 128,-1,2
 386 506 386 506 414 465 c 1,3,-1
 419 465 l 1,4,-1
 430 536 l 1,5,-1
 500 536 l 1,6,-1
 500 -32 l 1,7,-1
 552 -32 l 1,8,-1
 552 -103 l 1,9,-1
 492 -103 l 1,10,11
 478 -164 478 -164 424 -202 c 128,-1,12
 370 -240 370 -240 272 -240 c 0,13,14
 162 -240 162 -240 90 -206 c 1,15,-1
 90 -125 l 1,16,17
 166 -167 166 -167 277 -167 c 0,18,19
 329 -167 329 -167 359.5 -150.5 c 128,-1,20
 390 -134 390 -134 401 -103 c 1,21,-1
 246 -103 l 1,22,-1
 246 -32 l 1,23,-1
 414 -32 l 1,24,-1
 414 33 l 2,25,26
 414 50 414 50 415 69 c 128,-1,27
 416 88 416 88 417 99 c 1,28,-1
 413 99 l 1,29,30
 361 18 361 18 258 18 c 0,31,32
 160 18 160 18 105.5 87.5 c 128,-1,33
 51 157 51 157 51 282 c 0,34,35
 51 403 51 403 105.5 474.5 c 128,-1,36
 160 546 160 546 257 546 c 0,0,1
271 472 m 0,37,38
 209 472 209 472 175 422 c 128,-1,39
 141 372 141 372 141 281 c 0,40,41
 141 188 141 188 174.5 139 c 128,-1,42
 208 90 208 90 273 90 c 0,43,44
 347 90 347 90 381 130 c 128,-1,45
 415 170 415 170 415 261 c 2,46,-1
 415 277 l 2,47,48
 415 379 415 379 380 425.5 c 128,-1,49
 345 472 345 472 271 472 c 0,37,38
EndSplineSet
EndChar

StartChar: uni01F6#0
Encoding: 502 502 442
Width: 890
GlyphClass: 2
Flags: W
AnchorPoint: "Anchor-2" 445 714 basechar 0
AnchorPoint: "Anchor-0" 445 0 basechar 0
LayerCount: 2
Fore
SplineSet
91 0 m 1,0,-1
 91 714 l 1,1,-1
 180 714 l 1,2,-1
 180 412 l 1,3,-1
 454 412 l 1,4,-1
 454 714 l 1,5,-1
 543 714 l 1,6,-1
 543 164 l 2,7,8
 543 119 543 119 564.5 94 c 128,-1,9
 586 69 586 69 630 69 c 0,10,11
 675 69 675 69 696 96 c 128,-1,12
 717 123 717 123 717 165 c 2,13,-1
 717 536 l 1,14,-1
 806 536 l 1,15,-1
 806 165 l 2,16,17
 806 91 806 91 762.5 41 c 128,-1,18
 719 -9 719 -9 628 -9 c 0,19,20
 542 -9 542 -9 498 38.5 c 128,-1,21
 454 86 454 86 454 166 c 2,22,-1
 454 333 l 1,23,-1
 180 333 l 1,24,-1
 180 0 l 1,25,-1
 91 0 l 1,0,-1
EndSplineSet
EndChar

StartChar: uni01F7#0
Encoding: 503 503 443
Width: 622
GlyphClass: 2
Flags: W
AnchorPoint: "Anchor-2" 312 725 basechar 0
AnchorPoint: "Anchor-0" 312 -240 basechar 0
LayerCount: 2
Fore
SplineSet
368 725 m 0,0,1
 426 725 426 725 472 699 c 128,-1,2
 518 673 518 673 544.5 619 c 128,-1,3
 571 565 571 565 571 482 c 0,4,5
 571 393 571 393 535 304.5 c 128,-1,6
 499 216 499 216 413.5 135.5 c 128,-1,7
 328 55 328 55 180 -10 c 1,8,-1
 180 -240 l 1,9,-1
 91 -240 l 1,10,-1
 91 715 l 1,11,-1
 161 715 l 1,12,-1
 176 618 l 1,13,-1
 180 618 l 1,14,15
 208 663 208 663 253 694 c 128,-1,16
 298 725 298 725 368 725 c 0,0,1
351 647 m 0,17,18
 288 647 288 647 250.5 618.5 c 128,-1,19
 213 590 213 590 196.5 538.5 c 128,-1,20
 180 487 180 487 180 418 c 2,21,-1
 180 74 l 1,22,23
 333 144 333 144 407.5 249.5 c 128,-1,24
 482 355 482 355 482 481 c 0,25,26
 482 564 482 564 447 605.5 c 128,-1,27
 412 647 412 647 351 647 c 0,17,18
EndSplineSet
EndChar

StartChar: Aringacute#0
Encoding: 506 506 446
Width: 605
GlyphClass: 2
Flags: W
AnchorPoint: "Anchor-2" 303 958 basechar 0
AnchorPoint: "Anchor-0" 303 0 basechar 0
LayerCount: 2
Fore
SplineSet
256 829 m 1,0,-1
 256 838 l 1,1,2
 276 862 276 862 298.5 896 c 128,-1,3
 321 930 321 930 336 958 c 1,4,-1
 440 958 l 1,5,-1
 440 950 l 1,6,7
 430 936 430 936 408 913 c 128,-1,8
 386 890 386 890 360.5 867 c 128,-1,9
 335 844 335 844 314 829 c 1,10,-1
 256 829 l 1,0,-1
0 0 m 1,11,-1
 242 608 l 1,12,13
 221 621 221 621 209 643.5 c 128,-1,14
 197 666 197 666 197 698 c 0,15,16
 197 748 197 748 226 776 c 128,-1,17
 255 804 255 804 301 804 c 0,18,19
 345 804 345 804 376 776 c 128,-1,20
 407 748 407 748 407 699 c 0,21,22
 407 668 407 668 395.5 645 c 128,-1,23
 384 622 384 622 364 609 c 1,24,-1
 605 0 l 1,25,-1
 513 0 l 1,26,-1
 438 192 l 1,27,-1
 163 192 l 1,28,-1
 92 0 l 1,29,-1
 0 0 l 1,11,-1
301 642 m 0,30,31
 324 642 324 642 338.5 656.5 c 128,-1,32
 353 671 353 671 353 698 c 256,33,34
 353 725 353 725 338.5 739.5 c 128,-1,35
 324 754 324 754 301 754 c 256,36,37
 278 754 278 754 263.5 739.5 c 128,-1,38
 249 725 249 725 249 698 c 0,39,40
 249 672 249 672 262.5 657 c 128,-1,41
 276 642 276 642 301 642 c 0,30,31
193 272 m 1,42,-1
 413 272 l 1,43,-1
 336 479 l 2,44,45
 329 497 329 497 319.5 525 c 128,-1,46
 310 553 310 553 302 580 c 1,47,48
 294 553 294 553 284.5 523.5 c 128,-1,49
 275 494 275 494 269 478 c 2,50,-1
 193 272 l 1,42,-1
EndSplineSet
Substitution2: "'c2sc' Capitals to Small Capitals lookup 33 subtable" aringacute.sc#0
EndChar

StartChar: aringacute#0
Encoding: 507 507 447
Width: 531
GlyphClass: 2
Flags: W
AnchorPoint: "Anchor-2" 266 958 basechar 0
AnchorPoint: "Anchor-0" 266 0 basechar 0
LayerCount: 2
Fore
SplineSet
422 958 m 1,0,-1
 422 952 l 1,1,2
 412 940 412 940 385.5 922 c 128,-1,3
 359 904 359 904 329 886 c 128,-1,4
 299 868 299 868 278 856 c 1,5,-1
 216 856 l 1,6,-1
 216 864 l 1,7,8
 236 883 236 883 258.5 909.5 c 128,-1,9
 281 936 281 936 296 958 c 1,10,-1
 422 958 l 1,0,-1
269 817 m 0,11,12
 314 817 314 817 344.5 789.5 c 128,-1,13
 375 762 375 762 375 713 c 0,14,15
 375 662 375 662 345 634 c 128,-1,16
 315 606 315 606 269 606 c 256,17,18
 223 606 223 606 194.5 634 c 128,-1,19
 166 662 166 662 166 712 c 256,20,21
 166 762 166 762 194.5 789.5 c 128,-1,22
 223 817 223 817 269 817 c 0,11,12
269 768 m 0,23,24
 247 768 247 768 232 753 c 128,-1,25
 217 738 217 738 217 712 c 256,26,27
 217 686 217 686 230.5 671 c 128,-1,28
 244 656 244 656 269 656 c 0,29,30
 292 656 292 656 306.5 671 c 128,-1,31
 321 686 321 686 321 712 c 256,32,33
 321 738 321 738 306.5 753 c 128,-1,34
 292 768 292 768 269 768 c 0,23,24
272 545 m 0,35,36
 364 545 364 545 409.5 502 c 128,-1,37
 455 459 455 459 455 365 c 2,38,-1
 455 0 l 1,39,-1
 392 0 l 1,40,-1
 375 76 l 1,41,-1
 371 76 l 1,42,43
 338 32 338 32 302 11 c 128,-1,44
 266 -10 266 -10 202 -10 c 0,45,46
 134 -10 134 -10 88.5 28.5 c 128,-1,47
 43 67 43 67 43 149 c 0,48,49
 43 229 43 229 102 272.5 c 128,-1,50
 161 316 161 316 284 320 c 2,51,-1
 369 323 l 1,52,-1
 369 355 l 2,53,54
 369 422 369 422 342.5 448 c 128,-1,55
 316 474 316 474 267 474 c 0,56,57
 228 474 228 474 192 461.5 c 128,-1,58
 156 449 156 449 125 433 c 1,59,-1
 98 499 l 1,60,61
 132 518 132 518 177 531.5 c 128,-1,62
 222 545 222 545 272 545 c 0,35,36
369 262 m 1,63,-1
 296 259 l 2,64,65
 204 255 204 255 168.5 227 c 128,-1,66
 133 199 133 199 133 148 c 0,67,68
 133 103 133 103 158 82 c 128,-1,69
 183 61 183 61 223 61 c 0,70,71
 285 61 285 61 327 98.5 c 128,-1,72
 369 136 369 136 369 214 c 2,73,-1
 369 262 l 1,63,-1
EndSplineSet
Substitution2: "'smcp' Lowercase to Small Capitals lookup 34 subtable" aringacute.sc#0
EndChar

StartChar: uni021C#0
Encoding: 540 540 480
Width: 557
GlyphClass: 2
Flags: W
AnchorPoint: "Anchor-2" 263 714 basechar 0
AnchorPoint: "Anchor-0" 249 -132 basechar 0
LayerCount: 2
Fore
SplineSet
39 -180 m 1,0,-1
 39 -94 l 1,1,2
 148 -65 148 -65 220.5 -35 c 128,-1,3
 293 -5 293 -5 335.5 28 c 128,-1,4
 378 61 378 61 395.5 99 c 128,-1,5
 413 137 413 137 413 182 c 0,6,7
 413 242 413 242 382.5 277 c 128,-1,8
 352 312 352 312 301 337 c 1,9,10
 266 325 266 325 232.5 314.5 c 128,-1,11
 199 304 199 304 162 294 c 1,12,-1
 145 364 l 1,13,14
 236 389 236 389 292 412 c 128,-1,15
 348 435 348 435 373.5 465.5 c 128,-1,16
 399 496 399 496 399 541 c 0,17,18
 399 592 399 592 368 621 c 128,-1,19
 337 650 337 650 274 650 c 0,20,21
 220 650 220 650 173 634.5 c 128,-1,22
 126 619 126 619 81 589 c 1,23,-1
 38 650 l 1,24,25
 95 690 95 690 154.5 707 c 128,-1,26
 214 724 214 724 274 724 c 0,27,28
 332 724 332 724 381.5 706.5 c 128,-1,29
 431 689 431 689 461.5 649.5 c 128,-1,30
 492 610 492 610 492 544 c 0,31,32
 492 486 492 486 460.5 444.5 c 128,-1,33
 429 403 429 403 377 374 c 1,34,35
 411 358 411 358 440.5 333 c 128,-1,36
 470 308 470 308 488.5 271 c 128,-1,37
 507 234 507 234 507 182 c 0,38,39
 507 89 507 89 459.5 23.5 c 128,-1,40
 412 -42 412 -42 309 -90 c 128,-1,41
 206 -138 206 -138 39 -180 c 1,0,-1
EndSplineSet
EndChar

